<svg width="1860" height="60" viewBox="0 0 1860 60" fill="none" xmlns="http://www.w3.org/2000/svg">
<g id="nav-v">
<mask id="path-1-outside-1_990_12433" maskUnits="userSpaceOnUse" x="0" y="0" width="1860" height="61" fill="black">
<rect fill="white" width="1860" height="61"/>
<path d="M0 0H1860V60H0V0Z"/>
</mask>
<path d="M0 0H1860V60H0V0Z" fill="white"/>
<path d="M1860 60V59H0V60V61H1860V60Z" fill="#001D6B" fill-opacity="0.15" mask="url(#path-1-outside-1_990_12433)"/>
<g id="Frame">
<g id="Icon Button" clip-path="url(#clip0_990_12433)">
<g id="Frame_2">
<g id="icon.24.chevron-left">
<g id="Frame_3">
<path id="Vector" d="M32.5 24C32.5 24 26.5 29 26.5 30C26.5 31 32.5 36 32.5 36" stroke="#0E1017" stroke-linecap="round" stroke-linejoin="round"/>
</g>
</g>
</g>
</g>
<g id="Icon Button_2" clip-path="url(#clip1_990_12433)">
<g id="Frame_4">
<g id="icon.24.chevron-right">
<g id="Frame_5">
<path id="Vector_2" d="M63.5 24C63.5 24 69.5 29 69.5 30C69.5 31 63.5 36 63.5 36" stroke="#0E1017" stroke-linecap="round" stroke-linejoin="round"/>
</g>
</g>
</g>
</g>
</g>
<path id="&#208;&#158;&#208;&#177;&#208;&#189;&#208;&#176;&#209;&#128;&#209;&#131;&#208;&#182;&#208;&#181;&#208;&#189;&#208;&#184;&#209;&#143;" d="M105.91 35.21C104.97 35.21 104.11 35.005 103.33 34.595C102.56 34.185 101.94 33.58 101.47 32.78C101.01 31.97 100.78 30.975 100.78 29.795C100.78 28.905 100.915 28.125 101.185 27.455C101.465 26.775 101.84 26.205 102.31 25.745C102.79 25.285 103.335 24.94 103.945 24.71C104.565 24.48 105.22 24.365 105.91 24.365C106.84 24.365 107.695 24.57 108.475 24.98C109.255 25.39 109.875 26 110.335 26.81C110.795 27.61 111.025 28.605 111.025 29.795C111.025 30.975 110.795 31.97 110.335 32.78C109.885 33.58 109.275 34.185 108.505 34.595C107.735 35.005 106.87 35.21 105.91 35.21ZM105.91 33.365C106.52 33.365 107.045 33.22 107.485 32.93C107.925 32.63 108.26 32.215 108.49 31.685C108.73 31.145 108.85 30.515 108.85 29.795C108.85 29.075 108.73 28.45 108.49 27.92C108.26 27.38 107.925 26.965 107.485 26.675C107.045 26.375 106.52 26.225 105.91 26.225C105.29 26.225 104.76 26.375 104.32 26.675C103.89 26.965 103.555 27.38 103.315 27.92C103.075 28.45 102.955 29.075 102.955 29.795C102.955 30.515 103.075 31.145 103.315 31.685C103.555 32.215 103.89 32.63 104.32 32.93C104.76 33.22 105.29 33.365 105.91 33.365ZM115.952 35.21C115.252 35.21 114.657 35.1 114.167 34.88C113.677 34.65 113.282 34.32 112.982 33.89C112.692 33.46 112.477 32.94 112.337 32.33C112.197 31.71 112.127 31.01 112.127 30.23C112.127 29.28 112.207 28.435 112.367 27.695C112.537 26.955 112.807 26.32 113.177 25.79C113.547 25.26 114.047 24.82 114.677 24.47C115.307 24.12 116.092 23.86 117.032 23.69C117.412 23.62 117.757 23.565 118.067 23.525C118.387 23.485 118.707 23.43 119.027 23.36L119.252 25.085C118.932 25.155 118.612 25.21 118.292 25.25C117.982 25.28 117.632 25.325 117.242 25.385C116.772 25.445 116.327 25.57 115.907 25.76C115.497 25.94 115.147 26.21 114.857 26.57C114.577 26.92 114.387 27.38 114.287 27.95C114.607 27.75 114.937 27.605 115.277 27.515C115.627 27.415 115.962 27.365 116.282 27.365C116.952 27.365 117.537 27.515 118.037 27.815C118.547 28.105 118.947 28.535 119.237 29.105C119.527 29.665 119.672 30.365 119.672 31.205C119.672 31.835 119.582 32.4 119.402 32.9C119.222 33.39 118.962 33.81 118.622 34.16C118.292 34.5 117.897 34.76 117.437 34.94C116.987 35.12 116.492 35.21 115.952 35.21ZM115.967 33.485C116.337 33.485 116.647 33.39 116.897 33.2C117.147 33 117.332 32.73 117.452 32.39C117.572 32.04 117.632 31.645 117.632 31.205C117.632 30.835 117.577 30.49 117.467 30.17C117.357 29.84 117.177 29.575 116.927 29.375C116.677 29.175 116.347 29.075 115.937 29.075C115.737 29.075 115.527 29.095 115.307 29.135C115.097 29.175 114.897 29.24 114.707 29.33C114.527 29.41 114.372 29.515 114.242 29.645C114.222 29.775 114.207 29.93 114.197 30.11C114.197 30.29 114.197 30.45 114.197 30.59C114.197 31.04 114.227 31.445 114.287 31.805C114.357 32.155 114.457 32.455 114.587 32.705C114.717 32.955 114.897 33.15 115.127 33.29C115.357 33.42 115.637 33.485 115.967 33.485ZM121.066 35V27.14H123.076V30.14H125.731V27.14H127.741V35H125.731V31.79H123.076V35H121.066ZM132.289 35.165C131.629 35.165 131.049 35.085 130.549 34.925C130.059 34.755 129.674 34.485 129.394 34.115C129.124 33.735 128.989 33.23 128.989 32.6C128.989 31.99 129.144 31.505 129.454 31.145C129.764 30.785 130.169 30.53 130.669 30.38C131.179 30.22 131.724 30.14 132.304 30.14C132.594 30.14 132.859 30.155 133.099 30.185C133.349 30.215 133.534 30.25 133.654 30.29V30.035C133.654 29.755 133.604 29.51 133.504 29.3C133.414 29.09 133.254 28.925 133.024 28.805C132.794 28.675 132.474 28.61 132.064 28.61C131.644 28.61 131.254 28.64 130.894 28.7C130.544 28.76 130.249 28.835 130.009 28.925L129.754 27.29C129.994 27.21 130.344 27.13 130.804 27.05C131.274 26.97 131.764 26.93 132.274 26.93C133.124 26.93 133.789 27.06 134.269 27.32C134.749 27.58 135.089 27.95 135.289 28.43C135.499 28.9 135.604 29.455 135.604 30.095V34.79C135.304 34.85 134.869 34.925 134.299 35.015C133.739 35.115 133.069 35.165 132.289 35.165ZM132.439 33.59C132.689 33.59 132.919 33.585 133.129 33.575C133.349 33.565 133.524 33.545 133.654 33.515V31.64C133.564 31.61 133.424 31.585 133.234 31.565C133.044 31.535 132.849 31.52 132.649 31.52C132.359 31.52 132.089 31.55 131.839 31.61C131.589 31.66 131.384 31.76 131.224 31.91C131.074 32.05 130.999 32.265 130.999 32.555C130.999 32.945 131.129 33.215 131.389 33.365C131.649 33.515 131.999 33.59 132.439 33.59ZM137.303 37.775V27.41C137.553 27.33 137.853 27.255 138.203 27.185C138.553 27.115 138.918 27.06 139.298 27.02C139.688 26.98 140.073 26.96 140.453 26.96C141.303 26.96 142.028 27.13 142.628 27.47C143.238 27.8 143.703 28.275 144.023 28.895C144.353 29.505 144.518 30.23 144.518 31.07C144.518 31.88 144.383 32.59 144.113 33.2C143.843 33.81 143.453 34.29 142.943 34.64C142.433 34.98 141.803 35.15 141.053 35.15C140.703 35.15 140.383 35.11 140.093 35.03C139.813 34.96 139.553 34.87 139.313 34.76V37.775H137.303ZM140.693 33.44C140.993 33.44 141.253 33.39 141.473 33.29C141.693 33.19 141.873 33.04 142.013 32.84C142.163 32.64 142.273 32.4 142.343 32.12C142.413 31.83 142.448 31.495 142.448 31.115C142.448 30.625 142.368 30.2 142.208 29.84C142.058 29.47 141.833 29.185 141.533 28.985C141.243 28.785 140.878 28.685 140.438 28.685C140.188 28.685 139.968 28.695 139.778 28.715C139.588 28.735 139.433 28.755 139.313 28.775V33.065C139.463 33.165 139.663 33.255 139.913 33.335C140.163 33.405 140.423 33.44 140.693 33.44ZM146.452 37.79C146.122 37.79 145.817 37.755 145.537 37.685C145.257 37.625 145.032 37.56 144.862 37.49L145.222 35.87C145.422 35.94 145.612 35.99 145.792 36.02C145.972 36.06 146.162 36.08 146.362 36.08C146.652 36.08 146.892 36.03 147.082 35.93C147.282 35.84 147.452 35.695 147.592 35.495C147.732 35.295 147.857 35.05 147.967 34.76C147.617 34.06 147.267 33.315 146.917 32.525C146.567 31.735 146.227 30.89 145.897 29.99C145.567 29.09 145.262 28.14 144.982 27.14H147.112C147.212 27.54 147.332 27.98 147.472 28.46C147.612 28.93 147.762 29.41 147.922 29.9C148.092 30.38 148.262 30.855 148.432 31.325C148.602 31.795 148.772 32.235 148.942 32.645C149.142 32.105 149.337 31.52 149.527 30.89C149.717 30.26 149.897 29.625 150.067 28.985C150.247 28.335 150.412 27.72 150.562 27.14H152.632C152.342 28.14 152.042 29.105 151.732 30.035C151.432 30.965 151.112 31.86 150.772 32.72C150.442 33.58 150.092 34.425 149.722 35.255C149.442 35.845 149.157 36.325 148.867 36.695C148.587 37.075 148.252 37.35 147.862 37.52C147.482 37.7 147.012 37.79 146.452 37.79ZM152.814 35C153.144 34.47 153.484 33.965 153.834 33.485C154.194 32.995 154.564 32.525 154.944 32.075C155.324 31.625 155.719 31.2 156.129 30.8C155.729 30.38 155.339 29.96 154.959 29.54C154.589 29.12 154.239 28.705 153.909 28.295C153.589 27.875 153.294 27.49 153.024 27.14H155.364C155.654 27.53 155.994 27.98 156.384 28.49C156.784 28.99 157.279 29.605 157.869 30.335V27.14H159.834V30.335C160.444 29.615 160.944 29 161.334 28.49C161.724 27.97 162.064 27.52 162.354 27.14H164.679C164.429 27.51 164.144 27.9 163.824 28.31C163.504 28.71 163.159 29.12 162.789 29.54C162.419 29.95 162.019 30.365 161.589 30.785C162.069 31.255 162.494 31.715 162.864 32.165C163.244 32.605 163.594 33.055 163.914 33.515C164.244 33.975 164.569 34.47 164.889 35H162.639C162.449 34.71 162.239 34.41 162.009 34.1C161.789 33.79 161.559 33.48 161.319 33.17C161.079 32.86 160.834 32.555 160.584 32.255C160.334 31.955 160.084 31.665 159.834 31.385V35H157.869V31.385C157.619 31.685 157.364 31.995 157.104 32.315C156.854 32.625 156.604 32.935 156.354 33.245C156.104 33.555 155.869 33.86 155.649 34.16C155.439 34.45 155.244 34.73 155.064 35H152.814ZM169.266 35.195C168.316 35.195 167.536 35.02 166.926 34.67C166.326 34.31 165.881 33.82 165.591 33.2C165.301 32.58 165.156 31.885 165.156 31.115C165.156 30.185 165.331 29.41 165.681 28.79C166.041 28.17 166.501 27.705 167.061 27.395C167.631 27.085 168.231 26.93 168.861 26.93C169.591 26.93 170.221 27.08 170.751 27.38C171.281 27.68 171.686 28.125 171.966 28.715C172.256 29.305 172.401 30.045 172.401 30.935C172.401 31.055 172.396 31.185 172.386 31.325C172.376 31.465 172.366 31.595 172.356 31.715H167.226C167.276 32.255 167.496 32.685 167.886 33.005C168.276 33.315 168.816 33.47 169.506 33.47C169.936 33.47 170.341 33.43 170.721 33.35C171.111 33.27 171.416 33.18 171.636 33.08L171.921 34.715C171.701 34.825 171.341 34.93 170.841 35.03C170.341 35.14 169.816 35.195 169.266 35.195ZM167.226 30.305H170.451C170.441 30.005 170.376 29.725 170.256 29.465C170.146 29.205 169.981 28.995 169.761 28.835C169.541 28.675 169.251 28.595 168.891 28.595C168.531 28.595 168.236 28.68 168.006 28.85C167.776 29.01 167.596 29.22 167.466 29.48C167.346 29.73 167.266 30.005 167.226 30.305ZM173.818 35V27.14H175.828V30.14H178.483V27.14H180.493V35H178.483V31.79H175.828V35H173.818ZM182.28 35V27.14H184.29C184.29 28.14 184.28 29.05 184.26 29.87C184.24 30.69 184.23 31.315 184.23 31.745C184.46 31.395 184.69 31.055 184.92 30.725C185.15 30.385 185.38 30.055 185.61 29.735C185.84 29.405 186.065 29.085 186.285 28.775C186.505 28.465 186.725 28.175 186.945 27.905C187.165 27.635 187.375 27.38 187.575 27.14H189.3V35H187.275C187.275 34.32 187.28 33.655 187.29 33.005C187.31 32.345 187.325 31.755 187.335 31.235C187.355 30.705 187.365 30.295 187.365 30.005C187.065 30.405 186.765 30.83 186.465 31.28C186.165 31.72 185.865 32.16 185.565 32.6C185.275 33.04 185 33.465 184.74 33.875C184.48 34.285 184.25 34.66 184.05 35H182.28ZM190.449 35C190.729 34.36 191.024 33.765 191.334 33.215C191.654 32.665 191.959 32.19 192.249 31.79C191.829 31.59 191.489 31.32 191.229 30.98C190.969 30.63 190.839 30.19 190.839 29.66C190.839 29.07 190.979 28.575 191.259 28.175C191.539 27.775 191.944 27.475 192.474 27.275C193.014 27.075 193.639 26.975 194.349 26.975C194.679 26.975 195.044 26.995 195.444 27.035C195.844 27.065 196.229 27.11 196.599 27.17C196.979 27.22 197.289 27.28 197.529 27.35V35H195.519V32.135H194.619C194.529 32.135 194.444 32.135 194.364 32.135C194.284 32.135 194.209 32.135 194.139 32.135C193.929 32.445 193.724 32.765 193.524 33.095C193.334 33.415 193.154 33.74 192.984 34.07C192.824 34.39 192.669 34.7 192.519 35H190.449ZM194.364 30.68H195.519V28.61C195.419 28.59 195.254 28.57 195.024 28.55C194.804 28.53 194.599 28.52 194.409 28.52C194.039 28.52 193.739 28.565 193.509 28.655C193.279 28.745 193.109 28.87 192.999 29.03C192.889 29.19 192.834 29.39 192.834 29.63C192.834 29.9 192.904 30.11 193.044 30.26C193.194 30.41 193.384 30.52 193.614 30.59C193.854 30.65 194.104 30.68 194.364 30.68Z" fill="#0E1017"/>
<g id="Frame_6">
<g id="Action Button" clip-path="url(#clip2_990_12433)">
<g id="Frame_7">
<path d="M215 30C215 20.0589 223.059 12 233 12H246C255.941 12 264 20.0589 264 30C264 39.9411 255.941 48 246 48H233C223.059 48 215 39.9411 215 30Z" fill="#CCF8E6"/>
<path id="Button" d="M231.446 35.09C231.196 35.09 230.906 35.075 230.576 35.045C230.256 35.025 229.936 34.995 229.616 34.955C229.306 34.915 229.031 34.865 228.791 34.805V24.8C229.051 24.73 229.341 24.675 229.661 24.635C229.981 24.595 230.296 24.565 230.606 24.545C230.926 24.525 231.221 24.515 231.491 24.515C232.261 24.515 232.966 24.6 233.606 24.77C234.246 24.93 234.756 25.21 235.136 25.61C235.526 26 235.721 26.545 235.721 27.245C235.721 27.775 235.586 28.235 235.316 28.625C235.046 29.005 234.676 29.28 234.206 29.45C234.816 29.61 235.306 29.89 235.676 30.29C236.046 30.69 236.231 31.27 236.231 32.03C236.231 33.04 235.836 33.805 235.046 34.325C234.266 34.835 233.066 35.09 231.446 35.09ZM231.566 34.04C232.156 34.04 232.706 33.985 233.216 33.875C233.736 33.765 234.151 33.565 234.461 33.275C234.771 32.985 234.926 32.565 234.926 32.015C234.926 31.265 234.671 30.76 234.161 30.5C233.651 30.23 232.956 30.095 232.076 30.095H230.021V33.95C230.181 33.97 230.401 33.99 230.681 34.01C230.971 34.03 231.266 34.04 231.566 34.04ZM230.021 29.06H231.866C232.366 29.06 232.811 29.015 233.201 28.925C233.591 28.825 233.896 28.645 234.116 28.385C234.336 28.125 234.446 27.76 234.446 27.29C234.446 26.66 234.181 26.215 233.651 25.955C233.121 25.695 232.421 25.565 231.551 25.565C231.221 25.565 230.926 25.575 230.666 25.595C230.406 25.605 230.191 25.625 230.021 25.655V29.06ZM241.167 35.165C240.337 35.165 239.642 35 239.082 34.67C238.532 34.33 238.117 33.855 237.837 33.245C237.557 32.635 237.417 31.93 237.417 31.13C237.417 30.32 237.562 29.61 237.852 29C238.152 28.39 238.577 27.91 239.127 27.56C239.677 27.21 240.327 27.035 241.077 27.035C241.487 27.035 241.877 27.07 242.247 27.14C242.617 27.21 242.912 27.305 243.132 27.425L242.832 28.415C242.632 28.325 242.407 28.25 242.157 28.19C241.907 28.13 241.582 28.1 241.182 28.1C240.362 28.1 239.737 28.37 239.307 28.91C238.877 29.44 238.662 30.18 238.662 31.13C238.662 31.72 238.752 32.24 238.932 32.69C239.112 33.13 239.397 33.475 239.787 33.725C240.177 33.975 240.697 34.1 241.347 34.1C241.737 34.1 242.077 34.06 242.367 33.98C242.667 33.89 242.887 33.805 243.027 33.725L243.267 34.745C243.067 34.845 242.772 34.94 242.382 35.03C241.992 35.12 241.587 35.165 241.167 35.165ZM247.904 35.165C246.994 35.165 246.254 34.99 245.684 34.64C245.114 34.29 244.694 33.81 244.424 33.2C244.154 32.59 244.019 31.895 244.019 31.115C244.019 30.205 244.184 29.45 244.514 28.85C244.854 28.25 245.289 27.8 245.819 27.5C246.349 27.19 246.904 27.035 247.484 27.035C248.144 27.035 248.709 27.175 249.179 27.455C249.659 27.735 250.029 28.16 250.289 28.73C250.559 29.29 250.694 30.005 250.694 30.875C250.694 30.955 250.689 31.045 250.679 31.145C250.679 31.235 250.674 31.325 250.664 31.415H245.264C245.304 32.265 245.539 32.925 245.969 33.395C246.409 33.865 247.079 34.1 247.979 34.1C248.479 34.1 248.894 34.055 249.224 33.965C249.554 33.865 249.794 33.78 249.944 33.71L250.139 34.715C249.999 34.795 249.719 34.89 249.299 35C248.889 35.11 248.424 35.165 247.904 35.165ZM245.294 30.455H249.479C249.469 29.965 249.384 29.545 249.224 29.195C249.074 28.835 248.854 28.56 248.564 28.37C248.274 28.17 247.919 28.07 247.499 28.07C247.069 28.07 246.689 28.185 246.359 28.415C246.039 28.635 245.789 28.925 245.609 29.285C245.429 29.645 245.324 30.035 245.294 30.455Z" fill="#00843A"/>
</g>
</g>
<g id="Action Button_2" clip-path="url(#clip3_990_12433)">
<g id="Frame_8">
<path id="Button_2" d="M281.875 35.225C280.995 35.225 280.18 35.02 279.43 34.61C278.68 34.2 278.08 33.595 277.63 32.795C277.18 31.985 276.955 30.985 276.955 29.795C276.955 28.905 277.085 28.125 277.345 27.455C277.605 26.775 277.965 26.21 278.425 25.76C278.885 25.3 279.41 24.955 280 24.725C280.59 24.495 281.215 24.38 281.875 24.38C282.775 24.38 283.595 24.585 284.335 24.995C285.075 25.395 285.67 26 286.12 26.81C286.58 27.61 286.81 28.605 286.81 29.795C286.81 30.985 286.585 31.985 286.135 32.795C285.685 33.595 285.085 34.2 284.335 34.61C283.595 35.02 282.775 35.225 281.875 35.225ZM281.875 34.115C282.615 34.115 283.255 33.94 283.795 33.59C284.345 33.24 284.765 32.745 285.055 32.105C285.345 31.455 285.49 30.685 285.49 29.795C285.49 28.905 285.345 28.14 285.055 27.5C284.765 26.85 284.345 26.355 283.795 26.015C283.255 25.665 282.615 25.49 281.875 25.49C281.145 25.49 280.505 25.665 279.955 26.015C279.415 26.355 278.995 26.85 278.695 27.5C278.405 28.14 278.26 28.905 278.26 29.795C278.26 30.685 278.405 31.455 278.695 32.105C278.995 32.745 279.415 33.24 279.955 33.59C280.505 33.94 281.145 34.115 281.875 34.115ZM287.57 35C287.84 34.53 288.165 34.045 288.545 33.545C288.925 33.035 289.335 32.545 289.775 32.075C290.215 31.605 290.66 31.2 291.11 30.86C290.79 30.51 290.44 30.12 290.06 29.69C289.68 29.26 289.305 28.83 288.935 28.4C288.565 27.97 288.235 27.575 287.945 27.215H289.31C289.69 27.695 290.13 28.23 290.63 28.82C291.14 29.41 291.705 30.055 292.325 30.755V27.215H293.51V30.755C294.13 30.065 294.69 29.425 295.19 28.835C295.7 28.235 296.145 27.695 296.525 27.215H297.89C297.6 27.575 297.27 27.97 296.9 28.4C296.54 28.83 296.17 29.26 295.79 29.69C295.41 30.11 295.055 30.495 294.725 30.845C295.185 31.205 295.635 31.62 296.075 32.09C296.515 32.55 296.925 33.035 297.305 33.545C297.685 34.045 298.01 34.53 298.28 35H296.945C296.725 34.65 296.47 34.29 296.18 33.92C295.9 33.55 295.6 33.19 295.28 32.84C294.96 32.48 294.645 32.16 294.335 31.88C294.035 31.59 293.76 31.365 293.51 31.205V35H292.325V31.205C292.075 31.365 291.795 31.59 291.485 31.88C291.185 32.17 290.875 32.495 290.555 32.855C290.235 33.205 289.93 33.565 289.64 33.935C289.36 34.305 289.11 34.66 288.89 35H287.57ZM299.381 35V27.215H300.566C300.566 28.245 300.561 29.255 300.551 30.245C300.551 31.235 300.551 32.185 300.551 33.095C300.751 32.745 300.981 32.365 301.241 31.955C301.501 31.545 301.776 31.125 302.066 30.695C302.356 30.255 302.651 29.825 302.951 29.405C303.261 28.975 303.561 28.575 303.851 28.205C304.151 27.835 304.436 27.505 304.706 27.215H305.786V35H304.616C304.616 34.28 304.616 33.565 304.616 32.855C304.616 32.145 304.616 31.45 304.616 30.77C304.616 30.09 304.616 29.435 304.616 28.805C304.316 29.175 303.981 29.625 303.611 30.155C303.241 30.675 302.861 31.225 302.471 31.805C302.091 32.385 301.726 32.955 301.376 33.515C301.036 34.065 300.736 34.56 300.476 35H299.381ZM306.882 37.16V33.995H307.707C308.027 33.505 308.282 33.015 308.472 32.525C308.662 32.035 308.807 31.525 308.907 30.995C309.007 30.455 309.067 29.875 309.087 29.255C309.117 28.635 309.132 27.955 309.132 27.215H314.127V33.995H315.087V37.16H313.977V35H307.992V37.16H306.882ZM308.967 33.995H312.927V28.22H310.257C310.257 28.9 310.222 29.57 310.152 30.23C310.082 30.88 309.957 31.52 309.777 32.15C309.597 32.78 309.327 33.395 308.967 33.995ZM318.749 35.165C318.189 35.165 317.684 35.085 317.234 34.925C316.794 34.765 316.444 34.505 316.184 34.145C315.934 33.785 315.809 33.305 315.809 32.705C315.809 32.135 315.949 31.675 316.229 31.325C316.519 30.965 316.909 30.705 317.399 30.545C317.899 30.385 318.459 30.305 319.079 30.305C319.359 30.305 319.649 30.33 319.949 30.38C320.259 30.43 320.454 30.475 320.534 30.515V30.08C320.534 29.74 320.489 29.42 320.399 29.12C320.319 28.81 320.149 28.56 319.889 28.37C319.629 28.17 319.239 28.07 318.719 28.07C318.179 28.07 317.759 28.11 317.459 28.19C317.169 28.27 316.949 28.335 316.799 28.385L316.649 27.38C316.829 27.3 317.109 27.225 317.489 27.155C317.869 27.075 318.309 27.035 318.809 27.035C319.529 27.035 320.099 27.16 320.519 27.41C320.939 27.66 321.239 28.005 321.419 28.445C321.609 28.885 321.704 29.39 321.704 29.96V34.82C321.494 34.87 321.114 34.94 320.564 35.03C320.024 35.12 319.419 35.165 318.749 35.165ZM318.914 34.16C319.254 34.16 319.559 34.15 319.829 34.13C320.109 34.1 320.344 34.065 320.534 34.025V31.475C320.434 31.425 320.264 31.38 320.024 31.34C319.794 31.29 319.494 31.265 319.124 31.265C318.804 31.265 318.484 31.3 318.164 31.37C317.844 31.43 317.574 31.565 317.354 31.775C317.134 31.975 317.024 32.28 317.024 32.69C317.024 33.24 317.194 33.625 317.534 33.845C317.874 34.055 318.334 34.16 318.914 34.16ZM330.118 35.18C329.468 35.18 328.883 35.03 328.363 34.73C327.853 34.43 327.443 34 327.133 33.44C326.823 32.88 326.648 32.225 326.608 31.475H324.913V35H323.713V27.215H324.913V30.485H326.623C326.703 29.775 326.898 29.165 327.208 28.655C327.518 28.145 327.923 27.75 328.423 27.47C328.933 27.18 329.498 27.035 330.118 27.035C330.798 27.035 331.398 27.205 331.918 27.545C332.448 27.885 332.863 28.36 333.163 28.97C333.473 29.58 333.628 30.295 333.628 31.115C333.628 31.935 333.473 32.65 333.163 33.26C332.863 33.87 332.448 34.345 331.918 34.685C331.398 35.015 330.798 35.18 330.118 35.18ZM330.118 34.115C330.818 34.115 331.368 33.845 331.768 33.305C332.178 32.765 332.383 32.035 332.383 31.115C332.383 30.195 332.178 29.465 331.768 28.925C331.368 28.375 330.818 28.1 330.118 28.1C329.408 28.1 328.848 28.375 328.438 28.925C328.038 29.465 327.838 30.195 327.838 31.115C327.838 32.035 328.038 32.765 328.438 33.305C328.848 33.845 329.408 34.115 330.118 34.115ZM336.781 35V28.22H334.261V27.215H340.531V28.22H337.981V35H336.781ZM346.116 31.565C345.736 31.565 345.406 31.48 345.126 31.31C344.846 31.14 344.631 30.91 344.481 30.62C344.331 30.33 344.256 30.025 344.256 29.705C344.256 29.375 344.331 29.07 344.481 28.79C344.631 28.5 344.846 28.27 345.126 28.1C345.406 27.93 345.736 27.845 346.116 27.845C346.506 27.845 346.836 27.93 347.106 28.1C347.386 28.27 347.601 28.5 347.751 28.79C347.901 29.07 347.976 29.375 347.976 29.705C347.976 30.025 347.901 30.33 347.751 30.62C347.601 30.91 347.386 31.14 347.106 31.31C346.836 31.48 346.506 31.565 346.116 31.565ZM356.819 35V32.27H352.154V31.49C352.334 31.02 352.584 30.495 352.904 29.915C353.234 29.325 353.604 28.715 354.014 28.085C354.434 27.445 354.879 26.83 355.349 26.24C355.819 25.64 356.299 25.095 356.789 24.605H357.989V31.295H359.249V32.27H357.989V35H356.819ZM353.339 31.295H356.819V25.97C356.499 26.32 356.174 26.715 355.844 27.155C355.514 27.585 355.189 28.035 354.869 28.505C354.559 28.975 354.274 29.45 354.014 29.93C353.754 30.41 353.529 30.865 353.339 31.295Z" fill="#0E1017"/>
</g>
</g>
<g id="Action Button_3" clip-path="url(#clip4_990_12433)">
<g id="Frame_9">
<path id="Button_3" d="M385.538 35V24.605H386.768V32.66C387.028 32.22 387.333 31.73 387.683 31.19C388.033 30.64 388.413 30.07 388.823 29.48C389.243 28.89 389.673 28.305 390.113 27.725C390.563 27.135 391.003 26.575 391.433 26.045C391.863 25.505 392.268 25.025 392.648 24.605H393.638V35H392.423V26.57C392.073 26.98 391.683 27.465 391.253 28.025C390.833 28.585 390.398 29.18 389.948 29.81C389.498 30.44 389.063 31.075 388.643 31.715C388.223 32.345 387.833 32.945 387.473 33.515C387.123 34.085 386.828 34.58 386.588 35H385.538ZM399.115 35.165C398.285 35.165 397.59 35 397.03 34.67C396.48 34.33 396.065 33.855 395.785 33.245C395.505 32.635 395.365 31.93 395.365 31.13C395.365 30.32 395.51 29.61 395.8 29C396.1 28.39 396.525 27.91 397.075 27.56C397.625 27.21 398.275 27.035 399.025 27.035C399.435 27.035 399.825 27.07 400.195 27.14C400.565 27.21 400.86 27.305 401.08 27.425L400.78 28.415C400.58 28.325 400.355 28.25 400.105 28.19C399.855 28.13 399.53 28.1 399.13 28.1C398.31 28.1 397.685 28.37 397.255 28.91C396.825 29.44 396.61 30.18 396.61 31.13C396.61 31.72 396.7 32.24 396.88 32.69C397.06 33.13 397.345 33.475 397.735 33.725C398.125 33.975 398.645 34.1 399.295 34.1C399.685 34.1 400.025 34.06 400.315 33.98C400.615 33.89 400.835 33.805 400.975 33.725L401.215 34.745C401.015 34.845 400.72 34.94 400.33 35.03C399.94 35.12 399.535 35.165 399.115 35.165ZM404.108 35V28.22H401.588V27.215H407.858V28.22H405.308V35H404.108ZM412.366 35.165C411.456 35.165 410.716 34.99 410.146 34.64C409.576 34.29 409.156 33.81 408.886 33.2C408.616 32.59 408.481 31.895 408.481 31.115C408.481 30.205 408.646 29.45 408.976 28.85C409.316 28.25 409.751 27.8 410.281 27.5C410.811 27.19 411.366 27.035 411.946 27.035C412.606 27.035 413.171 27.175 413.641 27.455C414.121 27.735 414.491 28.16 414.751 28.73C415.021 29.29 415.156 30.005 415.156 30.875C415.156 30.955 415.151 31.045 415.141 31.145C415.141 31.235 415.136 31.325 415.126 31.415H409.726C409.766 32.265 410.001 32.925 410.431 33.395C410.871 33.865 411.541 34.1 412.441 34.1C412.941 34.1 413.356 34.055 413.686 33.965C414.016 33.865 414.256 33.78 414.406 33.71L414.601 34.715C414.461 34.795 414.181 34.89 413.761 35C413.351 35.11 412.886 35.165 412.366 35.165ZM409.756 30.455H413.941C413.931 29.965 413.846 29.545 413.686 29.195C413.536 28.835 413.316 28.56 413.026 28.37C412.736 28.17 412.381 28.07 411.961 28.07C411.531 28.07 411.151 28.185 410.821 28.415C410.501 28.635 410.251 28.925 410.071 29.285C409.891 29.645 409.786 30.035 409.756 30.455ZM416.837 35V27.215H418.037V30.665C418.307 30.415 418.602 30.13 418.922 29.81C419.242 29.49 419.562 29.17 419.882 28.85C420.202 28.52 420.497 28.215 420.767 27.935C421.037 27.645 421.257 27.405 421.427 27.215H422.852C422.632 27.465 422.367 27.75 422.057 28.07C421.747 28.39 421.422 28.72 421.082 29.06C420.742 29.4 420.412 29.725 420.092 30.035C419.772 30.335 419.487 30.605 419.237 30.845C419.577 31.065 419.932 31.34 420.302 31.67C420.672 31.99 421.032 32.34 421.382 32.72C421.742 33.1 422.072 33.49 422.372 33.89C422.672 34.28 422.927 34.65 423.137 35H421.742C421.442 34.53 421.072 34.055 420.632 33.575C420.202 33.085 419.752 32.64 419.282 32.24C418.822 31.83 418.407 31.515 418.037 31.295V35H416.837ZM426.585 35.165C426.025 35.165 425.52 35.085 425.07 34.925C424.63 34.765 424.28 34.505 424.02 34.145C423.77 33.785 423.645 33.305 423.645 32.705C423.645 32.135 423.785 31.675 424.065 31.325C424.355 30.965 424.745 30.705 425.235 30.545C425.735 30.385 426.295 30.305 426.915 30.305C427.195 30.305 427.485 30.33 427.785 30.38C428.095 30.43 428.29 30.475 428.37 30.515V30.08C428.37 29.74 428.325 29.42 428.235 29.12C428.155 28.81 427.985 28.56 427.725 28.37C427.465 28.17 427.075 28.07 426.555 28.07C426.015 28.07 425.595 28.11 425.295 28.19C425.005 28.27 424.785 28.335 424.635 28.385L424.485 27.38C424.665 27.3 424.945 27.225 425.325 27.155C425.705 27.075 426.145 27.035 426.645 27.035C427.365 27.035 427.935 27.16 428.355 27.41C428.775 27.66 429.075 28.005 429.255 28.445C429.445 28.885 429.54 29.39 429.54 29.96V34.82C429.33 34.87 428.95 34.94 428.4 35.03C427.86 35.12 427.255 35.165 426.585 35.165ZM426.75 34.16C427.09 34.16 427.395 34.15 427.665 34.13C427.945 34.1 428.18 34.065 428.37 34.025V31.475C428.27 31.425 428.1 31.38 427.86 31.34C427.63 31.29 427.33 31.265 426.96 31.265C426.64 31.265 426.32 31.3 426 31.37C425.68 31.43 425.41 31.565 425.19 31.775C424.97 31.975 424.86 32.28 424.86 32.69C424.86 33.24 425.03 33.625 425.37 33.845C425.71 34.055 426.17 34.16 426.75 34.16ZM437.954 35.18C437.304 35.18 436.719 35.03 436.199 34.73C435.689 34.43 435.279 34 434.969 33.44C434.659 32.88 434.484 32.225 434.444 31.475H432.749V35H431.549V27.215H432.749V30.485H434.459C434.539 29.775 434.734 29.165 435.044 28.655C435.354 28.145 435.759 27.75 436.259 27.47C436.769 27.18 437.334 27.035 437.954 27.035C438.634 27.035 439.234 27.205 439.754 27.545C440.284 27.885 440.699 28.36 440.999 28.97C441.309 29.58 441.464 30.295 441.464 31.115C441.464 31.935 441.309 32.65 440.999 33.26C440.699 33.87 440.284 34.345 439.754 34.685C439.234 35.015 438.634 35.18 437.954 35.18ZM437.954 34.115C438.654 34.115 439.204 33.845 439.604 33.305C440.014 32.765 440.219 32.035 440.219 31.115C440.219 30.195 440.014 29.465 439.604 28.925C439.204 28.375 438.654 28.1 437.954 28.1C437.244 28.1 436.684 28.375 436.274 28.925C435.874 29.465 435.674 30.195 435.674 31.115C435.674 32.035 435.874 32.765 436.274 33.305C436.684 33.845 437.244 34.115 437.954 34.115ZM444.618 35V28.22H442.098V27.215H448.368V28.22H445.818V35H444.618ZM453.953 31.565C453.573 31.565 453.243 31.48 452.963 31.31C452.683 31.14 452.468 30.91 452.318 30.62C452.168 30.33 452.093 30.025 452.093 29.705C452.093 29.375 452.168 29.07 452.318 28.79C452.468 28.5 452.683 28.27 452.963 28.1C453.243 27.93 453.573 27.845 453.953 27.845C454.343 27.845 454.673 27.93 454.943 28.1C455.223 28.27 455.438 28.5 455.588 28.79C455.738 29.07 455.813 29.375 455.813 29.705C455.813 30.025 455.738 30.33 455.588 30.62C455.438 30.91 455.223 31.14 454.943 31.31C454.673 31.48 454.343 31.565 453.953 31.565ZM460.455 35C460.455 34.96 460.45 34.905 460.44 34.835C460.44 34.755 460.44 34.665 460.44 34.565C460.44 33.935 460.58 33.365 460.86 32.855C461.15 32.345 461.505 31.875 461.925 31.445C462.345 31.005 462.755 30.595 463.155 30.215C463.495 29.895 463.8 29.59 464.07 29.3C464.35 29 464.57 28.69 464.73 28.37C464.9 28.04 464.985 27.675 464.985 27.275C464.985 26.615 464.81 26.145 464.46 25.865C464.11 25.585 463.665 25.445 463.125 25.445C462.715 25.445 462.355 25.51 462.045 25.64C461.745 25.76 461.495 25.9 461.295 26.06C461.105 26.21 460.965 26.33 460.875 26.42L460.26 25.61C460.38 25.48 460.57 25.32 460.83 25.13C461.1 24.93 461.43 24.755 461.82 24.605C462.21 24.455 462.645 24.38 463.125 24.38C464.175 24.38 464.96 24.63 465.48 25.13C466 25.63 466.26 26.325 466.26 27.215C466.26 27.725 466.14 28.205 465.9 28.655C465.66 29.105 465.345 29.535 464.955 29.945C464.575 30.345 464.175 30.74 463.755 31.13C463.445 31.44 463.135 31.76 462.825 32.09C462.525 32.41 462.275 32.73 462.075 33.05C461.885 33.37 461.79 33.675 461.79 33.965H466.605V35H460.455Z" fill="#0E1017"/>
</g>
</g>
</g>
<g id="Frame_10">
<path id="12 / 122" d="M1387.23 35V26.33C1387.09 26.48 1386.89 26.64 1386.63 26.81C1386.37 26.98 1386.09 27.14 1385.78 27.29C1385.48 27.44 1385.17 27.565 1384.86 27.665L1384.52 26.735C1385.12 26.525 1385.66 26.255 1386.15 25.925C1386.65 25.585 1387.13 25.145 1387.58 24.605H1388.43V35H1387.23ZM1392.21 35C1392.21 34.96 1392.2 34.905 1392.19 34.835C1392.19 34.755 1392.19 34.665 1392.19 34.565C1392.19 33.935 1392.33 33.365 1392.61 32.855C1392.9 32.345 1393.26 31.875 1393.68 31.445C1394.1 31.005 1394.51 30.595 1394.91 30.215C1395.25 29.895 1395.55 29.59 1395.82 29.3C1396.1 29 1396.32 28.69 1396.48 28.37C1396.65 28.04 1396.74 27.675 1396.74 27.275C1396.74 26.615 1396.56 26.145 1396.21 25.865C1395.86 25.585 1395.42 25.445 1394.88 25.445C1394.47 25.445 1394.11 25.51 1393.8 25.64C1393.5 25.76 1393.25 25.9 1393.05 26.06C1392.86 26.21 1392.72 26.33 1392.63 26.42L1392.01 25.61C1392.13 25.48 1392.32 25.32 1392.58 25.13C1392.85 24.93 1393.18 24.755 1393.57 24.605C1393.96 24.455 1394.4 24.38 1394.88 24.38C1395.93 24.38 1396.71 24.63 1397.23 25.13C1397.75 25.63 1398.01 26.325 1398.01 27.215C1398.01 27.725 1397.89 28.205 1397.65 28.655C1397.41 29.105 1397.1 29.535 1396.71 29.945C1396.33 30.345 1395.93 30.74 1395.51 31.13C1395.2 31.44 1394.89 31.76 1394.58 32.09C1394.28 32.41 1394.03 32.73 1393.83 33.05C1393.64 33.37 1393.54 33.675 1393.54 33.965H1398.36V35H1392.21ZM1401.85 37.775L1406.95 23.255H1408.13L1403.06 37.775H1401.85ZM1414.66 35V26.33C1414.52 26.48 1414.32 26.64 1414.06 26.81C1413.8 26.98 1413.51 27.14 1413.2 27.29C1412.9 27.44 1412.6 27.565 1412.29 27.665L1411.94 26.735C1412.54 26.525 1413.09 26.255 1413.58 25.925C1414.08 25.585 1414.55 25.145 1415 24.605H1415.86V35H1414.66ZM1419.64 35C1419.64 34.96 1419.63 34.905 1419.62 34.835C1419.62 34.755 1419.62 34.665 1419.62 34.565C1419.62 33.935 1419.76 33.365 1420.04 32.855C1420.33 32.345 1420.69 31.875 1421.11 31.445C1421.53 31.005 1421.94 30.595 1422.34 30.215C1422.68 29.895 1422.98 29.59 1423.25 29.3C1423.53 29 1423.75 28.69 1423.91 28.37C1424.08 28.04 1424.17 27.675 1424.17 27.275C1424.17 26.615 1423.99 26.145 1423.64 25.865C1423.29 25.585 1422.85 25.445 1422.31 25.445C1421.9 25.445 1421.54 25.51 1421.23 25.64C1420.93 25.76 1420.68 25.9 1420.48 26.06C1420.29 26.21 1420.15 26.33 1420.06 26.42L1419.44 25.61C1419.56 25.48 1419.75 25.32 1420.01 25.13C1420.28 24.93 1420.61 24.755 1421 24.605C1421.39 24.455 1421.83 24.38 1422.31 24.38C1423.36 24.38 1424.14 24.63 1424.66 25.13C1425.18 25.63 1425.44 26.325 1425.44 27.215C1425.44 27.725 1425.32 28.205 1425.08 28.655C1424.84 29.105 1424.53 29.535 1424.14 29.945C1423.76 30.345 1423.36 30.74 1422.94 31.13C1422.63 31.44 1422.32 31.76 1422.01 32.09C1421.71 32.41 1421.46 32.73 1421.26 33.05C1421.07 33.37 1420.97 33.675 1420.97 33.965H1425.79V35H1419.64ZM1427.7 35C1427.7 34.96 1427.7 34.905 1427.69 34.835C1427.69 34.755 1427.69 34.665 1427.69 34.565C1427.69 33.935 1427.83 33.365 1428.11 32.855C1428.4 32.345 1428.75 31.875 1429.17 31.445C1429.59 31.005 1430 30.595 1430.4 30.215C1430.74 29.895 1431.05 29.59 1431.32 29.3C1431.6 29 1431.82 28.69 1431.98 28.37C1432.15 28.04 1432.23 27.675 1432.23 27.275C1432.23 26.615 1432.06 26.145 1431.71 25.865C1431.36 25.585 1430.91 25.445 1430.37 25.445C1429.96 25.445 1429.6 25.51 1429.29 25.64C1428.99 25.76 1428.74 25.9 1428.54 26.06C1428.35 26.21 1428.21 26.33 1428.12 26.42L1427.51 25.61C1427.63 25.48 1427.82 25.32 1428.08 25.13C1428.35 24.93 1428.68 24.755 1429.07 24.605C1429.46 24.455 1429.89 24.38 1430.37 24.38C1431.42 24.38 1432.21 24.63 1432.73 25.13C1433.25 25.63 1433.51 26.325 1433.51 27.215C1433.51 27.725 1433.39 28.205 1433.15 28.655C1432.91 29.105 1432.59 29.535 1432.2 29.945C1431.82 30.345 1431.42 30.74 1431 31.13C1430.69 31.44 1430.38 31.76 1430.07 32.09C1429.77 32.41 1429.52 32.73 1429.32 33.05C1429.13 33.37 1429.04 33.675 1429.04 33.965H1433.85V35H1427.7Z" fill="#0E1017"/>
<g id="Action Button_4" clip-path="url(#clip5_990_12433)">
<g id="Frame_11">
<path d="M1452 18C1452 14.6863 1454.69 12 1458 12H1505C1508.31 12 1511 14.6863 1511 18V42C1511 45.3137 1508.31 48 1505 48H1458C1454.69 48 1452 45.3137 1452 42V18Z" fill="#CCF8E6"/>
<g id="icon.24.settings">
<g id="Vector_3">
<path d="M1475.5 30C1475.5 31.933 1473.93 33.5 1472 33.5C1470.07 33.5 1468.5 31.933 1468.5 30C1468.5 28.067 1470.07 26.5 1472 26.5C1473.93 26.5 1475.5 28.067 1475.5 30Z" stroke="#00843A"/>
<path d="M1480.79 27.152C1481.6 28.5418 1482 29.2366 1482 30C1482 30.7634 1481.6 31.4582 1480.79 32.848L1478.87 36.1638C1478.06 37.548 1477.66 38.2402 1477 38.6201C1476.34 39 1475.54 39 1473.94 39H1470.06C1468.46 39 1467.66 39 1467 38.6201C1466.34 38.2402 1465.94 37.548 1465.13 36.1638L1463.21 32.848C1462.4 31.4582 1462 30.7634 1462 30C1462 29.2366 1462.4 28.5418 1463.21 27.152L1465.13 23.8362C1465.94 22.452 1466.34 21.7598 1467 21.3799C1467.66 21 1468.46 21 1470.06 21H1473.94C1475.54 21 1476.34 21 1477 21.3799C1477.66 21.7598 1478.06 22.452 1478.87 23.8362L1480.79 27.152Z" stroke="#00843A"/>
</g>
</g>
<path id="Button_4" d="M1493.85 35.225C1493.43 35.225 1493.04 35.19 1492.68 35.12C1492.33 35.05 1492.03 34.97 1491.78 34.88C1491.53 34.79 1491.36 34.72 1491.26 34.67L1491.54 33.635C1491.68 33.715 1491.96 33.82 1492.37 33.95C1492.79 34.08 1493.27 34.145 1493.82 34.145C1494.46 34.145 1494.96 34.055 1495.32 33.875C1495.68 33.695 1495.94 33.45 1496.09 33.14C1496.25 32.82 1496.33 32.47 1496.33 32.09C1496.33 31.58 1496.2 31.145 1495.95 30.785C1495.71 30.415 1495.28 30.135 1494.65 29.945C1494.03 29.745 1493.14 29.645 1491.99 29.645C1492.05 29.145 1492.1 28.68 1492.14 28.25C1492.18 27.81 1492.22 27.39 1492.25 26.99C1492.29 26.59 1492.32 26.195 1492.34 25.805C1492.36 25.405 1492.37 25.005 1492.38 24.605H1497.21V25.64H1493.4C1493.39 25.83 1493.38 26.06 1493.36 26.33C1493.35 26.6 1493.33 26.885 1493.3 27.185C1493.28 27.485 1493.25 27.765 1493.22 28.025C1493.2 28.285 1493.18 28.5 1493.16 28.67C1494.69 28.71 1495.81 29.035 1496.51 29.645C1497.22 30.245 1497.57 31.05 1497.57 32.06C1497.57 32.65 1497.44 33.19 1497.17 33.68C1496.91 34.16 1496.5 34.54 1495.94 34.82C1495.39 35.09 1494.69 35.225 1493.85 35.225Z" fill="#00843A"/>
</g>
</g>
<g id="Icon Button_3" clip-path="url(#clip6_990_12433)">
<g id="Frame_12">
<g id="icon.24.search">
<path id="Vector_4" d="M1550 35L1554 39M1552 29C1552 24.5817 1548.42 21 1544 21C1539.58 21 1536 24.5817 1536 29C1536 33.4183 1539.58 37 1544 37C1548.42 37 1552 33.4183 1552 29Z" stroke="#0E1017" stroke-linecap="round" stroke-linejoin="round"/>
</g>
</g>
</g>
<g id="Icon Button_4" clip-path="url(#clip7_990_12433)">
<g id="Frame_13">
<g id="share-02">
<path id="Vector_5" d="M1595.57 21C1591.71 21.0069 1589.69 21.1015 1588.39 22.3907C1587 23.782 1587 26.0213 1587 30.4997C1587 34.9782 1587 37.2174 1588.39 38.6087C1589.79 40 1592.03 40 1596.52 40C1601.01 40 1603.25 40 1604.64 38.6087C1605.62 37.64 1605.91 36.2603 1606 34M1603.65 24.5146L1605.39 26.0317C1606.46 26.9622 1607 27.4275 1607 27.9957C1607 28.564 1606.46 29.0293 1605.39 29.9598L1603.65 31.4769C1602.39 32.5699 1601.98 33.1856 1601.21 32.9501C1600.36 32.6909 1600.64 31.0554 1600.64 30.5032C1598.76 30.5032 1596.72 30.2973 1594.9 30.7289C1593.43 31.0746 1592.22 31.9065 1591 32.6525C1591 29.3566 1592.34 26.2974 1596.64 25.5984C1597.95 25.3866 1599.32 25.4882 1600.64 25.4882C1600.64 24.9361 1600.36 23.3006 1601.21 23.0414C1601.89 22.8335 1602.39 23.4215 1603.65 24.5146Z" stroke="#0E1017" stroke-linecap="round" stroke-linejoin="round"/>
</g>
</g>
</g>
</g>
<rect id="Rectangle 5" x="1631" y="12" width="1" height="36" rx="0.5" fill="#001D6B" fill-opacity="0.15"/>
<g id="Frame_14">
<g id="Frame_15">
<rect x="1648" y="12" width="36" height="36" rx="18" fill="#F9EDFF"/>
<path id="&#208;&#161;&#226;&#128;&#137;&#208;&#152;" d="M1660.88 35.225C1659.96 35.225 1659.13 35.015 1658.4 34.595C1657.67 34.175 1657.1 33.565 1656.68 32.765C1656.27 31.955 1656.06 30.965 1656.06 29.795C1656.06 28.925 1656.19 28.155 1656.45 27.485C1656.71 26.805 1657.07 26.235 1657.53 25.775C1657.99 25.315 1658.51 24.97 1659.09 24.74C1659.68 24.5 1660.3 24.38 1660.95 24.38C1661.49 24.38 1661.96 24.425 1662.35 24.515C1662.75 24.595 1663.08 24.69 1663.34 24.8C1663.6 24.91 1663.79 25.005 1663.91 25.085L1663.52 26.135C1663.27 25.985 1662.94 25.84 1662.54 25.7C1662.14 25.56 1661.66 25.49 1661.1 25.49C1660.31 25.49 1659.64 25.67 1659.08 26.03C1658.52 26.38 1658.09 26.88 1657.8 27.53C1657.51 28.17 1657.37 28.93 1657.37 29.81C1657.37 30.67 1657.5 31.425 1657.77 32.075C1658.05 32.715 1658.46 33.215 1659 33.575C1659.54 33.935 1660.2 34.115 1660.98 34.115C1661.65 34.115 1662.2 34.05 1662.63 33.92C1663.07 33.79 1663.41 33.66 1663.65 33.53L1664 34.58C1663.83 34.69 1663.47 34.825 1662.93 34.985C1662.39 35.145 1661.71 35.225 1660.88 35.225ZM1667.4 35V24.605H1668.63V32.66C1668.89 32.22 1669.2 31.73 1669.55 31.19C1669.9 30.64 1670.28 30.07 1670.69 29.48C1671.11 28.89 1671.54 28.305 1671.98 27.725C1672.43 27.135 1672.87 26.575 1673.3 26.045C1673.73 25.505 1674.13 25.025 1674.51 24.605H1675.5V35H1674.29V26.57C1673.94 26.98 1673.55 27.465 1673.12 28.025C1672.7 28.585 1672.26 29.18 1671.81 29.81C1671.36 30.44 1670.93 31.075 1670.51 31.715C1670.09 32.345 1669.7 32.945 1669.34 33.515C1668.99 34.085 1668.69 34.58 1668.45 35H1667.4Z" fill="#431399"/>
</g>
<g id="&#208;&#152;&#208;&#178;&#208;&#176;&#208;&#189;&#208;&#190;&#208;&#178; &#208;&#161;.&#226;&#128;&#137;&#208;&#160;. &#226;&#128;&#162; &#208;&#155;1">
<path d="M1693.23 35V24.605H1695.32V31.145C1695.6 30.705 1695.9 30.25 1696.23 29.78C1696.56 29.31 1696.9 28.835 1697.25 28.355C1697.6 27.865 1697.95 27.395 1698.3 26.945C1698.66 26.485 1699.01 26.055 1699.34 25.655C1699.67 25.255 1699.98 24.905 1700.28 24.605H1701.99V35H1699.91V27.845C1699.56 28.255 1699.2 28.69 1698.84 29.15C1698.49 29.61 1698.14 30.085 1697.79 30.575C1697.45 31.065 1697.12 31.565 1696.79 32.075C1696.46 32.575 1696.14 33.07 1695.84 33.56C1695.54 34.05 1695.26 34.53 1695 35H1693.23ZM1707.16 35.15C1706.8 35.15 1706.41 35.13 1706 35.09C1705.59 35.06 1705.2 35.015 1704.83 34.955C1704.47 34.895 1704.17 34.84 1703.92 34.79V27.26C1704.16 27.2 1704.46 27.15 1704.82 27.11C1705.19 27.06 1705.58 27.025 1705.99 27.005C1706.41 26.975 1706.8 26.96 1707.17 26.96C1707.76 26.96 1708.27 27.015 1708.7 27.125C1709.13 27.235 1709.49 27.39 1709.77 27.59C1710.06 27.79 1710.27 28.025 1710.41 28.295C1710.55 28.555 1710.62 28.835 1710.62 29.135C1710.62 29.485 1710.53 29.805 1710.35 30.095C1710.17 30.385 1709.94 30.6 1709.66 30.74C1709.88 30.82 1710.09 30.945 1710.28 31.115C1710.48 31.285 1710.64 31.5 1710.76 31.76C1710.89 32.01 1710.95 32.315 1710.95 32.675C1710.95 33.035 1710.88 33.365 1710.74 33.665C1710.6 33.965 1710.38 34.225 1710.07 34.445C1709.77 34.665 1709.38 34.84 1708.9 34.97C1708.42 35.09 1707.84 35.15 1707.16 35.15ZM1707.2 33.575C1707.56 33.575 1707.87 33.55 1708.13 33.5C1708.4 33.44 1708.61 33.34 1708.75 33.2C1708.9 33.05 1708.97 32.85 1708.97 32.6C1708.97 32.23 1708.83 31.975 1708.54 31.835C1708.25 31.695 1707.85 31.625 1707.34 31.625H1705.93V33.5C1706.06 33.52 1706.25 33.54 1706.5 33.56C1706.75 33.57 1706.98 33.575 1707.2 33.575ZM1705.93 30.26H1707.28C1707.69 30.26 1708.02 30.205 1708.27 30.095C1708.53 29.975 1708.66 29.74 1708.66 29.39C1708.66 29.16 1708.59 28.98 1708.45 28.85C1708.31 28.72 1708.12 28.635 1707.89 28.595C1707.66 28.545 1707.4 28.52 1707.1 28.52C1706.93 28.52 1706.72 28.53 1706.48 28.55C1706.24 28.57 1706.06 28.59 1705.93 28.61V30.26ZM1715.11 35.165C1714.45 35.165 1713.87 35.085 1713.37 34.925C1712.88 34.755 1712.49 34.485 1712.21 34.115C1711.94 33.735 1711.81 33.23 1711.81 32.6C1711.81 31.99 1711.96 31.505 1712.27 31.145C1712.58 30.785 1712.99 30.53 1713.49 30.38C1714 30.22 1714.54 30.14 1715.12 30.14C1715.41 30.14 1715.68 30.155 1715.92 30.185C1716.17 30.215 1716.35 30.25 1716.47 30.29V30.035C1716.47 29.755 1716.42 29.51 1716.32 29.3C1716.23 29.09 1716.07 28.925 1715.84 28.805C1715.61 28.675 1715.29 28.61 1714.88 28.61C1714.46 28.61 1714.07 28.64 1713.71 28.7C1713.36 28.76 1713.07 28.835 1712.83 28.925L1712.57 27.29C1712.81 27.21 1713.16 27.13 1713.62 27.05C1714.09 26.97 1714.58 26.93 1715.09 26.93C1715.94 26.93 1716.61 27.06 1717.09 27.32C1717.57 27.58 1717.91 27.95 1718.11 28.43C1718.32 28.9 1718.42 29.455 1718.42 30.095V34.79C1718.12 34.85 1717.69 34.925 1717.12 35.015C1716.56 35.115 1715.89 35.165 1715.11 35.165ZM1715.26 33.59C1715.51 33.59 1715.74 33.585 1715.95 33.575C1716.17 33.565 1716.34 33.545 1716.47 33.515V31.64C1716.38 31.61 1716.24 31.585 1716.05 31.565C1715.86 31.535 1715.67 31.52 1715.47 31.52C1715.18 31.52 1714.91 31.55 1714.66 31.61C1714.41 31.66 1714.2 31.76 1714.04 31.91C1713.89 32.05 1713.82 32.265 1713.82 32.555C1713.82 32.945 1713.95 33.215 1714.21 33.365C1714.47 33.515 1714.82 33.59 1715.26 33.59ZM1720.12 35V27.14H1722.13V30.14H1724.79V27.14H1726.8V35H1724.79V31.79H1722.13V35H1720.12ZM1732.02 35.21C1731.26 35.21 1730.59 35.035 1730.01 34.685C1729.44 34.335 1728.99 33.85 1728.67 33.23C1728.35 32.61 1728.19 31.885 1728.19 31.055C1728.19 30.225 1728.35 29.505 1728.67 28.895C1729 28.275 1729.46 27.795 1730.04 27.455C1730.63 27.105 1731.29 26.93 1732.02 26.93C1732.76 26.93 1733.41 27.105 1733.98 27.455C1734.56 27.795 1735.01 28.275 1735.33 28.895C1735.66 29.505 1735.83 30.225 1735.83 31.055C1735.83 31.885 1735.67 32.61 1735.35 33.23C1735.03 33.85 1734.58 34.335 1734.01 34.685C1733.45 35.035 1732.79 35.21 1732.02 35.21ZM1732 33.47C1732.38 33.47 1732.7 33.37 1732.96 33.17C1733.22 32.97 1733.42 32.69 1733.56 32.33C1733.7 31.97 1733.77 31.545 1733.77 31.055C1733.77 30.565 1733.7 30.145 1733.56 29.795C1733.42 29.435 1733.22 29.16 1732.96 28.97C1732.7 28.77 1732.38 28.67 1732 28.67C1731.64 28.67 1731.33 28.77 1731.06 28.97C1730.8 29.16 1730.6 29.435 1730.46 29.795C1730.32 30.145 1730.25 30.565 1730.25 31.055C1730.25 31.545 1730.32 31.97 1730.46 32.33C1730.6 32.69 1730.8 32.97 1731.06 33.17C1731.33 33.37 1731.64 33.47 1732 33.47ZM1740.46 35.15C1740.1 35.15 1739.72 35.13 1739.31 35.09C1738.9 35.06 1738.51 35.015 1738.14 34.955C1737.78 34.895 1737.47 34.84 1737.22 34.79V27.26C1737.46 27.2 1737.76 27.15 1738.12 27.11C1738.49 27.06 1738.88 27.025 1739.29 27.005C1739.71 26.975 1740.11 26.96 1740.48 26.96C1741.07 26.96 1741.58 27.015 1742.01 27.125C1742.44 27.235 1742.79 27.39 1743.07 27.59C1743.36 27.79 1743.58 28.025 1743.72 28.295C1743.86 28.555 1743.93 28.835 1743.93 29.135C1743.93 29.485 1743.84 29.805 1743.66 30.095C1743.48 30.385 1743.25 30.6 1742.97 30.74C1743.19 30.82 1743.39 30.945 1743.58 31.115C1743.78 31.285 1743.94 31.5 1744.06 31.76C1744.19 32.01 1744.26 32.315 1744.26 32.675C1744.26 33.035 1744.19 33.365 1744.05 33.665C1743.91 33.965 1743.68 34.225 1743.37 34.445C1743.07 34.665 1742.68 34.84 1742.2 34.97C1741.72 35.09 1741.14 35.15 1740.46 35.15ZM1740.51 33.575C1740.87 33.575 1741.18 33.55 1741.44 33.5C1741.71 33.44 1741.91 33.34 1742.05 33.2C1742.2 33.05 1742.28 32.85 1742.28 32.6C1742.28 32.23 1742.13 31.975 1741.84 31.835C1741.55 31.695 1741.15 31.625 1740.64 31.625H1739.23V33.5C1739.36 33.52 1739.55 33.54 1739.8 33.56C1740.05 33.57 1740.29 33.575 1740.51 33.575ZM1739.23 30.26H1740.58C1740.99 30.26 1741.32 30.205 1741.57 30.095C1741.83 29.975 1741.96 29.74 1741.96 29.39C1741.96 29.16 1741.89 28.98 1741.75 28.85C1741.61 28.72 1741.43 28.635 1741.2 28.595C1740.97 28.545 1740.7 28.52 1740.4 28.52C1740.23 28.52 1740.03 28.53 1739.79 28.55C1739.55 28.57 1739.36 28.59 1739.23 28.61V30.26ZM1753.63 35.21C1752.55 35.21 1751.63 35 1750.86 34.58C1750.1 34.16 1749.52 33.545 1749.12 32.735C1748.72 31.925 1748.52 30.945 1748.52 29.795C1748.52 28.935 1748.65 28.17 1748.91 27.5C1749.18 26.82 1749.55 26.25 1750.02 25.79C1750.5 25.32 1751.05 24.965 1751.68 24.725C1752.32 24.485 1753.01 24.365 1753.74 24.365C1754.32 24.365 1754.82 24.415 1755.25 24.515C1755.68 24.615 1756.03 24.73 1756.3 24.86C1756.58 24.98 1756.78 25.075 1756.9 25.145L1756.29 26.855C1755.98 26.685 1755.61 26.54 1755.19 26.42C1754.77 26.3 1754.29 26.24 1753.75 26.24C1753.2 26.24 1752.7 26.365 1752.24 26.615C1751.78 26.855 1751.41 27.235 1751.13 27.755C1750.85 28.275 1750.71 28.945 1750.71 29.765C1750.71 30.455 1750.81 31.07 1751.02 31.61C1751.24 32.14 1751.58 32.565 1752.03 32.885C1752.49 33.195 1753.08 33.35 1753.81 33.35C1754.5 33.35 1755.05 33.285 1755.46 33.155C1755.87 33.015 1756.2 32.885 1756.45 32.765L1757.04 34.46C1756.74 34.64 1756.29 34.81 1755.7 34.97C1755.12 35.13 1754.43 35.21 1753.63 35.21ZM1759.14 35.195C1758.8 35.195 1758.5 35.085 1758.24 34.865C1757.98 34.635 1757.85 34.315 1757.85 33.905C1757.85 33.505 1757.98 33.195 1758.24 32.975C1758.5 32.745 1758.8 32.63 1759.14 32.63C1759.48 32.63 1759.78 32.745 1760.04 32.975C1760.3 33.195 1760.43 33.505 1760.43 33.905C1760.43 34.315 1760.3 34.635 1760.04 34.865C1759.78 35.085 1759.48 35.195 1759.14 35.195ZM1763.91 35V24.77C1764.39 24.67 1764.9 24.6 1765.45 24.56C1766.01 24.51 1766.51 24.485 1766.94 24.485C1768.47 24.485 1769.64 24.76 1770.45 25.31C1771.27 25.86 1771.68 26.735 1771.68 27.935C1771.68 28.755 1771.49 29.425 1771.11 29.945C1770.74 30.465 1770.19 30.845 1769.47 31.085C1768.76 31.315 1767.89 31.43 1766.86 31.43H1766.01V35H1763.91ZM1766.01 29.63H1766.85C1767.42 29.63 1767.9 29.58 1768.29 29.48C1768.69 29.38 1768.99 29.205 1769.19 28.955C1769.4 28.705 1769.5 28.36 1769.5 27.92C1769.5 27.49 1769.4 27.16 1769.19 26.93C1768.98 26.69 1768.69 26.525 1768.32 26.435C1767.96 26.335 1767.54 26.285 1767.07 26.285C1766.86 26.285 1766.66 26.295 1766.47 26.315C1766.29 26.325 1766.14 26.335 1766.01 26.345V29.63ZM1772.15 35.195C1771.81 35.195 1771.51 35.085 1771.25 34.865C1770.99 34.635 1770.86 34.315 1770.86 33.905C1770.86 33.505 1770.99 33.195 1771.25 32.975C1771.51 32.745 1771.81 32.63 1772.15 32.63C1772.49 32.63 1772.79 32.745 1773.05 32.975C1773.31 33.195 1773.44 33.505 1773.44 33.905C1773.44 34.315 1773.31 34.635 1773.05 34.865C1772.79 35.085 1772.49 35.195 1772.15 35.195Z" fill="#0E1017"/>
<path d="M1779.35 31.565C1778.97 31.565 1778.64 31.48 1778.36 31.31C1778.08 31.14 1777.87 30.91 1777.72 30.62C1777.57 30.33 1777.49 30.025 1777.49 29.705C1777.49 29.375 1777.57 29.07 1777.72 28.79C1777.87 28.5 1778.08 28.27 1778.36 28.1C1778.64 27.93 1778.97 27.845 1779.35 27.845C1779.74 27.845 1780.07 27.93 1780.34 28.1C1780.62 28.27 1780.84 28.5 1780.99 28.79C1781.14 29.07 1781.21 29.375 1781.21 29.705C1781.21 30.025 1781.14 30.33 1780.99 30.62C1780.84 30.91 1780.62 31.14 1780.34 31.31C1780.07 31.48 1779.74 31.565 1779.35 31.565ZM1785.08 35.135L1784.94 34.07C1785.4 34.01 1785.79 33.885 1786.11 33.695C1786.44 33.505 1786.72 33.24 1786.94 32.9C1787.16 32.56 1787.35 32.14 1787.51 31.64C1787.64 31.25 1787.74 30.82 1787.82 30.35C1787.91 29.88 1787.98 29.36 1788.03 28.79C1788.08 28.22 1788.12 27.59 1788.14 26.9C1788.16 26.2 1788.17 25.435 1788.17 24.605H1793.88V35H1792.64V25.67H1789.38C1789.38 26.47 1789.36 27.24 1789.32 27.98C1789.29 28.72 1789.23 29.42 1789.13 30.08C1789.03 30.74 1788.88 31.375 1788.69 31.985C1788.52 32.545 1788.28 33.06 1787.97 33.53C1787.66 34 1787.27 34.38 1786.8 34.67C1786.33 34.95 1785.76 35.105 1785.08 35.135ZM1799.02 35V26.33C1798.88 26.48 1798.68 26.64 1798.42 26.81C1798.16 26.98 1797.87 27.14 1797.56 27.29C1797.26 27.44 1796.96 27.565 1796.65 27.665L1796.3 26.735C1796.9 26.525 1797.45 26.255 1797.94 25.925C1798.44 25.585 1798.91 25.145 1799.36 24.605H1800.22V35H1799.02Z" fill="#000F38" fill-opacity="0.67"/>
</g>
<g id="Frame_16">
<g id="Frame 129">
<g id="icon.24.warning">
<path id="Vector_6" d="M1831.92 39H1828.08C1823.44 39 1821.13 39 1820.28 37.4939C1819.42 35.9879 1820.61 33.9914 1822.98 29.9985L1824.9 26.7533C1827.18 22.9178 1828.31 21 1830 21C1831.69 21 1832.82 22.9178 1835.1 26.7533L1837.02 29.9985C1839.39 33.9914 1840.58 35.9879 1839.72 37.4939C1838.87 39 1836.56 39 1831.92 39Z" fill="#FD3B0B"/>
<path id="Vector_7" d="M1830 27V31M1830.12 34.75H1830M1830.25 34.75C1830.25 34.8881 1830.14 35 1830 35C1829.86 35 1829.75 34.8881 1829.75 34.75C1829.75 34.6119 1829.86 34.5 1830 34.5C1830.14 34.5 1830.25 34.6119 1830.25 34.75Z" stroke="white" stroke-width="1.5" stroke-linecap="round" stroke-linejoin="round"/>
</g>
</g>
</g>
</g>
</g>
<defs>
<clipPath id="clip0_990_12433">
<rect width="36" height="36" fill="white" transform="translate(12 12)"/>
</clipPath>
<clipPath id="clip1_990_12433">
<rect width="36" height="36" fill="white" transform="translate(48 12)"/>
</clipPath>
<clipPath id="clip2_990_12433">
<rect width="49" height="36" fill="white" transform="translate(215 12)"/>
</clipPath>
<clipPath id="clip3_990_12433">
<rect width="108" height="36" fill="white" transform="translate(264 12)"/>
</clipPath>
<clipPath id="clip4_990_12433">
<rect width="108" height="36" fill="white" transform="translate(372 12)"/>
</clipPath>
<clipPath id="clip5_990_12433">
<rect width="59" height="36" fill="white" transform="translate(1452 12)"/>
</clipPath>
<clipPath id="clip6_990_12433">
<rect width="36" height="36" fill="white" transform="translate(1527 12)"/>
</clipPath>
<clipPath id="clip7_990_12433">
<rect width="36" height="36" fill="white" transform="translate(1579 12)"/>
</clipPath>
</defs>
</svg>
