<svg width="139" height="90" viewBox="0 0 139 90" fill="none" xmlns="http://www.w3.org/2000/svg">
<g id="&#208;&#161;&#209;&#130;&#208;&#190;&#208;&#187;&#208;&#177;&#208;&#184;&#208;&#186;&#208;&#184; &#208;&#183;&#208;&#176; &#208;&#191;&#208;&#181;&#209;&#128;&#208;&#184;&#208;&#190;&#208;&#180;:&#226;&#128;&#168;&#208;&#147;&#208;&#190;&#208;&#180;: &#208;&#188;&#208;&#181;&#209;&#129;&#209;&#143;&#209;&#134;&#209;&#139;&#226;&#128;&#168;&#208;&#156;&#208;&#181;&#209;&#129;&#209;&#143;&#209;&#134;: &#208;&#189;&#208;&#181;&#208;&#180;&#208;&#181;&#208;&#187;&#208;&#184;&#226;&#128;&#168;&#208;&#157;&#208;&#181;&#208;&#180;&#208;&#181;&#208;&#187;&#209;&#143;: &#208;&#180;&#208;&#189;&#208;&#184;&#226;&#128;&#168;&#208;&#148;&#208;&#181;&#208;&#189;&#209;&#140;">
<path d="M5.715 14.225C4.795 14.225 3.97 14.015 3.24 13.595C2.51 13.175 1.935 12.565 1.515 11.765C1.105 10.955 0.9 9.965 0.9 8.795C0.9 7.925 1.03 7.155 1.29 6.485C1.55 5.805 1.91 5.235 2.37 4.775C2.83 4.315 3.35 3.97 3.93 3.74C4.52 3.5 5.14 3.38 5.79 3.38C6.33 3.38 6.795 3.425 7.185 3.515C7.585 3.595 7.915 3.69 8.175 3.8C8.435 3.91 8.625 4.005 8.745 4.085L8.355 5.135C8.105 4.985 7.78 4.84 7.38 4.7C6.98 4.56 6.5 4.49 5.94 4.49C5.15 4.49 4.475 4.67 3.915 5.03C3.355 5.38 2.93 5.88 2.64 6.53C2.35 7.17 2.205 7.93 2.205 8.81C2.205 9.67 2.34 10.425 2.61 11.075C2.89 11.715 3.3 12.215 3.84 12.575C4.38 12.935 5.04 13.115 5.82 13.115C6.49 13.115 7.04 13.05 7.47 12.92C7.91 12.79 8.25 12.66 8.49 12.53L8.835 13.58C8.665 13.69 8.31 13.825 7.77 13.985C7.23 14.145 6.545 14.225 5.715 14.225ZM11.3248 14V7.22H8.80484V6.215H15.0748V7.22H12.5248V14H11.3248ZM19.2981 14.18C18.5981 14.18 17.9781 14.015 17.4381 13.685C16.8981 13.345 16.4731 12.87 16.1631 12.26C15.8531 11.65 15.6981 10.935 15.6981 10.115C15.6981 9.295 15.8531 8.58 16.1631 7.97C16.4731 7.36 16.8981 6.885 17.4381 6.545C17.9781 6.205 18.5981 6.035 19.2981 6.035C19.9981 6.035 20.6181 6.205 21.1581 6.545C21.7081 6.885 22.1331 7.36 22.4331 7.97C22.7431 8.58 22.8981 9.295 22.8981 10.115C22.8981 10.935 22.7431 11.65 22.4331 12.26C22.1331 12.87 21.7131 13.345 21.1731 13.685C20.6331 14.015 20.0081 14.18 19.2981 14.18ZM19.2981 13.115C19.7881 13.115 20.2081 12.995 20.5581 12.755C20.9081 12.505 21.1781 12.155 21.3681 11.705C21.5581 11.255 21.6531 10.725 21.6531 10.115C21.6531 9.505 21.5581 8.975 21.3681 8.525C21.1781 8.065 20.9081 7.715 20.5581 7.475C20.2081 7.225 19.7881 7.1 19.2981 7.1C18.8181 7.1 18.3981 7.225 18.0381 7.475C17.6881 7.715 17.4181 8.065 17.2281 8.525C17.0381 8.975 16.9431 9.505 16.9431 10.115C16.9431 10.725 17.0381 11.255 17.2281 11.705C17.4181 12.155 17.6881 12.505 18.0381 12.755C18.3981 12.995 18.8181 13.115 19.2981 13.115ZM23.6522 14.135L23.5022 13.145C24.0022 13.035 24.4022 12.84 24.7022 12.56C25.0022 12.28 25.2422 11.89 25.4222 11.39C25.5622 11.02 25.6622 10.615 25.7222 10.175C25.7922 9.725 25.8372 9.25 25.8572 8.75C25.8772 8.24 25.8872 7.71 25.8872 7.16V6.215H30.8672V14H29.6822V7.22H27.0572V7.55C27.0572 7.93 27.0422 8.36 27.0122 8.84C26.9922 9.31 26.9472 9.785 26.8772 10.265C26.8172 10.745 26.7172 11.19 26.5772 11.6C26.4372 12.03 26.2372 12.43 25.9772 12.8C25.7272 13.17 25.4122 13.475 25.0322 13.715C24.6522 13.945 24.1922 14.085 23.6522 14.135ZM36.1805 14.18C35.4705 14.18 34.8805 14.045 34.4105 13.775C33.9405 13.505 33.5755 13.14 33.3155 12.68C33.0555 12.22 32.8705 11.695 32.7605 11.105C32.6605 10.515 32.6105 9.905 32.6105 9.275C32.6105 8.315 32.6755 7.455 32.8055 6.695C32.9455 5.925 33.1855 5.265 33.5255 4.715C33.8755 4.155 34.3505 3.705 34.9505 3.365C35.5505 3.025 36.3055 2.79 37.2155 2.66C37.7655 2.59 38.1655 2.535 38.4155 2.495C38.6655 2.455 38.8905 2.41 39.0905 2.36L39.2405 3.425C39.0905 3.465 38.8855 3.505 38.6255 3.545C38.3755 3.585 37.9905 3.635 37.4705 3.695C36.7005 3.785 36.0655 3.97 35.5655 4.25C35.0755 4.52 34.7005 4.91 34.4405 5.42C34.1805 5.92 34.0105 6.555 33.9305 7.325C34.2505 6.985 34.6405 6.735 35.1005 6.575C35.5605 6.405 35.9705 6.32 36.3305 6.32C37.1005 6.32 37.7305 6.48 38.2205 6.8C38.7205 7.12 39.0905 7.575 39.3305 8.165C39.5805 8.745 39.7055 9.435 39.7055 10.235C39.7055 10.715 39.6405 11.19 39.5105 11.66C39.3905 12.13 39.1905 12.555 38.9105 12.935C38.6305 13.315 38.2655 13.62 37.8155 13.85C37.3755 14.07 36.8305 14.18 36.1805 14.18ZM36.1805 13.115C36.7305 13.115 37.1705 12.985 37.5005 12.725C37.8305 12.455 38.0705 12.1 38.2205 11.66C38.3805 11.22 38.4605 10.74 38.4605 10.22C38.4605 9.73 38.3955 9.27 38.2655 8.84C38.1355 8.41 37.9005 8.06 37.5605 7.79C37.2305 7.52 36.7455 7.385 36.1055 7.385C35.8155 7.385 35.5205 7.445 35.2205 7.565C34.9205 7.675 34.6505 7.815 34.4105 7.985C34.1705 8.155 33.9905 8.34 33.8705 8.54C33.8605 8.63 33.8555 8.765 33.8555 8.945C33.8555 9.125 33.8555 9.29 33.8555 9.44C33.8555 9.92 33.8905 10.38 33.9605 10.82C34.0305 11.25 34.1455 11.64 34.3055 11.99C34.4755 12.33 34.7105 12.605 35.0105 12.815C35.3205 13.015 35.7105 13.115 36.1805 13.115ZM41.3446 14V6.215H42.5296C42.5296 7.245 42.5246 8.255 42.5146 9.245C42.5146 10.235 42.5146 11.185 42.5146 12.095C42.7146 11.745 42.9446 11.365 43.2046 10.955C43.4646 10.545 43.7396 10.125 44.0296 9.695C44.3196 9.255 44.6146 8.825 44.9146 8.405C45.2246 7.975 45.5246 7.575 45.8146 7.205C46.1146 6.835 46.3996 6.505 46.6696 6.215H47.7496V14H46.5796C46.5796 13.28 46.5796 12.565 46.5796 11.855C46.5796 11.145 46.5796 10.45 46.5796 9.77C46.5796 9.09 46.5796 8.435 46.5796 7.805C46.2796 8.175 45.9446 8.625 45.5746 9.155C45.2046 9.675 44.8246 10.225 44.4346 10.805C44.0546 11.385 43.6896 11.955 43.3396 12.515C42.9996 13.065 42.6996 13.56 42.4396 14H41.3446ZM49.8509 14V6.215H51.0509V9.665C51.3209 9.415 51.6159 9.13 51.9359 8.81C52.2559 8.49 52.5759 8.17 52.8959 7.85C53.2159 7.52 53.5109 7.215 53.7809 6.935C54.0509 6.645 54.2709 6.405 54.4409 6.215H55.8659C55.6459 6.465 55.3809 6.75 55.0709 7.07C54.7609 7.39 54.4359 7.72 54.0959 8.06C53.7559 8.4 53.4259 8.725 53.1059 9.035C52.7859 9.335 52.5009 9.605 52.2509 9.845C52.5909 10.065 52.9459 10.34 53.3159 10.67C53.6859 10.99 54.0459 11.34 54.3959 11.72C54.7559 12.1 55.0859 12.49 55.3859 12.89C55.6859 13.28 55.9409 13.65 56.1509 14H54.7559C54.4559 13.53 54.0859 13.055 53.6459 12.575C53.2159 12.085 52.7659 11.64 52.2959 11.24C51.8359 10.83 51.4209 10.515 51.0509 10.295V14H49.8509ZM57.2438 14V6.215H58.4288C58.4288 7.245 58.4238 8.255 58.4138 9.245C58.4138 10.235 58.4138 11.185 58.4138 12.095C58.6138 11.745 58.8438 11.365 59.1038 10.955C59.3638 10.545 59.6388 10.125 59.9288 9.695C60.2188 9.255 60.5138 8.825 60.8138 8.405C61.1238 7.975 61.4238 7.575 61.7138 7.205C62.0138 6.835 62.2988 6.505 62.5688 6.215H63.6488V14H62.4788C62.4788 13.28 62.4788 12.565 62.4788 11.855C62.4788 11.145 62.4788 10.45 62.4788 9.77C62.4788 9.09 62.4788 8.435 62.4788 7.805C62.1788 8.175 61.8438 8.625 61.4738 9.155C61.1038 9.675 60.7238 10.225 60.3338 10.805C59.9538 11.385 59.5888 11.955 59.2388 12.515C58.8988 13.065 58.5988 13.56 58.3388 14H57.2438ZM70.7271 14.18C70.0471 14.18 69.4821 14.12 69.0321 14C68.5821 13.89 68.2771 13.8 68.1171 13.73L68.3871 12.68C68.4771 12.73 68.7121 12.82 69.0921 12.95C69.4821 13.07 70.0171 13.13 70.6971 13.13C71.3471 13.13 71.8571 13.025 72.2271 12.815C72.5971 12.595 72.7821 12.27 72.7821 11.84C72.7821 11.53 72.7121 11.285 72.5721 11.105C72.4421 10.915 72.2721 10.775 72.0621 10.685C71.8521 10.585 71.6271 10.52 71.3871 10.49C71.1571 10.45 70.9421 10.43 70.7421 10.43H69.5571V9.47H70.6821C70.9321 9.47 71.1971 9.44 71.4771 9.38C71.7571 9.32 71.9971 9.205 72.1971 9.035C72.4071 8.865 72.5121 8.62 72.5121 8.3C72.5121 7.98 72.4221 7.735 72.2421 7.565C72.0721 7.385 71.8421 7.26 71.5521 7.19C71.2721 7.11 70.9671 7.07 70.6371 7.07C70.0971 7.07 69.6521 7.125 69.3021 7.235C68.9621 7.345 68.7171 7.435 68.5671 7.505L68.3271 6.47C68.5071 6.39 68.7971 6.3 69.1971 6.2C69.5971 6.1 70.0821 6.05 70.6521 6.05C71.2921 6.05 71.8371 6.13 72.2871 6.29C72.7471 6.45 73.0971 6.69 73.3371 7.01C73.5871 7.32 73.7121 7.725 73.7121 8.225C73.7121 8.655 73.5871 9.01 73.3371 9.29C73.0971 9.56 72.8021 9.755 72.4521 9.875C72.9321 10.015 73.3071 10.25 73.5771 10.58C73.8571 10.91 73.9971 11.34 73.9971 11.87C73.9971 12.26 73.9221 12.6 73.7721 12.89C73.6321 13.18 73.4171 13.42 73.1271 13.61C72.8471 13.8 72.5021 13.94 72.0921 14.03C71.6921 14.13 71.2371 14.18 70.7271 14.18ZM77.9991 14.165C77.4391 14.165 76.9341 14.085 76.4841 13.925C76.0441 13.765 75.6941 13.505 75.4341 13.145C75.1841 12.785 75.0591 12.305 75.0591 11.705C75.0591 11.135 75.1991 10.675 75.4791 10.325C75.7691 9.965 76.1591 9.705 76.6491 9.545C77.1491 9.385 77.7091 9.305 78.3291 9.305C78.6091 9.305 78.8991 9.33 79.1991 9.38C79.5091 9.43 79.7041 9.475 79.7841 9.515V9.08C79.7841 8.74 79.7391 8.42 79.6491 8.12C79.5691 7.81 79.3991 7.56 79.1391 7.37C78.8791 7.17 78.4891 7.07 77.9691 7.07C77.4291 7.07 77.0091 7.11 76.7091 7.19C76.4191 7.27 76.1991 7.335 76.0491 7.385L75.8991 6.38C76.0791 6.3 76.3591 6.225 76.7391 6.155C77.1191 6.075 77.5591 6.035 78.0591 6.035C78.7791 6.035 79.3491 6.16 79.7691 6.41C80.1891 6.66 80.4891 7.005 80.6691 7.445C80.8591 7.885 80.9541 8.39 80.9541 8.96V13.82C80.7441 13.87 80.3641 13.94 79.8141 14.03C79.2741 14.12 78.6691 14.165 77.9991 14.165ZM78.1641 13.16C78.5041 13.16 78.8091 13.15 79.0791 13.13C79.3591 13.1 79.5941 13.065 79.7841 13.025V10.475C79.6841 10.425 79.5141 10.38 79.2741 10.34C79.0441 10.29 78.7441 10.265 78.3741 10.265C78.0541 10.265 77.7341 10.3 77.4141 10.37C77.0941 10.43 76.8241 10.565 76.6041 10.775C76.3841 10.975 76.2741 11.28 76.2741 11.69C76.2741 12.24 76.4441 12.625 76.7841 12.845C77.1241 13.055 77.5841 13.16 78.1641 13.16ZM86.0202 14V6.215H92.1402V14H90.9552V7.22H87.2202V14H86.0202ZM97.6831 14.165C96.7731 14.165 96.0331 13.99 95.4631 13.64C94.8931 13.29 94.4731 12.81 94.2031 12.2C93.9331 11.59 93.7981 10.895 93.7981 10.115C93.7981 9.205 93.9631 8.45 94.2931 7.85C94.6331 7.25 95.0681 6.8 95.5981 6.5C96.1281 6.19 96.6831 6.035 97.2631 6.035C97.9231 6.035 98.4881 6.175 98.9581 6.455C99.4381 6.735 99.8081 7.16 100.068 7.73C100.338 8.29 100.473 9.005 100.473 9.875C100.473 9.955 100.468 10.045 100.458 10.145C100.458 10.235 100.453 10.325 100.443 10.415H95.0431C95.0831 11.265 95.3181 11.925 95.7481 12.395C96.1881 12.865 96.8581 13.1 97.7581 13.1C98.2581 13.1 98.6731 13.055 99.0031 12.965C99.3331 12.865 99.5731 12.78 99.7231 12.71L99.9181 13.715C99.7781 13.795 99.4981 13.89 99.0781 14C98.6681 14.11 98.2031 14.165 97.6831 14.165ZM95.0731 9.455H99.2581C99.2481 8.965 99.1631 8.545 99.0031 8.195C98.8531 7.835 98.6331 7.56 98.3431 7.37C98.0531 7.17 97.6981 7.07 97.2781 7.07C96.8481 7.07 96.4681 7.185 96.1381 7.415C95.8181 7.635 95.5681 7.925 95.3881 8.285C95.2081 8.645 95.1031 9.035 95.0731 9.455ZM102.154 16.775V6.485C102.364 6.415 102.609 6.35 102.889 6.29C103.169 6.23 103.489 6.18 103.849 6.14C104.209 6.09 104.609 6.065 105.049 6.065C105.819 6.065 106.494 6.23 107.074 6.56C107.664 6.88 108.119 7.345 108.439 7.955C108.759 8.565 108.919 9.29 108.919 10.13C108.919 10.92 108.779 11.62 108.499 12.23C108.229 12.84 107.834 13.32 107.314 13.67C106.794 14.01 106.159 14.18 105.409 14.18C104.939 14.18 104.524 14.115 104.164 13.985C103.804 13.855 103.534 13.725 103.354 13.595V16.775H102.154ZM105.259 13.115C105.699 13.115 106.069 13.04 106.369 12.89C106.679 12.74 106.929 12.53 107.119 12.26C107.309 11.98 107.444 11.66 107.524 11.3C107.614 10.94 107.659 10.555 107.659 10.145C107.659 9.505 107.549 8.96 107.329 8.51C107.119 8.06 106.814 7.715 106.414 7.475C106.024 7.235 105.564 7.115 105.034 7.115C104.604 7.115 104.249 7.14 103.969 7.19C103.699 7.23 103.494 7.27 103.354 7.31V12.485C103.524 12.615 103.779 12.755 104.119 12.905C104.459 13.045 104.839 13.115 105.259 13.115ZM110.543 14V6.215H111.728C111.728 7.245 111.723 8.255 111.713 9.245C111.713 10.235 111.713 11.185 111.713 12.095C111.913 11.745 112.143 11.365 112.403 10.955C112.663 10.545 112.938 10.125 113.228 9.695C113.518 9.255 113.813 8.825 114.113 8.405C114.423 7.975 114.723 7.575 115.013 7.205C115.313 6.835 115.598 6.505 115.868 6.215H116.948V14H115.778C115.778 13.28 115.778 12.565 115.778 11.855C115.778 11.145 115.778 10.45 115.778 9.77C115.778 9.09 115.778 8.435 115.778 7.805C115.478 8.175 115.143 8.625 114.773 9.155C114.403 9.675 114.023 10.225 113.633 10.805C113.253 11.385 112.888 11.955 112.538 12.515C112.198 13.065 111.898 13.56 111.638 14H110.543ZM122.199 14.18C121.499 14.18 120.879 14.015 120.339 13.685C119.799 13.345 119.374 12.87 119.064 12.26C118.754 11.65 118.599 10.935 118.599 10.115C118.599 9.295 118.754 8.58 119.064 7.97C119.374 7.36 119.799 6.885 120.339 6.545C120.879 6.205 121.499 6.035 122.199 6.035C122.899 6.035 123.519 6.205 124.059 6.545C124.609 6.885 125.034 7.36 125.334 7.97C125.644 8.58 125.799 9.295 125.799 10.115C125.799 10.935 125.644 11.65 125.334 12.26C125.034 12.87 124.614 13.345 124.074 13.685C123.534 14.015 122.909 14.18 122.199 14.18ZM122.199 13.115C122.689 13.115 123.109 12.995 123.459 12.755C123.809 12.505 124.079 12.155 124.269 11.705C124.459 11.255 124.554 10.725 124.554 10.115C124.554 9.505 124.459 8.975 124.269 8.525C124.079 8.065 123.809 7.715 123.459 7.475C123.109 7.225 122.689 7.1 122.199 7.1C121.719 7.1 121.299 7.225 120.939 7.475C120.589 7.715 120.319 8.065 120.129 8.525C119.939 8.975 119.844 9.505 119.844 10.115C119.844 10.725 119.939 11.255 120.129 11.705C120.319 12.155 120.589 12.505 120.939 12.755C121.299 12.995 121.719 13.115 122.199 13.115ZM126.433 16.16V12.995H127.258C127.578 12.505 127.833 12.015 128.023 11.525C128.213 11.035 128.358 10.525 128.458 9.995C128.558 9.455 128.618 8.875 128.638 8.255C128.668 7.635 128.683 6.955 128.683 6.215H133.678V12.995H134.638V16.16H133.528V14H127.543V16.16H126.433ZM128.518 12.995H132.478V7.22H129.808C129.808 7.9 129.773 8.57 129.703 9.23C129.633 9.88 129.508 10.52 129.328 11.15C129.148 11.78 128.878 12.395 128.518 12.995ZM136.515 14.18C136.235 14.18 136.01 14.095 135.84 13.925C135.68 13.745 135.6 13.525 135.6 13.265C135.6 13.005 135.68 12.79 135.84 12.62C136.01 12.44 136.235 12.35 136.515 12.35C136.795 12.35 137.015 12.44 137.175 12.62C137.345 12.79 137.43 13.005 137.43 13.265C137.43 13.525 137.345 13.745 137.175 13.925C137.015 14.095 136.795 14.18 136.515 14.18ZM136.515 8.06C136.235 8.06 136.01 7.975 135.84 7.805C135.68 7.625 135.6 7.405 135.6 7.145C135.6 6.885 135.68 6.67 135.84 6.5C136.01 6.32 136.235 6.23 136.515 6.23C136.795 6.23 137.015 6.32 137.175 6.5C137.345 6.67 137.43 6.885 137.43 7.145C137.43 7.405 137.345 7.625 137.175 7.805C137.015 7.975 136.795 8.06 136.515 8.06ZM1.32 32V21.605H7.185V22.67H2.565V32H1.32ZM10.0741 32.18C9.3741 32.18 8.7541 32.015 8.2141 31.685C7.6741 31.345 7.2491 30.87 6.9391 30.26C6.6291 29.65 6.4741 28.935 6.4741 28.115C6.4741 27.295 6.6291 26.58 6.9391 25.97C7.2491 25.36 7.6741 24.885 8.2141 24.545C8.7541 24.205 9.3741 24.035 10.0741 24.035C10.7741 24.035 11.3941 24.205 11.9341 24.545C12.4841 24.885 12.9091 25.36 13.2091 25.97C13.5191 26.58 13.6741 27.295 13.6741 28.115C13.6741 28.935 13.5191 29.65 13.2091 30.26C12.9091 30.87 12.4891 31.345 11.9491 31.685C11.4091 32.015 10.7841 32.18 10.0741 32.18ZM10.0741 31.115C10.5641 31.115 10.9841 30.995 11.3341 30.755C11.6841 30.505 11.9541 30.155 12.1441 29.705C12.3341 29.255 12.4291 28.725 12.4291 28.115C12.4291 27.505 12.3341 26.975 12.1441 26.525C11.9541 26.065 11.6841 25.715 11.3341 25.475C10.9841 25.225 10.5641 25.1 10.0741 25.1C9.5941 25.1 9.1741 25.225 8.8141 25.475C8.4641 25.715 8.1941 26.065 8.0041 26.525C7.8141 26.975 7.7191 27.505 7.7191 28.115C7.7191 28.725 7.8141 29.255 8.0041 29.705C8.1941 30.155 8.4641 30.505 8.8141 30.755C9.1741 30.995 9.5941 31.115 10.0741 31.115ZM14.3082 34.16V30.995H15.1332C15.4532 30.505 15.7082 30.015 15.8982 29.525C16.0882 29.035 16.2332 28.525 16.3332 27.995C16.4332 27.455 16.4932 26.875 16.5132 26.255C16.5432 25.635 16.5582 24.955 16.5582 24.215H21.5532V30.995H22.5132V34.16H21.4032V32H15.4182V34.16H14.3082ZM16.3932 30.995H20.3532V25.22H17.6832C17.6832 25.9 17.6482 26.57 17.5782 27.23C17.5082 27.88 17.3832 28.52 17.2032 29.15C17.0232 29.78 16.7532 30.395 16.3932 30.995ZM24.3901 32.18C24.1101 32.18 23.8851 32.095 23.7151 31.925C23.5551 31.745 23.4751 31.525 23.4751 31.265C23.4751 31.005 23.5551 30.79 23.7151 30.62C23.8851 30.44 24.1101 30.35 24.3901 30.35C24.6701 30.35 24.8901 30.44 25.0501 30.62C25.2201 30.79 25.3051 31.005 25.3051 31.265C25.3051 31.525 25.2201 31.745 25.0501 31.925C24.8901 32.095 24.6701 32.18 24.3901 32.18ZM24.3901 26.06C24.1101 26.06 23.8851 25.975 23.7151 25.805C23.5551 25.625 23.4751 25.405 23.4751 25.145C23.4751 24.885 23.5551 24.67 23.7151 24.5C23.8851 24.32 24.1101 24.23 24.3901 24.23C24.6701 24.23 24.8901 24.32 25.0501 24.5C25.2201 24.67 25.3051 24.885 25.3051 25.145C25.3051 25.405 25.2201 25.625 25.0501 25.805C24.8901 25.975 24.6701 26.06 24.3901 26.06ZM29.9586 32C29.9786 31.38 30.0036 30.74 30.0336 30.08C30.0736 29.42 30.1186 28.755 30.1686 28.085C30.2186 27.415 30.2736 26.755 30.3336 26.105C30.4036 25.455 30.4736 24.825 30.5436 24.215H31.6986C31.8186 24.405 31.9536 24.645 32.1036 24.935C32.2536 25.215 32.4186 25.535 32.5986 25.895C32.7786 26.245 32.9636 26.625 33.1536 27.035C33.3536 27.435 33.5536 27.86 33.7536 28.31C33.9536 28.75 34.1586 29.195 34.3686 29.645C34.5786 29.185 34.7836 28.735 34.9836 28.295C35.1936 27.845 35.3936 27.415 35.5836 27.005C35.7836 26.595 35.9736 26.21 36.1536 25.85C36.3336 25.49 36.4986 25.175 36.6486 24.905C36.7986 24.625 36.9286 24.395 37.0386 24.215H38.1936C38.2636 24.825 38.3286 25.455 38.3886 26.105C38.4486 26.755 38.5036 27.415 38.5536 28.085C38.6036 28.755 38.6436 29.42 38.6736 30.08C38.7136 30.74 38.7436 31.38 38.7636 32H37.6086C37.5886 31.51 37.5686 31.02 37.5486 30.53C37.5286 30.03 37.5036 29.535 37.4736 29.045C37.4436 28.545 37.4086 28.04 37.3686 27.53C37.3286 27.01 37.2786 26.48 37.2186 25.94C37.0886 26.17 36.9336 26.465 36.7536 26.825C36.5836 27.175 36.4036 27.55 36.2136 27.95C36.0336 28.34 35.8536 28.73 35.6736 29.12C35.5036 29.5 35.3436 29.855 35.1936 30.185C35.0536 30.505 34.9436 30.76 34.8636 30.95H33.8586C33.7786 30.76 33.6636 30.505 33.5136 30.185C33.3736 29.855 33.2136 29.5 33.0336 29.12C32.8536 28.73 32.6686 28.34 32.4786 27.95C32.2986 27.55 32.1186 27.175 31.9386 26.825C31.7686 26.465 31.6186 26.17 31.4886 25.94C31.4186 26.65 31.3586 27.35 31.3086 28.04C31.2586 28.73 31.2186 29.405 31.1886 30.065C31.1586 30.725 31.1286 31.37 31.0986 32H29.9586ZM44.1013 32.165C43.1913 32.165 42.4513 31.99 41.8813 31.64C41.3113 31.29 40.8913 30.81 40.6213 30.2C40.3513 29.59 40.2163 28.895 40.2163 28.115C40.2163 27.205 40.3813 26.45 40.7113 25.85C41.0513 25.25 41.4863 24.8 42.0163 24.5C42.5463 24.19 43.1013 24.035 43.6813 24.035C44.3413 24.035 44.9063 24.175 45.3763 24.455C45.8563 24.735 46.2263 25.16 46.4863 25.73C46.7563 26.29 46.8913 27.005 46.8913 27.875C46.8913 27.955 46.8863 28.045 46.8763 28.145C46.8763 28.235 46.8713 28.325 46.8613 28.415H41.4613C41.5013 29.265 41.7363 29.925 42.1663 30.395C42.6063 30.865 43.2763 31.1 44.1763 31.1C44.6763 31.1 45.0913 31.055 45.4213 30.965C45.7513 30.865 45.9913 30.78 46.1413 30.71L46.3363 31.715C46.1963 31.795 45.9163 31.89 45.4963 32C45.0863 32.11 44.6213 32.165 44.1013 32.165ZM41.4913 27.455H45.6763C45.6663 26.965 45.5813 26.545 45.4213 26.195C45.2713 25.835 45.0513 25.56 44.7613 25.37C44.4713 25.17 44.1163 25.07 43.6963 25.07C43.2663 25.07 42.8863 25.185 42.5563 25.415C42.2363 25.635 41.9863 25.925 41.8063 26.285C41.6263 26.645 41.5213 27.035 41.4913 27.455ZM51.872 32.165C51.042 32.165 50.347 32 49.787 31.67C49.237 31.33 48.822 30.855 48.542 30.245C48.262 29.635 48.122 28.93 48.122 28.13C48.122 27.32 48.267 26.61 48.557 26C48.857 25.39 49.282 24.91 49.832 24.56C50.382 24.21 51.032 24.035 51.782 24.035C52.192 24.035 52.582 24.07 52.952 24.14C53.322 24.21 53.617 24.305 53.837 24.425L53.537 25.415C53.337 25.325 53.112 25.25 52.862 25.19C52.612 25.13 52.287 25.1 51.887 25.1C51.067 25.1 50.442 25.37 50.012 25.91C49.582 26.44 49.367 27.18 49.367 28.13C49.367 28.72 49.457 29.24 49.637 29.69C49.817 30.13 50.102 30.475 50.492 30.725C50.882 30.975 51.402 31.1 52.052 31.1C52.442 31.1 52.782 31.06 53.072 30.98C53.372 30.89 53.592 30.805 53.732 30.725L53.972 31.745C53.772 31.845 53.477 31.94 53.087 32.03C52.697 32.12 52.292 32.165 51.872 32.165ZM54.3789 32C54.6389 31.41 54.9489 30.815 55.3089 30.215C55.6689 29.615 56.0039 29.1 56.3139 28.67C55.9239 28.54 55.5739 28.31 55.2639 27.98C54.9539 27.64 54.7989 27.17 54.7989 26.57C54.7989 26 54.9389 25.53 55.2189 25.16C55.4989 24.79 55.8839 24.515 56.3739 24.335C56.8739 24.145 57.4389 24.05 58.0689 24.05C58.3489 24.05 58.6639 24.07 59.0139 24.11C59.3639 24.15 59.6989 24.195 60.0189 24.245C60.3489 24.295 60.6089 24.35 60.7989 24.41V32H59.5989V28.925H58.3089C58.1189 28.925 57.9439 28.925 57.7839 28.925C57.6339 28.915 57.5089 28.905 57.4089 28.895C57.2089 29.195 56.9939 29.53 56.7639 29.9C56.5339 30.26 56.3189 30.625 56.1189 30.995C55.9189 31.355 55.7489 31.69 55.6089 32H54.3789ZM58.1589 27.98H59.5989V25.19C59.4889 25.17 59.3039 25.145 59.0439 25.115C58.7839 25.075 58.4639 25.055 58.0839 25.055C57.7139 25.055 57.3689 25.105 57.0489 25.205C56.7389 25.305 56.4839 25.465 56.2839 25.685C56.0939 25.905 55.9989 26.2 55.9989 26.57C55.9989 26.93 56.0889 27.215 56.2689 27.425C56.4589 27.635 56.7139 27.78 57.0339 27.86C57.3539 27.94 57.7289 27.98 58.1589 27.98ZM68.8591 34.16V32H62.8891V24.215H64.0891V30.995H67.8241V24.215H69.0091V30.995H69.9841V34.16H68.8591ZM74.0689 32.165C73.7089 32.165 73.3489 32.145 72.9889 32.105C72.6389 32.075 72.3139 32.035 72.0139 31.985C71.7139 31.935 71.4589 31.88 71.2489 31.82V24.215H72.4489V27.275C72.6189 27.225 72.8689 27.175 73.1989 27.125C73.5289 27.075 73.8639 27.05 74.2039 27.05C74.6039 27.05 74.9889 27.1 75.3589 27.2C75.7289 27.29 76.0539 27.435 76.3339 27.635C76.6139 27.835 76.8339 28.1 76.9939 28.43C77.1639 28.75 77.2489 29.145 77.2489 29.615C77.2489 30.075 77.1689 30.47 77.0089 30.8C76.8489 31.12 76.6239 31.38 76.3339 31.58C76.0439 31.78 75.7089 31.925 75.3289 32.015C74.9489 32.115 74.5289 32.165 74.0689 32.165ZM74.0539 31.16C74.6439 31.16 75.1239 31.04 75.4939 30.8C75.8639 30.55 76.0489 30.15 76.0489 29.6C76.0489 29.06 75.8539 28.67 75.4639 28.43C75.0839 28.19 74.6289 28.07 74.0989 28.07C73.8189 28.07 73.5289 28.085 73.2289 28.115C72.9289 28.145 72.6689 28.195 72.4489 28.265V31.01C72.5789 31.04 72.7889 31.075 73.0789 31.115C73.3789 31.145 73.7039 31.16 74.0539 31.16ZM78.8089 32V24.215H79.9939V32H78.8089ZM1.065 50C1.105 49.09 1.15 48.18 1.2 47.27C1.25 46.35 1.305 45.455 1.365 44.585C1.425 43.705 1.49 42.845 1.56 42.005C1.64 41.165 1.725 40.365 1.815 39.605H2.94C3.22 40.075 3.52 40.625 3.84 41.255C4.16 41.875 4.48 42.53 4.8 43.22C5.13 43.9 5.445 44.575 5.745 45.245C6.045 45.905 6.315 46.505 6.555 47.045C6.795 46.505 7.065 45.905 7.365 45.245C7.665 44.575 7.975 43.9 8.295 43.22C8.625 42.53 8.95 41.875 9.27 41.255C9.6 40.625 9.9 40.075 10.17 39.605H11.235C11.325 40.365 11.405 41.165 11.475 42.005C11.555 42.845 11.625 43.705 11.685 44.585C11.745 45.455 11.8 46.35 11.85 47.27C11.91 48.18 11.96 49.09 12 50H10.755C10.715 49 10.67 48.015 10.62 47.045C10.58 46.075 10.53 45.135 10.47 44.225C10.41 43.315 10.34 42.45 10.26 41.63C10.16 41.83 10.005 42.145 9.795 42.575C9.585 43.005 9.345 43.5 9.075 44.06C8.815 44.61 8.55 45.175 8.28 45.755C8.01 46.335 7.765 46.87 7.545 47.36C7.325 47.85 7.155 48.24 7.035 48.53H6C5.88 48.24 5.71 47.85 5.49 47.36C5.27 46.87 5.025 46.335 4.755 45.755C4.485 45.175 4.215 44.61 3.945 44.06C3.685 43.5 3.45 43.005 3.24 42.575C3.03 42.145 2.875 41.83 2.775 41.63C2.695 42.45 2.625 43.315 2.565 44.225C2.505 45.135 2.45 46.075 2.4 47.045C2.36 48.015 2.32 49 2.28 50H1.065ZM17.3464 50.165C16.4364 50.165 15.6964 49.99 15.1264 49.64C14.5564 49.29 14.1364 48.81 13.8664 48.2C13.5964 47.59 13.4614 46.895 13.4614 46.115C13.4614 45.205 13.6264 44.45 13.9564 43.85C14.2964 43.25 14.7314 42.8 15.2614 42.5C15.7914 42.19 16.3464 42.035 16.9264 42.035C17.5864 42.035 18.1514 42.175 18.6214 42.455C19.1014 42.735 19.4714 43.16 19.7314 43.73C20.0014 44.29 20.1364 45.005 20.1364 45.875C20.1364 45.955 20.1314 46.045 20.1214 46.145C20.1214 46.235 20.1164 46.325 20.1064 46.415H14.7064C14.7464 47.265 14.9814 47.925 15.4114 48.395C15.8514 48.865 16.5214 49.1 17.4214 49.1C17.9214 49.1 18.3364 49.055 18.6664 48.965C18.9964 48.865 19.2364 48.78 19.3864 48.71L19.5814 49.715C19.4414 49.795 19.1614 49.89 18.7414 50C18.3314 50.11 17.8664 50.165 17.3464 50.165ZM14.7364 45.455H18.9214C18.9114 44.965 18.8264 44.545 18.6664 44.195C18.5164 43.835 18.2964 43.56 18.0064 43.37C17.7164 43.17 17.3614 43.07 16.9414 43.07C16.5114 43.07 16.1314 43.185 15.8014 43.415C15.4814 43.635 15.2314 43.925 15.0514 44.285C14.8714 44.645 14.7664 45.035 14.7364 45.455ZM25.1171 50.165C24.2871 50.165 23.5921 50 23.0321 49.67C22.4821 49.33 22.0671 48.855 21.7871 48.245C21.5071 47.635 21.3671 46.93 21.3671 46.13C21.3671 45.32 21.5121 44.61 21.8021 44C22.1021 43.39 22.5271 42.91 23.0771 42.56C23.6271 42.21 24.2771 42.035 25.0271 42.035C25.4371 42.035 25.8271 42.07 26.1971 42.14C26.5671 42.21 26.8621 42.305 27.0821 42.425L26.7821 43.415C26.5821 43.325 26.3571 43.25 26.1071 43.19C25.8571 43.13 25.5321 43.1 25.1321 43.1C24.3121 43.1 23.6871 43.37 23.2571 43.91C22.8271 44.44 22.6121 45.18 22.6121 46.13C22.6121 46.72 22.7021 47.24 22.8821 47.69C23.0621 48.13 23.3471 48.475 23.7371 48.725C24.1271 48.975 24.6471 49.1 25.2971 49.1C25.6871 49.1 26.0271 49.06 26.3171 48.98C26.6171 48.89 26.8371 48.805 26.9771 48.725L27.2171 49.745C27.0171 49.845 26.7221 49.94 26.3321 50.03C25.9421 50.12 25.5371 50.165 25.1171 50.165ZM27.624 50C27.884 49.41 28.194 48.815 28.554 48.215C28.914 47.615 29.249 47.1 29.559 46.67C29.169 46.54 28.819 46.31 28.509 45.98C28.199 45.64 28.044 45.17 28.044 44.57C28.044 44 28.184 43.53 28.464 43.16C28.744 42.79 29.129 42.515 29.619 42.335C30.119 42.145 30.684 42.05 31.314 42.05C31.594 42.05 31.909 42.07 32.259 42.11C32.609 42.15 32.944 42.195 33.264 42.245C33.594 42.295 33.854 42.35 34.044 42.41V50H32.844V46.925H31.554C31.364 46.925 31.189 46.925 31.029 46.925C30.879 46.915 30.754 46.905 30.654 46.895C30.454 47.195 30.239 47.53 30.009 47.9C29.779 48.26 29.564 48.625 29.364 48.995C29.164 49.355 28.994 49.69 28.854 50H27.624ZM31.404 45.98H32.844V43.19C32.734 43.17 32.549 43.145 32.289 43.115C32.029 43.075 31.709 43.055 31.329 43.055C30.959 43.055 30.614 43.105 30.294 43.205C29.984 43.305 29.729 43.465 29.529 43.685C29.339 43.905 29.244 44.2 29.244 44.57C29.244 44.93 29.334 45.215 29.514 45.425C29.704 45.635 29.959 45.78 30.279 45.86C30.599 45.94 30.974 45.98 31.404 45.98ZM42.1043 52.16V50H36.1343V42.215H37.3343V48.995H41.0693V42.215H42.2543V48.995H43.2293V52.16H42.1043ZM45.094 50.18C44.814 50.18 44.589 50.095 44.419 49.925C44.259 49.745 44.179 49.525 44.179 49.265C44.179 49.005 44.259 48.79 44.419 48.62C44.589 48.44 44.814 48.35 45.094 48.35C45.374 48.35 45.594 48.44 45.754 48.62C45.924 48.79 46.009 49.005 46.009 49.265C46.009 49.525 45.924 49.745 45.754 49.925C45.594 50.095 45.374 50.18 45.094 50.18ZM45.094 44.06C44.814 44.06 44.589 43.975 44.419 43.805C44.259 43.625 44.179 43.405 44.179 43.145C44.179 42.885 44.259 42.67 44.419 42.5C44.589 42.32 44.814 42.23 45.094 42.23C45.374 42.23 45.594 42.32 45.754 42.5C45.924 42.67 46.009 42.885 46.009 43.145C46.009 43.405 45.924 43.625 45.754 43.805C45.594 43.975 45.374 44.06 45.094 44.06ZM50.8425 50V42.215H52.0425V45.47H55.9275V42.215H57.1125V50H55.9275V46.475H52.0425V50H50.8425ZM62.6519 50.165C61.7419 50.165 61.0019 49.99 60.4319 49.64C59.8619 49.29 59.4419 48.81 59.1719 48.2C58.9019 47.59 58.7669 46.895 58.7669 46.115C58.7669 45.205 58.9319 44.45 59.2619 43.85C59.6019 43.25 60.0369 42.8 60.5669 42.5C61.0969 42.19 61.6519 42.035 62.2319 42.035C62.8919 42.035 63.4569 42.175 63.9269 42.455C64.4069 42.735 64.7769 43.16 65.0369 43.73C65.3069 44.29 65.4419 45.005 65.4419 45.875C65.4419 45.955 65.4369 46.045 65.4269 46.145C65.4269 46.235 65.4219 46.325 65.4119 46.415H60.0119C60.0519 47.265 60.2869 47.925 60.7169 48.395C61.1569 48.865 61.8269 49.1 62.7269 49.1C63.2269 49.1 63.6419 49.055 63.9719 48.965C64.3019 48.865 64.5419 48.78 64.6919 48.71L64.8869 49.715C64.7469 49.795 64.4669 49.89 64.0469 50C63.6369 50.11 63.1719 50.165 62.6519 50.165ZM60.0419 45.455H64.2269C64.2169 44.965 64.1319 44.545 63.9719 44.195C63.8219 43.835 63.6019 43.56 63.3119 43.37C63.0219 43.17 62.6669 43.07 62.2469 43.07C61.8169 43.07 61.4369 43.185 61.1069 43.415C60.7869 43.635 60.5369 43.925 60.3569 44.285C60.1769 44.645 60.0719 45.035 60.0419 45.455ZM66.1175 52.16V48.995H66.9425C67.2625 48.505 67.5175 48.015 67.7075 47.525C67.8975 47.035 68.0425 46.525 68.1425 45.995C68.2425 45.455 68.3025 44.875 68.3225 44.255C68.3525 43.635 68.3675 42.955 68.3675 42.215H73.3625V48.995H74.3225V52.16H73.2125V50H67.2275V52.16H66.1175ZM68.2025 48.995H72.1625V43.22H69.4925C69.4925 43.9 69.4575 44.57 69.3875 45.23C69.3175 45.88 69.1925 46.52 69.0125 47.15C68.8325 47.78 68.5625 48.395 68.2025 48.995ZM79.0345 50.165C78.1245 50.165 77.3845 49.99 76.8145 49.64C76.2445 49.29 75.8245 48.81 75.5545 48.2C75.2845 47.59 75.1495 46.895 75.1495 46.115C75.1495 45.205 75.3145 44.45 75.6445 43.85C75.9845 43.25 76.4195 42.8 76.9495 42.5C77.4795 42.19 78.0345 42.035 78.6145 42.035C79.2745 42.035 79.8395 42.175 80.3095 42.455C80.7895 42.735 81.1595 43.16 81.4195 43.73C81.6895 44.29 81.8245 45.005 81.8245 45.875C81.8245 45.955 81.8195 46.045 81.8095 46.145C81.8095 46.235 81.8045 46.325 81.7945 46.415H76.3945C76.4345 47.265 76.6695 47.925 77.0995 48.395C77.5395 48.865 78.2095 49.1 79.1095 49.1C79.6095 49.1 80.0245 49.055 80.3545 48.965C80.6845 48.865 80.9245 48.78 81.0745 48.71L81.2695 49.715C81.1295 49.795 80.8495 49.89 80.4295 50C80.0195 50.11 79.5545 50.165 79.0345 50.165ZM76.4245 45.455H80.6095C80.5995 44.965 80.5145 44.545 80.3545 44.195C80.2045 43.835 79.9845 43.56 79.6945 43.37C79.4045 43.17 79.0495 43.07 78.6295 43.07C78.1995 43.07 77.8195 43.185 77.4895 43.415C77.1695 43.635 76.9195 43.925 76.7395 44.285C76.5595 44.645 76.4545 45.035 76.4245 45.455ZM82.6202 50.135L82.4702 49.145C82.9702 49.035 83.3702 48.84 83.6702 48.56C83.9702 48.28 84.2102 47.89 84.3902 47.39C84.5302 47.02 84.6302 46.615 84.6902 46.175C84.7602 45.725 84.8052 45.25 84.8252 44.75C84.8452 44.24 84.8552 43.71 84.8552 43.16V42.215H89.8352V50H88.6502V43.22H86.0252V43.55C86.0252 43.93 86.0102 44.36 85.9802 44.84C85.9602 45.31 85.9152 45.785 85.8452 46.265C85.7852 46.745 85.6852 47.19 85.5452 47.6C85.4052 48.03 85.2052 48.43 84.9452 48.8C84.6952 49.17 84.3802 49.475 84.0002 49.715C83.6202 49.945 83.1602 50.085 82.6202 50.135ZM91.9235 50V42.215H93.1085C93.1085 43.245 93.1035 44.255 93.0935 45.245C93.0935 46.235 93.0935 47.185 93.0935 48.095C93.2935 47.745 93.5235 47.365 93.7835 46.955C94.0435 46.545 94.3185 46.125 94.6085 45.695C94.8985 45.255 95.1935 44.825 95.4935 44.405C95.8035 43.975 96.1035 43.575 96.3935 43.205C96.6935 42.835 96.9785 42.505 97.2485 42.215H98.3285V50H97.1585C97.1585 49.28 97.1585 48.565 97.1585 47.855C97.1585 47.145 97.1585 46.45 97.1585 45.77C97.1585 45.09 97.1585 44.435 97.1585 43.805C96.8585 44.175 96.5235 44.625 96.1535 45.155C95.7835 45.675 95.4035 46.225 95.0135 46.805C94.6335 47.385 94.2685 47.955 93.9185 48.515C93.5785 49.065 93.2785 49.56 93.0185 50H91.9235ZM1.32 68V57.605H2.565V62.03H7.92V57.605H9.165V68H7.92V63.095H2.565V68H1.32ZM14.7683 68.165C13.8583 68.165 13.1183 67.99 12.5483 67.64C11.9783 67.29 11.5583 66.81 11.2883 66.2C11.0183 65.59 10.8833 64.895 10.8833 64.115C10.8833 63.205 11.0483 62.45 11.3783 61.85C11.7183 61.25 12.1533 60.8 12.6833 60.5C13.2133 60.19 13.7683 60.035 14.3483 60.035C15.0083 60.035 15.5733 60.175 16.0433 60.455C16.5233 60.735 16.8933 61.16 17.1533 61.73C17.4233 62.29 17.5583 63.005 17.5583 63.875C17.5583 63.955 17.5533 64.045 17.5433 64.145C17.5433 64.235 17.5383 64.325 17.5283 64.415H12.1283C12.1683 65.265 12.4033 65.925 12.8333 66.395C13.2733 66.865 13.9433 67.1 14.8433 67.1C15.3433 67.1 15.7583 67.055 16.0883 66.965C16.4183 66.865 16.6583 66.78 16.8083 66.71L17.0033 67.715C16.8633 67.795 16.5833 67.89 16.1633 68C15.7533 68.11 15.2883 68.165 14.7683 68.165ZM12.1583 63.455H16.3433C16.3333 62.965 16.2483 62.545 16.0883 62.195C15.9383 61.835 15.7183 61.56 15.4283 61.37C15.1383 61.17 14.7833 61.07 14.3633 61.07C13.9333 61.07 13.5533 61.185 13.2233 61.415C12.9033 61.635 12.6533 61.925 12.4733 62.285C12.2933 62.645 12.1883 63.035 12.1583 63.455ZM18.2339 70.16V66.995H19.0589C19.3789 66.505 19.6339 66.015 19.8239 65.525C20.0139 65.035 20.1589 64.525 20.2589 63.995C20.3589 63.455 20.4189 62.875 20.4389 62.255C20.4689 61.635 20.4839 60.955 20.4839 60.215H25.4789V66.995H26.4389V70.16H25.3289V68H19.3439V70.16H18.2339ZM20.3189 66.995H24.2789V61.22H21.6089C21.6089 61.9 21.5739 62.57 21.5039 63.23C21.4339 63.88 21.3089 64.52 21.1289 65.15C20.9489 65.78 20.6789 66.395 20.3189 66.995ZM31.1509 68.165C30.2409 68.165 29.5009 67.99 28.9309 67.64C28.3609 67.29 27.9409 66.81 27.6709 66.2C27.4009 65.59 27.2659 64.895 27.2659 64.115C27.2659 63.205 27.4309 62.45 27.7609 61.85C28.1009 61.25 28.5359 60.8 29.0659 60.5C29.5959 60.19 30.1509 60.035 30.7309 60.035C31.3909 60.035 31.9559 60.175 32.4259 60.455C32.9059 60.735 33.2759 61.16 33.5359 61.73C33.8059 62.29 33.9409 63.005 33.9409 63.875C33.9409 63.955 33.9359 64.045 33.9259 64.145C33.9259 64.235 33.9209 64.325 33.9109 64.415H28.5109C28.5509 65.265 28.7859 65.925 29.2159 66.395C29.6559 66.865 30.3259 67.1 31.2259 67.1C31.7259 67.1 32.1409 67.055 32.4709 66.965C32.8009 66.865 33.0409 66.78 33.1909 66.71L33.3859 67.715C33.2459 67.795 32.9659 67.89 32.5459 68C32.1359 68.11 31.6709 68.165 31.1509 68.165ZM28.5409 63.455H32.7259C32.7159 62.965 32.6309 62.545 32.4709 62.195C32.3209 61.835 32.1009 61.56 31.8109 61.37C31.5209 61.17 31.1659 61.07 30.7459 61.07C30.3159 61.07 29.9359 61.185 29.6059 61.415C29.2859 61.635 29.0359 61.925 28.8559 62.285C28.6759 62.645 28.5709 63.035 28.5409 63.455ZM34.7366 68.135L34.5866 67.145C35.0866 67.035 35.4866 66.84 35.7866 66.56C36.0866 66.28 36.3266 65.89 36.5066 65.39C36.6466 65.02 36.7466 64.615 36.8066 64.175C36.8766 63.725 36.9216 63.25 36.9416 62.75C36.9616 62.24 36.9716 61.71 36.9716 61.16V60.215H41.9516V68H40.7666V61.22H38.1416V61.55C38.1416 61.93 38.1266 62.36 38.0966 62.84C38.0766 63.31 38.0316 63.785 37.9616 64.265C37.9016 64.745 37.8016 65.19 37.6616 65.6C37.5216 66.03 37.3216 66.43 37.0616 66.8C36.8116 67.17 36.4966 67.475 36.1166 67.715C35.7366 67.945 35.2766 68.085 34.7366 68.135ZM43.2449 68C43.5049 67.41 43.8149 66.815 44.1749 66.215C44.5349 65.615 44.8699 65.1 45.1799 64.67C44.7899 64.54 44.4399 64.31 44.1299 63.98C43.8199 63.64 43.6649 63.17 43.6649 62.57C43.6649 62 43.8049 61.53 44.0849 61.16C44.3649 60.79 44.7499 60.515 45.2399 60.335C45.7399 60.145 46.3049 60.05 46.9349 60.05C47.2149 60.05 47.5299 60.07 47.8799 60.11C48.2299 60.15 48.5649 60.195 48.8849 60.245C49.2149 60.295 49.4749 60.35 49.6649 60.41V68H48.4649V64.925H47.1749C46.9849 64.925 46.8099 64.925 46.6499 64.925C46.4999 64.915 46.3749 64.905 46.2749 64.895C46.0749 65.195 45.8599 65.53 45.6299 65.9C45.3999 66.26 45.1849 66.625 44.9849 66.995C44.7849 67.355 44.6149 67.69 44.4749 68H43.2449ZM47.0249 63.98H48.4649V61.19C48.3549 61.17 48.1699 61.145 47.9099 61.115C47.6499 61.075 47.3299 61.055 46.9499 61.055C46.5799 61.055 46.2349 61.105 45.9149 61.205C45.6049 61.305 45.3499 61.465 45.1499 61.685C44.9599 61.905 44.8649 62.2 44.8649 62.57C44.8649 62.93 44.9549 63.215 45.1349 63.425C45.3249 63.635 45.5799 63.78 45.8999 63.86C46.2199 63.94 46.5949 63.98 47.0249 63.98ZM52.3552 68.18C52.0752 68.18 51.8502 68.095 51.6802 67.925C51.5202 67.745 51.4402 67.525 51.4402 67.265C51.4402 67.005 51.5202 66.79 51.6802 66.62C51.8502 66.44 52.0752 66.35 52.3552 66.35C52.6352 66.35 52.8552 66.44 53.0152 66.62C53.1852 66.79 53.2702 67.005 53.2702 67.265C53.2702 67.525 53.1852 67.745 53.0152 67.925C52.8552 68.095 52.6352 68.18 52.3552 68.18ZM52.3552 62.06C52.0752 62.06 51.8502 61.975 51.6802 61.805C51.5202 61.625 51.4402 61.405 51.4402 61.145C51.4402 60.885 51.5202 60.67 51.6802 60.5C51.8502 60.32 52.0752 60.23 52.3552 60.23C52.6352 60.23 52.8552 60.32 53.0152 60.5C53.1852 60.67 53.2702 60.885 53.2702 61.145C53.2702 61.405 53.1852 61.625 53.0152 61.805C52.8552 61.975 52.6352 62.06 52.3552 62.06ZM57.0986 70.16V66.995H57.9236C58.2436 66.505 58.4986 66.015 58.6886 65.525C58.8786 65.035 59.0236 64.525 59.1236 63.995C59.2236 63.455 59.2836 62.875 59.3036 62.255C59.3336 61.635 59.3486 60.955 59.3486 60.215H64.3436V66.995H65.3036V70.16H64.1936V68H58.2086V70.16H57.0986ZM59.1836 66.995H63.1436V61.22H60.4736C60.4736 61.9 60.4386 62.57 60.3686 63.23C60.2986 63.88 60.1736 64.52 59.9936 65.15C59.8136 65.78 59.5436 66.395 59.1836 66.995ZM66.5805 68V60.215H67.7805V63.47H71.6655V60.215H72.8505V68H71.6655V64.475H67.7805V68H66.5805ZM74.955 68V60.215H76.14C76.14 61.245 76.135 62.255 76.125 63.245C76.125 64.235 76.125 65.185 76.125 66.095C76.325 65.745 76.555 65.365 76.815 64.955C77.075 64.545 77.35 64.125 77.64 63.695C77.93 63.255 78.225 62.825 78.525 62.405C78.835 61.975 79.135 61.575 79.425 61.205C79.725 60.835 80.01 60.505 80.28 60.215H81.36V68H80.19C80.19 67.28 80.19 66.565 80.19 65.855C80.19 65.145 80.19 64.45 80.19 63.77C80.19 63.09 80.19 62.435 80.19 61.805C79.89 62.175 79.555 62.625 79.185 63.155C78.815 63.675 78.435 64.225 78.045 64.805C77.665 65.385 77.3 65.955 76.95 66.515C76.61 67.065 76.31 67.56 76.05 68H74.955ZM0.27 88.775V84.935H1.305C1.695 84.505 2.015 84.025 2.265 83.495C2.515 82.965 2.71 82.4 2.85 81.8C3 81.19 3.11 80.55 3.18 79.88C3.25 79.2 3.295 78.505 3.315 77.795C3.335 77.075 3.345 76.345 3.345 75.605H9V84.935H10.125V88.775H8.925V86H1.47V88.775H0.27ZM2.76 84.935H7.77V76.67H4.56C4.56 77.23 4.545 77.81 4.515 78.41C4.495 79 4.45 79.59 4.38 80.18C4.32 80.77 4.225 81.35 4.095 81.92C3.965 82.49 3.79 83.03 3.57 83.54C3.35 84.04 3.08 84.505 2.76 84.935ZM14.8562 86.165C13.9462 86.165 13.2062 85.99 12.6362 85.64C12.0662 85.29 11.6462 84.81 11.3762 84.2C11.1062 83.59 10.9712 82.895 10.9712 82.115C10.9712 81.205 11.1362 80.45 11.4662 79.85C11.8062 79.25 12.2412 78.8 12.7712 78.5C13.3012 78.19 13.8562 78.035 14.4362 78.035C15.0962 78.035 15.6612 78.175 16.1312 78.455C16.6112 78.735 16.9812 79.16 17.2412 79.73C17.5112 80.29 17.6462 81.005 17.6462 81.875C17.6462 81.955 17.6412 82.045 17.6312 82.145C17.6312 82.235 17.6262 82.325 17.6162 82.415H12.2162C12.2562 83.265 12.4912 83.925 12.9212 84.395C13.3612 84.865 14.0312 85.1 14.9312 85.1C15.4312 85.1 15.8462 85.055 16.1762 84.965C16.5062 84.865 16.7462 84.78 16.8962 84.71L17.0912 85.715C16.9512 85.795 16.6712 85.89 16.2512 86C15.8412 86.11 15.3762 86.165 14.8562 86.165ZM12.2462 81.455H16.4312C16.4212 80.965 16.3362 80.545 16.1762 80.195C16.0262 79.835 15.8062 79.56 15.5162 79.37C15.2262 79.17 14.8712 79.07 14.4512 79.07C14.0212 79.07 13.6412 79.185 13.3112 79.415C12.9912 79.635 12.7412 79.925 12.5612 80.285C12.3812 80.645 12.2762 81.035 12.2462 81.455ZM19.3268 86V78.215H20.5268V81.47H24.4118V78.215H25.5968V86H24.4118V82.475H20.5268V86H19.3268ZM30.5812 86.165C30.2012 86.165 29.8312 86.145 29.4712 86.105C29.1112 86.075 28.7762 86.035 28.4662 85.985C28.1662 85.935 27.9112 85.88 27.7012 85.82V78.215H28.9012V81.275C29.0712 81.225 29.3212 81.175 29.6512 81.125C29.9912 81.075 30.3412 81.05 30.7012 81.05C31.1212 81.05 31.5162 81.1 31.8862 81.2C32.2662 81.29 32.6012 81.435 32.8912 81.635C33.1812 81.835 33.4062 82.1 33.5662 82.43C33.7362 82.75 33.8212 83.145 33.8212 83.615C33.8212 84.075 33.7412 84.47 33.5812 84.8C33.4212 85.12 33.1962 85.38 32.9062 85.58C32.6162 85.78 32.2712 85.925 31.8712 86.015C31.4712 86.115 31.0412 86.165 30.5812 86.165ZM30.5512 85.16C31.1812 85.16 31.6812 85.04 32.0512 84.8C32.4212 84.55 32.6062 84.15 32.6062 83.6C32.6062 83.06 32.4112 82.67 32.0212 82.43C31.6412 82.19 31.1662 82.07 30.5962 82.07C30.2962 82.07 29.9912 82.085 29.6812 82.115C29.3812 82.145 29.1212 82.195 28.9012 82.265V85.01C29.0312 85.04 29.2462 85.075 29.5462 85.115C29.8562 85.145 30.1912 85.16 30.5512 85.16Z" fill="black"/>
</g>
</svg>
