<svg width="56" height="56" viewBox="0 0 56 56" fill="none" xmlns="http://www.w3.org/2000/svg">
<g filter="url(#filter0_dd_1504_2637)">
<path d="M28 8.5C29.8704 8.5 31.2482 8.50053 32.3428 8.5752C33.433 8.64958 34.2061 8.79625 34.8701 9.07129C36.7077 9.83249 38.1675 11.2923 38.9287 13.1299C39.2038 13.7939 39.3504 14.567 39.4248 15.6572C39.4995 16.7518 39.5 18.1296 39.5 20C39.5 21.8704 39.4995 23.2482 39.4248 24.3428C39.3504 25.433 39.2038 26.2061 38.9287 26.8701C38.1675 28.7077 36.7077 30.1675 34.8701 30.9287C34.2061 31.2038 33.433 31.3504 32.3428 31.4248C31.2482 31.4995 29.8704 31.5 28 31.5C26.1296 31.5 24.7518 31.4995 23.6572 31.4248C22.567 31.3504 21.7939 31.2038 21.1299 30.9287C19.2923 30.1675 17.8325 28.7077 17.0713 26.8701C16.7962 26.2061 16.6496 25.433 16.5752 24.3428C16.5005 23.2482 16.5 21.8704 16.5 20C16.5 18.1296 16.5005 16.7518 16.5752 15.6572C16.6496 14.567 16.7962 13.7939 17.0713 13.1299C17.8325 11.2923 19.2923 9.83249 21.1299 9.07129C21.7939 8.79625 22.567 8.64958 23.6572 8.5752C24.7518 8.50053 26.1296 8.5 28 8.5Z" fill="#FF8401"/>
<path d="M28 8.5C29.8704 8.5 31.2482 8.50053 32.3428 8.5752C33.433 8.64958 34.2061 8.79625 34.8701 9.07129C36.7077 9.83249 38.1675 11.2923 38.9287 13.1299C39.2038 13.7939 39.3504 14.567 39.4248 15.6572C39.4995 16.7518 39.5 18.1296 39.5 20C39.5 21.8704 39.4995 23.2482 39.4248 24.3428C39.3504 25.433 39.2038 26.2061 38.9287 26.8701C38.1675 28.7077 36.7077 30.1675 34.8701 30.9287C34.2061 31.2038 33.433 31.3504 32.3428 31.4248C31.2482 31.4995 29.8704 31.5 28 31.5C26.1296 31.5 24.7518 31.4995 23.6572 31.4248C22.567 31.3504 21.7939 31.2038 21.1299 30.9287C19.2923 30.1675 17.8325 28.7077 17.0713 26.8701C16.7962 26.2061 16.6496 25.433 16.5752 24.3428C16.5005 23.2482 16.5 21.8704 16.5 20C16.5 18.1296 16.5005 16.7518 16.5752 15.6572C16.6496 14.567 16.7962 13.7939 17.0713 13.1299C17.8325 11.2923 19.2923 9.83249 21.1299 9.07129C21.7939 8.79625 22.567 8.64958 23.6572 8.5752C24.7518 8.50053 26.1296 8.5 28 8.5Z" stroke="#CC5F01"/>
<g filter="url(#filter1_dd_1504_2637)">
<path d="M22.3337 25V15.298H24.0697V19.526C24.2937 19.19 24.513 18.84 24.7277 18.476C24.9423 18.1027 25.1523 17.734 25.3577 17.37C25.563 16.9967 25.7543 16.6373 25.9317 16.292C26.109 15.9373 26.2723 15.606 26.4217 15.298H28.1717C28.0037 15.6527 27.817 16.026 27.6117 16.418C27.4063 16.8007 27.1917 17.1927 26.9677 17.594C26.753 17.9953 26.529 18.3967 26.2957 18.798C26.0623 19.1993 25.8243 19.5913 25.5817 19.974C25.8523 20.282 26.1183 20.632 26.3797 21.024C26.6503 21.4067 26.9117 21.8173 27.1637 22.256C27.4157 22.6947 27.6537 23.1473 27.8777 23.614C28.1017 24.0713 28.3023 24.5333 28.4797 25H26.6177C26.4777 24.608 26.3143 24.2113 26.1277 23.81C25.941 23.3993 25.7357 23.0073 25.5117 22.634C25.2877 22.2513 25.0543 21.9013 24.8117 21.584C24.569 21.2573 24.3217 20.9773 24.0697 20.744V25H22.3337ZM30.7386 25V16.768H28.6806V15.298H34.5606V16.768H32.4886V25H30.7386Z" fill="white"/>
</g>
</g>
<defs>
<filter id="filter0_dd_1504_2637" x="0" y="0" width="56" height="56" filterUnits="userSpaceOnUse" color-interpolation-filters="sRGB">
<feFlood flood-opacity="0" result="BackgroundImageFix"/>
<feColorMatrix in="SourceAlpha" type="matrix" values="0 0 0 0 0 0 0 0 0 0 0 0 0 0 0 0 0 0 127 0" result="hardAlpha"/>
<feOffset dy="8"/>
<feGaussianBlur stdDeviation="8"/>
<feColorMatrix type="matrix" values="0 0 0 0 0 0 0 0 0 0 0 0 0 0 0 0 0 0 0.08 0"/>
<feBlend mode="normal" in2="BackgroundImageFix" result="effect1_dropShadow_1504_2637"/>
<feColorMatrix in="SourceAlpha" type="matrix" values="0 0 0 0 0 0 0 0 0 0 0 0 0 0 0 0 0 0 127 0" result="hardAlpha"/>
<feOffset/>
<feGaussianBlur stdDeviation="2"/>
<feColorMatrix type="matrix" values="0 0 0 0 0 0 0 0 0 0 0 0 0 0 0 0 0 0 0.04 0"/>
<feBlend mode="normal" in2="effect1_dropShadow_1504_2637" result="effect2_dropShadow_1504_2637"/>
<feBlend mode="normal" in="SourceGraphic" in2="effect2_dropShadow_1504_2637" result="shape"/>
</filter>
<filter id="filter1_dd_1504_2637" x="16.334" y="9.298" width="24.2266" height="21.702" filterUnits="userSpaceOnUse" color-interpolation-filters="sRGB">
<feFlood flood-opacity="0" result="BackgroundImageFix"/>
<feColorMatrix in="SourceAlpha" type="matrix" values="0 0 0 0 0 0 0 0 0 0 0 0 0 0 0 0 0 0 127 0" result="hardAlpha"/>
<feOffset dy="2"/>
<feGaussianBlur stdDeviation="2"/>
<feColorMatrix type="matrix" values="0 0 0 0 0 0 0 0 0 0 0 0 0 0 0 0 0 0 0.08 0"/>
<feBlend mode="normal" in2="BackgroundImageFix" result="effect1_dropShadow_1504_2637"/>
<feColorMatrix in="SourceAlpha" type="matrix" values="0 0 0 0 0 0 0 0 0 0 0 0 0 0 0 0 0 0 127 0" result="hardAlpha"/>
<feOffset/>
<feGaussianBlur stdDeviation="3"/>
<feColorMatrix type="matrix" values="0 0 0 0 0 0 0 0 0 0 0 0 0 0 0 0 0 0 0.02 0"/>
<feBlend mode="normal" in2="effect1_dropShadow_1504_2637" result="effect2_dropShadow_1504_2637"/>
<feBlend mode="normal" in="SourceGraphic" in2="effect2_dropShadow_1504_2637" result="shape"/>
</filter>
</defs>
</svg>
