<svg width="62" height="62" viewBox="0 0 62 62" fill="none" xmlns="http://www.w3.org/2000/svg">
<g filter="url(#filter0_dd_1504_2642)">
<path d="M31 9.5C32.8432 9.5 34.3009 9.49967 35.4795 9.58008C36.6714 9.66141 37.6875 9.82987 38.6357 10.2227C40.9635 11.1868 42.8132 13.0365 43.7773 15.3643C44.1701 16.3125 44.3386 17.3286 44.4199 18.5205C44.5003 19.6991 44.5 21.1568 44.5 23C44.5 24.8432 44.5003 26.3009 44.4199 27.4795C44.3386 28.6714 44.1701 29.6875 43.7773 30.6357C42.8132 32.9635 40.9635 34.8132 38.6357 35.7773C37.6875 36.1701 36.6714 36.3386 35.4795 36.4199C34.3009 36.5003 32.8432 36.5 31 36.5C29.1568 36.5 27.6991 36.5003 26.5205 36.4199C25.3286 36.3386 24.3125 36.1701 23.3643 35.7773C21.0365 34.8132 19.1868 32.9635 18.2227 30.6357C17.8299 29.6875 17.6614 28.6714 17.5801 27.4795C17.4997 26.3009 17.5 24.8432 17.5 23C17.5 21.1568 17.4997 19.6991 17.5801 18.5205C17.6614 17.3286 17.8299 16.3125 18.2227 15.3643C19.1868 13.0365 21.0365 11.1868 23.3643 10.2227C24.3125 9.82987 25.3286 9.66141 26.5205 9.58008C27.6991 9.49967 29.1568 9.5 31 9.5Z" stroke="#F411A1" stroke-width="3"/>
<path d="M31 11.5C32.8704 11.5 34.2482 11.5005 35.3428 11.5752C36.433 11.6496 37.2061 11.7962 37.8701 12.0713C39.7077 12.8325 41.1675 14.2923 41.9287 16.1299C42.2038 16.7939 42.3504 17.567 42.4248 18.6572C42.4995 19.7518 42.5 21.1296 42.5 23C42.5 24.8704 42.4995 26.2482 42.4248 27.3428C42.3504 28.433 42.2038 29.2061 41.9287 29.8701C41.1675 31.7077 39.7077 33.1675 37.8701 33.9287C37.2061 34.2038 36.433 34.3504 35.3428 34.4248C34.2482 34.4995 32.8704 34.5 31 34.5C29.1296 34.5 27.7518 34.4995 26.6572 34.4248C25.567 34.3504 24.7939 34.2038 24.1299 33.9287C22.2923 33.1675 20.8325 31.7077 20.0713 29.8701C19.7962 29.2061 19.6496 28.433 19.5752 27.3428C19.5005 26.2482 19.5 24.8704 19.5 23C19.5 21.1296 19.5005 19.7518 19.5752 18.6572C19.6496 17.567 19.7962 16.7939 20.0713 16.1299C20.8325 14.2923 22.2923 12.8325 24.1299 12.0713C24.7939 11.7962 25.567 11.6496 26.6572 11.5752C27.7518 11.5005 29.1296 11.5 31 11.5Z" fill="white"/>
<path d="M31 11.5C32.8704 11.5 34.2482 11.5005 35.3428 11.5752C36.433 11.6496 37.2061 11.7962 37.8701 12.0713C39.7077 12.8325 41.1675 14.2923 41.9287 16.1299C42.2038 16.7939 42.3504 17.567 42.4248 18.6572C42.4995 19.7518 42.5 21.1296 42.5 23C42.5 24.8704 42.4995 26.2482 42.4248 27.3428C42.3504 28.433 42.2038 29.2061 41.9287 29.8701C41.1675 31.7077 39.7077 33.1675 37.8701 33.9287C37.2061 34.2038 36.433 34.3504 35.3428 34.4248C34.2482 34.4995 32.8704 34.5 31 34.5C29.1296 34.5 27.7518 34.4995 26.6572 34.4248C25.567 34.3504 24.7939 34.2038 24.1299 33.9287C22.2923 33.1675 20.8325 31.7077 20.0713 29.8701C19.7962 29.2061 19.6496 28.433 19.5752 27.3428C19.5005 26.2482 19.5 24.8704 19.5 23C19.5 21.1296 19.5005 19.7518 19.5752 18.6572C19.6496 17.567 19.7962 16.7939 20.0713 16.1299C20.8325 14.2923 22.2923 12.8325 24.1299 12.0713C24.7939 11.7962 25.567 11.6496 26.6572 11.5752C27.7518 11.5005 29.1296 11.5 31 11.5Z" stroke="#C20B77"/>
<path d="M24.527 28V18.298H26.263V22.526C26.487 22.19 26.7064 21.84 26.921 21.476C27.1357 21.1027 27.3457 20.734 27.551 20.37C27.7564 19.9967 27.9477 19.6373 28.125 19.292C28.3024 18.9373 28.4657 18.606 28.615 18.298H30.365C30.197 18.6527 30.0104 19.026 29.805 19.418C29.5997 19.8007 29.385 20.1927 29.161 20.594C28.9464 20.9953 28.7224 21.3967 28.489 21.798C28.2557 22.1993 28.0177 22.5913 27.775 22.974C28.0457 23.282 28.3117 23.632 28.573 24.024C28.8437 24.4067 29.105 24.8173 29.357 25.256C29.609 25.6947 29.847 26.1473 30.071 26.614C30.295 27.0713 30.4957 27.5333 30.673 28H28.811C28.671 27.608 28.5077 27.2113 28.321 26.81C28.1344 26.3993 27.929 26.0073 27.705 25.634C27.481 25.2513 27.2477 24.9013 27.005 24.584C26.7624 24.2573 26.515 23.9773 26.263 23.744V28H24.527ZM31.5509 28V18.298H37.4729V28H35.7369V19.768H33.2869V28H31.5509Z" fill="#0E1017"/>
</g>
<defs>
<filter id="filter0_dd_1504_2642" x="0" y="0" width="62" height="62" filterUnits="userSpaceOnUse" color-interpolation-filters="sRGB">
<feFlood flood-opacity="0" result="BackgroundImageFix"/>
<feColorMatrix in="SourceAlpha" type="matrix" values="0 0 0 0 0 0 0 0 0 0 0 0 0 0 0 0 0 0 127 0" result="hardAlpha"/>
<feOffset dy="8"/>
<feGaussianBlur stdDeviation="8"/>
<feColorMatrix type="matrix" values="0 0 0 0 0 0 0 0 0 0 0 0 0 0 0 0 0 0 0.08 0"/>
<feBlend mode="normal" in2="BackgroundImageFix" result="effect1_dropShadow_1504_2642"/>
<feColorMatrix in="SourceAlpha" type="matrix" values="0 0 0 0 0 0 0 0 0 0 0 0 0 0 0 0 0 0 127 0" result="hardAlpha"/>
<feOffset/>
<feGaussianBlur stdDeviation="2"/>
<feColorMatrix type="matrix" values="0 0 0 0 0 0 0 0 0 0 0 0 0 0 0 0 0 0 0.04 0"/>
<feBlend mode="normal" in2="effect1_dropShadow_1504_2642" result="effect2_dropShadow_1504_2642"/>
<feBlend mode="normal" in="SourceGraphic" in2="effect2_dropShadow_1504_2642" result="shape"/>
</filter>
</defs>
</svg>
