<svg width="56" height="56" viewBox="0 0 56 56" fill="none" xmlns="http://www.w3.org/2000/svg">
<g filter="url(#filter0_dd_1504_2645)">
<path d="M28 8.5C29.8704 8.5 31.2482 8.50053 32.3428 8.5752C33.433 8.64958 34.2061 8.79625 34.8701 9.07129C36.7077 9.83249 38.1675 11.2923 38.9287 13.1299C39.2038 13.7939 39.3504 14.567 39.4248 15.6572C39.4995 16.7518 39.5 18.1296 39.5 20C39.5 21.8704 39.4995 23.2482 39.4248 24.3428C39.3504 25.433 39.2038 26.2061 38.9287 26.8701C38.1675 28.7077 36.7077 30.1675 34.8701 30.9287C34.2061 31.2038 33.433 31.3504 32.3428 31.4248C31.2482 31.4995 29.8704 31.5 28 31.5C26.1296 31.5 24.7518 31.4995 23.6572 31.4248C22.567 31.3504 21.7939 31.2038 21.1299 30.9287C19.2923 30.1675 17.8325 28.7077 17.0713 26.8701C16.7962 26.2061 16.6496 25.433 16.5752 24.3428C16.5005 23.2482 16.5 21.8704 16.5 20C16.5 18.1296 16.5005 16.7518 16.5752 15.6572C16.6496 14.567 16.7962 13.7939 17.0713 13.1299C17.8325 11.2923 19.2923 9.83249 21.1299 9.07129C21.7939 8.79625 22.567 8.64958 23.6572 8.5752C24.7518 8.50053 26.1296 8.5 28 8.5Z" fill="#F411A1"/>
<path d="M28 8.5C29.8704 8.5 31.2482 8.50053 32.3428 8.5752C33.433 8.64958 34.2061 8.79625 34.8701 9.07129C36.7077 9.83249 38.1675 11.2923 38.9287 13.1299C39.2038 13.7939 39.3504 14.567 39.4248 15.6572C39.4995 16.7518 39.5 18.1296 39.5 20C39.5 21.8704 39.4995 23.2482 39.4248 24.3428C39.3504 25.433 39.2038 26.2061 38.9287 26.8701C38.1675 28.7077 36.7077 30.1675 34.8701 30.9287C34.2061 31.2038 33.433 31.3504 32.3428 31.4248C31.2482 31.4995 29.8704 31.5 28 31.5C26.1296 31.5 24.7518 31.4995 23.6572 31.4248C22.567 31.3504 21.7939 31.2038 21.1299 30.9287C19.2923 30.1675 17.8325 28.7077 17.0713 26.8701C16.7962 26.2061 16.6496 25.433 16.5752 24.3428C16.5005 23.2482 16.5 21.8704 16.5 20C16.5 18.1296 16.5005 16.7518 16.5752 15.6572C16.6496 14.567 16.7962 13.7939 17.0713 13.1299C17.8325 11.2923 19.2923 9.83249 21.1299 9.07129C21.7939 8.79625 22.567 8.64958 23.6572 8.5752C24.7518 8.50053 26.1296 8.5 28 8.5Z" stroke="#C20B77"/>
<g filter="url(#filter1_dd_1504_2645)">
<path d="M21.527 25V15.298H23.263V19.526C23.487 19.19 23.7064 18.84 23.921 18.476C24.1357 18.1027 24.3457 17.734 24.551 17.37C24.7564 16.9967 24.9477 16.6373 25.125 16.292C25.3024 15.9373 25.4657 15.606 25.615 15.298H27.365C27.197 15.6527 27.0104 16.026 26.805 16.418C26.5997 16.8007 26.385 17.1927 26.161 17.594C25.9464 17.9953 25.7224 18.3967 25.489 18.798C25.2557 19.1993 25.0177 19.5913 24.775 19.974C25.0457 20.282 25.3117 20.632 25.573 21.024C25.8437 21.4067 26.105 21.8173 26.357 22.256C26.609 22.6947 26.847 23.1473 27.071 23.614C27.295 24.0713 27.4957 24.5333 27.673 25H25.811C25.671 24.608 25.5077 24.2113 25.321 23.81C25.1344 23.3993 24.929 23.0073 24.705 22.634C24.481 22.2513 24.2477 21.9013 24.005 21.584C23.7624 21.2573 23.515 20.9773 23.263 20.744V25H21.527ZM28.5509 25V15.298H34.4729V25H32.7369V16.768H30.2869V25H28.5509Z" fill="white"/>
</g>
</g>
<defs>
<filter id="filter0_dd_1504_2645" x="0" y="0" width="56" height="56" filterUnits="userSpaceOnUse" color-interpolation-filters="sRGB">
<feFlood flood-opacity="0" result="BackgroundImageFix"/>
<feColorMatrix in="SourceAlpha" type="matrix" values="0 0 0 0 0 0 0 0 0 0 0 0 0 0 0 0 0 0 127 0" result="hardAlpha"/>
<feOffset dy="8"/>
<feGaussianBlur stdDeviation="8"/>
<feColorMatrix type="matrix" values="0 0 0 0 0 0 0 0 0 0 0 0 0 0 0 0 0 0 0.08 0"/>
<feBlend mode="normal" in2="BackgroundImageFix" result="effect1_dropShadow_1504_2645"/>
<feColorMatrix in="SourceAlpha" type="matrix" values="0 0 0 0 0 0 0 0 0 0 0 0 0 0 0 0 0 0 127 0" result="hardAlpha"/>
<feOffset/>
<feGaussianBlur stdDeviation="2"/>
<feColorMatrix type="matrix" values="0 0 0 0 0 0 0 0 0 0 0 0 0 0 0 0 0 0 0.04 0"/>
<feBlend mode="normal" in2="effect1_dropShadow_1504_2645" result="effect2_dropShadow_1504_2645"/>
<feBlend mode="normal" in="SourceGraphic" in2="effect2_dropShadow_1504_2645" result="shape"/>
</filter>
<filter id="filter1_dd_1504_2645" x="15.5273" y="9.298" width="24.9453" height="21.702" filterUnits="userSpaceOnUse" color-interpolation-filters="sRGB">
<feFlood flood-opacity="0" result="BackgroundImageFix"/>
<feColorMatrix in="SourceAlpha" type="matrix" values="0 0 0 0 0 0 0 0 0 0 0 0 0 0 0 0 0 0 127 0" result="hardAlpha"/>
<feOffset dy="2"/>
<feGaussianBlur stdDeviation="2"/>
<feColorMatrix type="matrix" values="0 0 0 0 0 0 0 0 0 0 0 0 0 0 0 0 0 0 0.08 0"/>
<feBlend mode="normal" in2="BackgroundImageFix" result="effect1_dropShadow_1504_2645"/>
<feColorMatrix in="SourceAlpha" type="matrix" values="0 0 0 0 0 0 0 0 0 0 0 0 0 0 0 0 0 0 127 0" result="hardAlpha"/>
<feOffset/>
<feGaussianBlur stdDeviation="3"/>
<feColorMatrix type="matrix" values="0 0 0 0 0 0 0 0 0 0 0 0 0 0 0 0 0 0 0.02 0"/>
<feBlend mode="normal" in2="effect1_dropShadow_1504_2645" result="effect2_dropShadow_1504_2645"/>
<feBlend mode="normal" in="SourceGraphic" in2="effect2_dropShadow_1504_2645" result="shape"/>
</filter>
</defs>
</svg>
