<svg width="70" height="56" viewBox="0 0 70 56" fill="none" xmlns="http://www.w3.org/2000/svg">
<g filter="url(#filter0_dd_1504_2638)">
<path d="M28 8.5H42C43.8704 8.5 45.2482 8.50053 46.3428 8.5752C47.433 8.64958 48.2061 8.79625 48.8701 9.07129C50.7077 9.83249 52.1675 11.2923 52.9287 13.1299C53.2038 13.7939 53.3504 14.567 53.4248 15.6572C53.4995 16.7518 53.5 18.1296 53.5 20C53.5 21.8704 53.4995 23.2482 53.4248 24.3428C53.3504 25.433 53.2038 26.2061 52.9287 26.8701C52.1675 28.7077 50.7077 30.1675 48.8701 30.9287C48.2061 31.2038 47.433 31.3504 46.3428 31.4248C45.2482 31.4995 43.8704 31.5 42 31.5H28C26.1296 31.5 24.7518 31.4995 23.6572 31.4248C22.567 31.3504 21.7939 31.2038 21.1299 30.9287C19.2923 30.1675 17.8325 28.7077 17.0713 26.8701C16.7962 26.2061 16.6496 25.433 16.5752 24.3428C16.5005 23.2482 16.5 21.8704 16.5 20C16.5 18.1296 16.5005 16.7518 16.5752 15.6572C16.6496 14.567 16.7962 13.7939 17.0713 13.1299C17.8325 11.2923 19.2923 9.83249 21.1299 9.07129C21.7939 8.79625 22.567 8.64958 23.6572 8.5752C24.7518 8.50053 26.1296 8.5 28 8.5Z" fill="#FF474A"/>
<path d="M28 8.5H42C43.8704 8.5 45.2482 8.50053 46.3428 8.5752C47.433 8.64958 48.2061 8.79625 48.8701 9.07129C50.7077 9.83249 52.1675 11.2923 52.9287 13.1299C53.2038 13.7939 53.3504 14.567 53.4248 15.6572C53.4995 16.7518 53.5 18.1296 53.5 20C53.5 21.8704 53.4995 23.2482 53.4248 24.3428C53.3504 25.433 53.2038 26.2061 52.9287 26.8701C52.1675 28.7077 50.7077 30.1675 48.8701 30.9287C48.2061 31.2038 47.433 31.3504 46.3428 31.4248C45.2482 31.4995 43.8704 31.5 42 31.5H28C26.1296 31.5 24.7518 31.4995 23.6572 31.4248C22.567 31.3504 21.7939 31.2038 21.1299 30.9287C19.2923 30.1675 17.8325 28.7077 17.0713 26.8701C16.7962 26.2061 16.6496 25.433 16.5752 24.3428C16.5005 23.2482 16.5 21.8704 16.5 20C16.5 18.1296 16.5005 16.7518 16.5752 15.6572C16.6496 14.567 16.7962 13.7939 17.0713 13.1299C17.8325 11.2923 19.2923 9.83249 21.1299 9.07129C21.7939 8.79625 22.567 8.64958 23.6572 8.5752C24.7518 8.50053 26.1296 8.5 28 8.5Z" stroke="#CC3133"/>
<g filter="url(#filter1_dd_1504_2638)">
<path d="M20.2382 25C20.4342 23.9733 20.6628 22.928 20.9242 21.864C21.1855 20.8 21.4702 19.7173 21.7782 18.616C22.0862 17.5147 22.4128 16.4087 22.7582 15.298H24.5222C24.7835 16.138 25.0355 16.9733 25.2782 17.804C25.5208 18.6253 25.7495 19.442 25.9642 20.254C26.1788 21.066 26.3748 21.8687 26.5522 22.662C26.7388 23.446 26.9068 24.2253 27.0562 25H25.2362C25.1895 24.6733 25.1382 24.328 25.0822 23.964C25.0262 23.6 24.9608 23.222 24.8862 22.83H22.3662C22.2915 23.222 22.2215 23.6 22.1562 23.964C22.1002 24.3187 22.0488 24.664 22.0022 25H20.2382ZM22.6322 21.416H24.6062C24.5315 21.0707 24.4568 20.7207 24.3822 20.366C24.3075 20.0113 24.2282 19.6567 24.1442 19.302C24.0695 18.9473 23.9855 18.5927 23.8922 18.238C23.8082 17.8833 23.7195 17.5287 23.6262 17.174C23.5422 17.5193 23.4535 17.8693 23.3602 18.224C23.2762 18.5693 23.1922 18.9193 23.1082 19.274C23.0242 19.6287 22.9402 19.988 22.8562 20.352C22.7815 20.7067 22.7068 21.0613 22.6322 21.416ZM29.5479 25.196C29.1466 25.196 28.7453 25.1447 28.3439 25.042C27.9519 24.9487 27.5926 24.8133 27.2659 24.636L27.6719 23.306C27.8493 23.3993 28.0313 23.474 28.2179 23.53C28.4139 23.586 28.6099 23.6327 28.8059 23.67C29.0019 23.698 29.1979 23.712 29.3939 23.712C29.7113 23.712 29.9866 23.656 30.2199 23.544C30.4626 23.4227 30.6493 23.2547 30.7799 23.04C30.9199 22.816 30.9899 22.5407 30.9899 22.214C30.9899 21.8687 30.9153 21.5793 30.7659 21.346C30.6259 21.1033 30.4206 20.9213 30.1499 20.8C29.8793 20.6693 29.5526 20.604 29.1699 20.604H28.2879V19.19H29.1139C29.5059 19.19 29.8186 19.1387 30.0519 19.036C30.2853 18.924 30.4533 18.7653 30.5559 18.56C30.6586 18.3453 30.7099 18.0887 30.7099 17.79C30.7099 17.4353 30.5933 17.146 30.3599 16.922C30.1359 16.6887 29.8419 16.572 29.4779 16.572C29.1793 16.572 28.8946 16.6187 28.6239 16.712C28.3626 16.796 28.1246 16.9267 27.9099 17.104L27.4199 15.746C27.7373 15.522 28.0826 15.3587 28.4559 15.256C28.8293 15.1533 29.2399 15.102 29.6879 15.102C30.2386 15.102 30.7193 15.214 31.1299 15.438C31.5499 15.6527 31.8766 15.956 32.1099 16.348C32.3526 16.74 32.4739 17.1973 32.4739 17.72C32.4739 18.168 32.3666 18.5787 32.1519 18.952C31.9373 19.3253 31.6293 19.6147 31.2279 19.82C31.5639 19.9787 31.8486 20.1793 32.0819 20.422C32.3153 20.6553 32.4879 20.926 32.5999 21.234C32.7213 21.5327 32.7819 21.864 32.7819 22.228C32.7819 22.8533 32.6513 23.39 32.3899 23.838C32.1379 24.2767 31.7693 24.6127 31.2839 24.846C30.8079 25.0793 30.2293 25.196 29.5479 25.196ZM37.4221 25.182C36.6101 25.182 35.9241 24.9907 35.3641 24.608C34.8041 24.2253 34.3794 23.6607 34.0901 22.914C33.8101 22.1673 33.6701 21.2433 33.6701 20.142C33.6701 19.302 33.7494 18.5693 33.9081 17.944C34.0667 17.3187 34.2954 16.796 34.5941 16.376C34.9021 15.956 35.2847 15.6433 35.7421 15.438C36.2087 15.2233 36.7501 15.116 37.3661 15.116C37.6274 15.116 37.8794 15.1347 38.1221 15.172C38.3741 15.2093 38.6074 15.2653 38.8221 15.34C39.0461 15.4053 39.2421 15.4893 39.4101 15.592L38.9061 17.048C38.7007 16.9173 38.4674 16.8147 38.2061 16.74C37.9447 16.6653 37.6647 16.628 37.3661 16.628C36.9181 16.628 36.5587 16.7447 36.2881 16.978C36.0174 17.2113 35.8214 17.5847 35.7001 18.098C35.5787 18.6113 35.5181 19.2927 35.5181 20.142C35.5181 20.9727 35.5881 21.6493 35.7281 22.172C35.8774 22.6853 36.1061 23.0633 36.4141 23.306C36.7221 23.5393 37.1234 23.656 37.6181 23.656C37.9074 23.656 38.1734 23.628 38.4161 23.572C38.6587 23.5067 38.8874 23.4133 39.1021 23.292L39.5641 24.692C39.3027 24.8507 38.9901 24.972 38.6261 25.056C38.2621 25.14 37.8607 25.182 37.4221 25.182ZM39.5509 21.556V20.03H42.5329V21.556H39.5509ZM43.612 25V15.298H45.348V19.526C45.572 19.19 45.7913 18.84 46.006 18.476C46.2207 18.1027 46.4307 17.734 46.636 17.37C46.8413 16.9967 47.0327 16.6373 47.21 16.292C47.3873 15.9373 47.5507 15.606 47.7 15.298H49.45C49.282 15.6527 49.0953 16.026 48.89 16.418C48.6847 16.8007 48.47 17.1927 48.246 17.594C48.0313 17.9953 47.8073 18.3967 47.574 18.798C47.3407 19.1993 47.1027 19.5913 46.86 19.974C47.1307 20.282 47.3967 20.632 47.658 21.024C47.9287 21.4067 48.19 21.8173 48.442 22.256C48.694 22.6947 48.932 23.1473 49.156 23.614C49.38 24.0713 49.5807 24.5333 49.758 25H47.896C47.756 24.608 47.5927 24.2113 47.406 23.81C47.2193 23.3993 47.014 23.0073 46.79 22.634C46.566 22.2513 46.3327 21.9013 46.09 21.584C45.8473 21.2573 45.6 20.9773 45.348 20.744V25H43.612Z" fill="white"/>
</g>
</g>
<defs>
<filter id="filter0_dd_1504_2638" x="0" y="0" width="70" height="56" filterUnits="userSpaceOnUse" color-interpolation-filters="sRGB">
<feFlood flood-opacity="0" result="BackgroundImageFix"/>
<feColorMatrix in="SourceAlpha" type="matrix" values="0 0 0 0 0 0 0 0 0 0 0 0 0 0 0 0 0 0 127 0" result="hardAlpha"/>
<feOffset dy="8"/>
<feGaussianBlur stdDeviation="8"/>
<feColorMatrix type="matrix" values="0 0 0 0 0 0 0 0 0 0 0 0 0 0 0 0 0 0 0.08 0"/>
<feBlend mode="normal" in2="BackgroundImageFix" result="effect1_dropShadow_1504_2638"/>
<feColorMatrix in="SourceAlpha" type="matrix" values="0 0 0 0 0 0 0 0 0 0 0 0 0 0 0 0 0 0 127 0" result="hardAlpha"/>
<feOffset/>
<feGaussianBlur stdDeviation="2"/>
<feColorMatrix type="matrix" values="0 0 0 0 0 0 0 0 0 0 0 0 0 0 0 0 0 0 0.04 0"/>
<feBlend mode="normal" in2="effect1_dropShadow_1504_2638" result="effect2_dropShadow_1504_2638"/>
<feBlend mode="normal" in="SourceGraphic" in2="effect2_dropShadow_1504_2638" result="shape"/>
</filter>
<filter id="filter1_dd_1504_2638" x="14.2383" y="9.10201" width="41.5195" height="22.094" filterUnits="userSpaceOnUse" color-interpolation-filters="sRGB">
<feFlood flood-opacity="0" result="BackgroundImageFix"/>
<feColorMatrix in="SourceAlpha" type="matrix" values="0 0 0 0 0 0 0 0 0 0 0 0 0 0 0 0 0 0 127 0" result="hardAlpha"/>
<feOffset dy="2"/>
<feGaussianBlur stdDeviation="2"/>
<feColorMatrix type="matrix" values="0 0 0 0 0 0 0 0 0 0 0 0 0 0 0 0 0 0 0.08 0"/>
<feBlend mode="normal" in2="BackgroundImageFix" result="effect1_dropShadow_1504_2638"/>
<feColorMatrix in="SourceAlpha" type="matrix" values="0 0 0 0 0 0 0 0 0 0 0 0 0 0 0 0 0 0 127 0" result="hardAlpha"/>
<feOffset/>
<feGaussianBlur stdDeviation="3"/>
<feColorMatrix type="matrix" values="0 0 0 0 0 0 0 0 0 0 0 0 0 0 0 0 0 0 0.02 0"/>
<feBlend mode="normal" in2="effect1_dropShadow_1504_2638" result="effect2_dropShadow_1504_2638"/>
<feBlend mode="normal" in="SourceGraphic" in2="effect2_dropShadow_1504_2638" result="shape"/>
</filter>
</defs>
</svg>
