<svg width="76" height="62" viewBox="0 0 76 62" fill="none" xmlns="http://www.w3.org/2000/svg">
<g filter="url(#filter0_dd_1504_2639)">
<path d="M45 9.5C46.8432 9.5 48.3009 9.49967 49.4795 9.58008C50.6713 9.6614 51.6866 9.83098 52.6348 10.2236L52.6357 10.2227C54.9635 11.1868 56.8132 13.0365 57.7773 15.3643C58.1701 16.3125 58.3386 17.3286 58.4199 18.5205C58.5003 19.6991 58.5 21.1568 58.5 23C58.5 24.8432 58.5003 26.3009 58.4199 27.4795C58.3386 28.6714 58.1701 29.6875 57.7773 30.6357C56.8132 32.9635 54.9635 34.8132 52.6357 35.7773C51.6875 36.1701 50.6714 36.3386 49.4795 36.4199C48.3009 36.5003 46.8432 36.5 45 36.5H31C29.1568 36.5 27.6991 36.5003 26.5205 36.4199C25.3286 36.3386 24.3125 36.1701 23.3643 35.7773C21.0365 34.8132 19.1868 32.9635 18.2227 30.6357C17.8299 29.6875 17.6614 28.6714 17.5801 27.4795C17.4997 26.3009 17.5 24.8432 17.5 23C17.5 21.1568 17.4997 19.6991 17.5801 18.5205C17.6614 17.3286 17.8299 16.3125 18.2227 15.3643C19.1868 13.0365 21.0365 11.1868 23.3643 10.2227C24.3125 9.82987 25.3286 9.66141 26.5205 9.58008C27.6991 9.49967 29.1568 9.5 31 9.5H45Z" stroke="#FF474A" stroke-width="3"/>
<path d="M31 11.5H45C46.8704 11.5 48.2482 11.5005 49.3428 11.5752C50.433 11.6496 51.2061 11.7962 51.8701 12.0713C53.7077 12.8325 55.1675 14.2923 55.9287 16.1299C56.2038 16.7939 56.3504 17.567 56.4248 18.6572C56.4995 19.7518 56.5 21.1296 56.5 23C56.5 24.8704 56.4995 26.2482 56.4248 27.3428C56.3504 28.433 56.2038 29.2061 55.9287 29.8701C55.1675 31.7077 53.7077 33.1675 51.8701 33.9287C51.2061 34.2038 50.433 34.3504 49.3428 34.4248C48.2482 34.4995 46.8704 34.5 45 34.5H31C29.1296 34.5 27.7518 34.4995 26.6572 34.4248C25.567 34.3504 24.7939 34.2038 24.1299 33.9287C22.2923 33.1675 20.8325 31.7077 20.0713 29.8701C19.7962 29.2061 19.6496 28.433 19.5752 27.3428C19.5005 26.2482 19.5 24.8704 19.5 23C19.5 21.1296 19.5005 19.7518 19.5752 18.6572C19.6496 17.567 19.7962 16.7939 20.0713 16.1299C20.8325 14.2923 22.2923 12.8325 24.1299 12.0713C24.7939 11.7962 25.567 11.6496 26.6572 11.5752C27.7518 11.5005 29.1296 11.5 31 11.5Z" fill="white"/>
<path d="M31 11.5H45C46.8704 11.5 48.2482 11.5005 49.3428 11.5752C50.433 11.6496 51.2061 11.7962 51.8701 12.0713C53.7077 12.8325 55.1675 14.2923 55.9287 16.1299C56.2038 16.7939 56.3504 17.567 56.4248 18.6572C56.4995 19.7518 56.5 21.1296 56.5 23C56.5 24.8704 56.4995 26.2482 56.4248 27.3428C56.3504 28.433 56.2038 29.2061 55.9287 29.8701C55.1675 31.7077 53.7077 33.1675 51.8701 33.9287C51.2061 34.2038 50.433 34.3504 49.3428 34.4248C48.2482 34.4995 46.8704 34.5 45 34.5H31C29.1296 34.5 27.7518 34.4995 26.6572 34.4248C25.567 34.3504 24.7939 34.2038 24.1299 33.9287C22.2923 33.1675 20.8325 31.7077 20.0713 29.8701C19.7962 29.2061 19.6496 28.433 19.5752 27.3428C19.5005 26.2482 19.5 24.8704 19.5 23C19.5 21.1296 19.5005 19.7518 19.5752 18.6572C19.6496 17.567 19.7962 16.7939 20.0713 16.1299C20.8325 14.2923 22.2923 12.8325 24.1299 12.0713C24.7939 11.7962 25.567 11.6496 26.6572 11.5752C27.7518 11.5005 29.1296 11.5 31 11.5Z" stroke="#CC3133"/>
<path d="M23.2382 28C23.4342 26.9733 23.6628 25.928 23.9242 24.864C24.1855 23.8 24.4702 22.7173 24.7782 21.616C25.0862 20.5147 25.4128 19.4087 25.7582 18.298H27.5222C27.7835 19.138 28.0355 19.9733 28.2782 20.804C28.5208 21.6253 28.7495 22.442 28.9642 23.254C29.1788 24.066 29.3748 24.8687 29.5522 25.662C29.7388 26.446 29.9068 27.2253 30.0562 28H28.2362C28.1895 27.6733 28.1382 27.328 28.0822 26.964C28.0262 26.6 27.9608 26.222 27.8862 25.83H25.3662C25.2915 26.222 25.2215 26.6 25.1562 26.964C25.1002 27.3187 25.0488 27.664 25.0022 28H23.2382ZM25.6322 24.416H27.6062C27.5315 24.0707 27.4568 23.7207 27.3822 23.366C27.3075 23.0113 27.2282 22.6567 27.1442 22.302C27.0695 21.9473 26.9855 21.5927 26.8922 21.238C26.8082 20.8833 26.7195 20.5287 26.6262 20.174C26.5422 20.5193 26.4535 20.8693 26.3602 21.224C26.2762 21.5693 26.1922 21.9193 26.1082 22.274C26.0242 22.6287 25.9402 22.988 25.8562 23.352C25.7815 23.7067 25.7068 24.0613 25.6322 24.416ZM32.5479 28.196C32.1466 28.196 31.7453 28.1447 31.3439 28.042C30.9519 27.9487 30.5926 27.8133 30.2659 27.636L30.6719 26.306C30.8493 26.3993 31.0313 26.474 31.2179 26.53C31.4139 26.586 31.6099 26.6327 31.8059 26.67C32.0019 26.698 32.1979 26.712 32.3939 26.712C32.7113 26.712 32.9866 26.656 33.2199 26.544C33.4626 26.4227 33.6493 26.2547 33.7799 26.04C33.9199 25.816 33.9899 25.5407 33.9899 25.214C33.9899 24.8687 33.9153 24.5793 33.7659 24.346C33.6259 24.1033 33.4206 23.9213 33.1499 23.8C32.8793 23.6693 32.5526 23.604 32.1699 23.604H31.2879V22.19H32.1139C32.5059 22.19 32.8186 22.1387 33.0519 22.036C33.2853 21.924 33.4533 21.7653 33.5559 21.56C33.6586 21.3453 33.7099 21.0887 33.7099 20.79C33.7099 20.4353 33.5933 20.146 33.3599 19.922C33.1359 19.6887 32.8419 19.572 32.4779 19.572C32.1793 19.572 31.8946 19.6187 31.6239 19.712C31.3626 19.796 31.1246 19.9267 30.9099 20.104L30.4199 18.746C30.7373 18.522 31.0826 18.3587 31.4559 18.256C31.8293 18.1533 32.2399 18.102 32.6879 18.102C33.2386 18.102 33.7193 18.214 34.1299 18.438C34.5499 18.6527 34.8766 18.956 35.1099 19.348C35.3526 19.74 35.4739 20.1973 35.4739 20.72C35.4739 21.168 35.3666 21.5787 35.1519 21.952C34.9373 22.3253 34.6293 22.6147 34.2279 22.82C34.5639 22.9787 34.8486 23.1793 35.0819 23.422C35.3153 23.6553 35.4879 23.926 35.5999 24.234C35.7213 24.5327 35.7819 24.864 35.7819 25.228C35.7819 25.8533 35.6513 26.39 35.3899 26.838C35.1379 27.2767 34.7693 27.6127 34.2839 27.846C33.8079 28.0793 33.2293 28.196 32.5479 28.196ZM40.4221 28.182C39.6101 28.182 38.9241 27.9907 38.3641 27.608C37.8041 27.2253 37.3794 26.6607 37.0901 25.914C36.8101 25.1673 36.6701 24.2433 36.6701 23.142C36.6701 22.302 36.7494 21.5693 36.9081 20.944C37.0667 20.3187 37.2954 19.796 37.5941 19.376C37.9021 18.956 38.2847 18.6433 38.7421 18.438C39.2087 18.2233 39.7501 18.116 40.3661 18.116C40.6274 18.116 40.8794 18.1347 41.1221 18.172C41.3741 18.2093 41.6074 18.2653 41.8221 18.34C42.0461 18.4053 42.2421 18.4893 42.4101 18.592L41.9061 20.048C41.7007 19.9173 41.4674 19.8147 41.2061 19.74C40.9447 19.6653 40.6647 19.628 40.3661 19.628C39.9181 19.628 39.5587 19.7447 39.2881 19.978C39.0174 20.2113 38.8214 20.5847 38.7001 21.098C38.5787 21.6113 38.5181 22.2927 38.5181 23.142C38.5181 23.9727 38.5881 24.6493 38.7281 25.172C38.8774 25.6853 39.1061 26.0633 39.4141 26.306C39.7221 26.5393 40.1234 26.656 40.6181 26.656C40.9074 26.656 41.1734 26.628 41.4161 26.572C41.6587 26.5067 41.8874 26.4133 42.1021 26.292L42.5641 27.692C42.3027 27.8507 41.9901 27.972 41.6261 28.056C41.2621 28.14 40.8607 28.182 40.4221 28.182ZM42.5509 24.556V23.03H45.5329V24.556H42.5509ZM46.612 28V18.298H48.348V22.526C48.572 22.19 48.7913 21.84 49.006 21.476C49.2207 21.1027 49.4307 20.734 49.636 20.37C49.8413 19.9967 50.0327 19.6373 50.21 19.292C50.3873 18.9373 50.5507 18.606 50.7 18.298H52.45C52.282 18.6527 52.0953 19.026 51.89 19.418C51.6847 19.8007 51.47 20.1927 51.246 20.594C51.0313 20.9953 50.8073 21.3967 50.574 21.798C50.3407 22.1993 50.1027 22.5913 49.86 22.974C50.1307 23.282 50.3967 23.632 50.658 24.024C50.9287 24.4067 51.19 24.8173 51.442 25.256C51.694 25.6947 51.932 26.1473 52.156 26.614C52.38 27.0713 52.5807 27.5333 52.758 28H50.896C50.756 27.608 50.5927 27.2113 50.406 26.81C50.2193 26.3993 50.014 26.0073 49.79 25.634C49.566 25.2513 49.3327 24.9013 49.09 24.584C48.8473 24.2573 48.6 23.9773 48.348 23.744V28H46.612Z" fill="#0E1017"/>
</g>
<defs>
<filter id="filter0_dd_1504_2639" x="0" y="0" width="76" height="62" filterUnits="userSpaceOnUse" color-interpolation-filters="sRGB">
<feFlood flood-opacity="0" result="BackgroundImageFix"/>
<feColorMatrix in="SourceAlpha" type="matrix" values="0 0 0 0 0 0 0 0 0 0 0 0 0 0 0 0 0 0 127 0" result="hardAlpha"/>
<feOffset dy="8"/>
<feGaussianBlur stdDeviation="8"/>
<feColorMatrix type="matrix" values="0 0 0 0 0 0 0 0 0 0 0 0 0 0 0 0 0 0 0.08 0"/>
<feBlend mode="normal" in2="BackgroundImageFix" result="effect1_dropShadow_1504_2639"/>
<feColorMatrix in="SourceAlpha" type="matrix" values="0 0 0 0 0 0 0 0 0 0 0 0 0 0 0 0 0 0 127 0" result="hardAlpha"/>
<feOffset/>
<feGaussianBlur stdDeviation="2"/>
<feColorMatrix type="matrix" values="0 0 0 0 0 0 0 0 0 0 0 0 0 0 0 0 0 0 0.04 0"/>
<feBlend mode="normal" in2="effect1_dropShadow_1504_2639" result="effect2_dropShadow_1504_2639"/>
<feBlend mode="normal" in="SourceGraphic" in2="effect2_dropShadow_1504_2639" result="shape"/>
</filter>
</defs>
</svg>
