<svg width="60" height="56" viewBox="0 0 60 56" fill="none" xmlns="http://www.w3.org/2000/svg">
<g filter="url(#filter0_dd_1504_2647)">
<path d="M28 8.5H32C33.8704 8.5 35.2482 8.50053 36.3428 8.5752C37.433 8.64958 38.2061 8.79625 38.8701 9.07129C40.7077 9.83249 42.1675 11.2923 42.9287 13.1299C43.2038 13.7939 43.3504 14.567 43.4248 15.6572C43.4995 16.7518 43.5 18.1296 43.5 20C43.5 21.8704 43.4995 23.2482 43.4248 24.3428C43.3504 25.433 43.2038 26.2061 42.9287 26.8701C42.1675 28.7077 40.7077 30.1675 38.8701 30.9287C38.2061 31.2038 37.433 31.3504 36.3428 31.4248C35.2482 31.4995 33.8704 31.5 32 31.5H28C26.1296 31.5 24.7518 31.4995 23.6572 31.4248C22.567 31.3504 21.7939 31.2038 21.1299 30.9287C19.2923 30.1675 17.8325 28.7077 17.0713 26.8701C16.7962 26.2061 16.6496 25.433 16.5752 24.3428C16.5005 23.2482 16.5 21.8704 16.5 20C16.5 18.1296 16.5005 16.7518 16.5752 15.6572C16.6496 14.567 16.7962 13.7939 17.0713 13.1299C17.8325 11.2923 19.2923 9.83249 21.1299 9.07129C21.7939 8.79625 22.567 8.64958 23.6572 8.5752C24.7518 8.50053 26.1296 8.5 28 8.5Z" fill="#00A51E"/>
<path d="M28 8.5H32C33.8704 8.5 35.2482 8.50053 36.3428 8.5752C37.433 8.64958 38.2061 8.79625 38.8701 9.07129C40.7077 9.83249 42.1675 11.2923 42.9287 13.1299C43.2038 13.7939 43.3504 14.567 43.4248 15.6572C43.4995 16.7518 43.5 18.1296 43.5 20C43.5 21.8704 43.4995 23.2482 43.4248 24.3428C43.3504 25.433 43.2038 26.2061 42.9287 26.8701C42.1675 28.7077 40.7077 30.1675 38.8701 30.9287C38.2061 31.2038 37.433 31.3504 36.3428 31.4248C35.2482 31.4995 33.8704 31.5 32 31.5H28C26.1296 31.5 24.7518 31.4995 23.6572 31.4248C22.567 31.3504 21.7939 31.2038 21.1299 30.9287C19.2923 30.1675 17.8325 28.7077 17.0713 26.8701C16.7962 26.2061 16.6496 25.433 16.5752 24.3428C16.5005 23.2482 16.5 21.8704 16.5 20C16.5 18.1296 16.5005 16.7518 16.5752 15.6572C16.6496 14.567 16.7962 13.7939 17.0713 13.1299C17.8325 11.2923 19.2923 9.83249 21.1299 9.07129C21.7939 8.79625 22.567 8.64958 23.6572 8.5752C24.7518 8.50053 26.1296 8.5 28 8.5Z" stroke="#007A14"/>
<g filter="url(#filter1_dd_1504_2647)">
<path d="M20.3274 25C20.5234 23.9733 20.7521 22.928 21.0134 21.864C21.2748 20.8 21.5594 19.7173 21.8674 18.616C22.1754 17.5147 22.5021 16.4087 22.8474 15.298H24.6114C24.8728 16.138 25.1248 16.9733 25.3674 17.804C25.6101 18.6253 25.8388 19.442 26.0534 20.254C26.2681 21.066 26.4641 21.8687 26.6414 22.662C26.8281 23.446 26.9961 24.2253 27.1454 25H25.3254C25.2788 24.6733 25.2274 24.328 25.1714 23.964C25.1154 23.6 25.0501 23.222 24.9754 22.83H22.4554C22.3808 23.222 22.3108 23.6 22.2454 23.964C22.1894 24.3187 22.1381 24.664 22.0914 25H20.3274ZM22.7214 21.416H24.6954C24.6208 21.0707 24.5461 20.7207 24.4714 20.366C24.3968 20.0113 24.3174 19.6567 24.2334 19.302C24.1588 18.9473 24.0748 18.5927 23.9814 18.238C23.8974 17.8833 23.8088 17.5287 23.7154 17.174C23.6314 17.5193 23.5428 17.8693 23.4494 18.224C23.3654 18.5693 23.2814 18.9193 23.1974 19.274C23.1134 19.6287 23.0294 19.988 22.9454 20.352C22.8708 20.7067 22.7961 21.0613 22.7214 21.416ZM29.6372 25.196C29.2359 25.196 28.8345 25.1447 28.4332 25.042C28.0412 24.9487 27.6819 24.8133 27.3552 24.636L27.7612 23.306C27.9385 23.3993 28.1205 23.474 28.3072 23.53C28.5032 23.586 28.6992 23.6327 28.8952 23.67C29.0912 23.698 29.2872 23.712 29.4832 23.712C29.8005 23.712 30.0759 23.656 30.3092 23.544C30.5519 23.4227 30.7385 23.2547 30.8692 23.04C31.0092 22.816 31.0792 22.5407 31.0792 22.214C31.0792 21.8687 31.0045 21.5793 30.8552 21.346C30.7152 21.1033 30.5099 20.9213 30.2392 20.8C29.9685 20.6693 29.6419 20.604 29.2592 20.604H28.3772V19.19H29.2032C29.5952 19.19 29.9079 19.1387 30.1412 19.036C30.3745 18.924 30.5425 18.7653 30.6452 18.56C30.7479 18.3453 30.7992 18.0887 30.7992 17.79C30.7992 17.4353 30.6825 17.146 30.4492 16.922C30.2252 16.6887 29.9312 16.572 29.5672 16.572C29.2685 16.572 28.9839 16.6187 28.7132 16.712C28.4519 16.796 28.2139 16.9267 27.9992 17.104L27.5092 15.746C27.8265 15.522 28.1719 15.3587 28.5452 15.256C28.9185 15.1533 29.3292 15.102 29.7772 15.102C30.3279 15.102 30.8085 15.214 31.2192 15.438C31.6392 15.6527 31.9659 15.956 32.1992 16.348C32.4419 16.74 32.5632 17.1973 32.5632 17.72C32.5632 18.168 32.4559 18.5787 32.2412 18.952C32.0265 19.3253 31.7185 19.6147 31.3172 19.82C31.6532 19.9787 31.9379 20.1793 32.1712 20.422C32.4045 20.6553 32.5772 20.926 32.6892 21.234C32.8105 21.5327 32.8712 21.864 32.8712 22.228C32.8712 22.8533 32.7405 23.39 32.4792 23.838C32.2272 24.2767 31.8585 24.6127 31.3732 24.846C30.8972 25.0793 30.3185 25.196 29.6372 25.196ZM37.5113 25.182C36.6993 25.182 36.0133 24.9907 35.4533 24.608C34.8933 24.2253 34.4686 23.6607 34.1793 22.914C33.8993 22.1673 33.7593 21.2433 33.7593 20.142C33.7593 19.302 33.8386 18.5693 33.9973 17.944C34.156 17.3187 34.3846 16.796 34.6833 16.376C34.9913 15.956 35.374 15.6433 35.8313 15.438C36.298 15.2233 36.8393 15.116 37.4553 15.116C37.7166 15.116 37.9686 15.1347 38.2113 15.172C38.4633 15.2093 38.6966 15.2653 38.9113 15.34C39.1353 15.4053 39.3313 15.4893 39.4993 15.592L38.9953 17.048C38.79 16.9173 38.5566 16.8147 38.2953 16.74C38.034 16.6653 37.754 16.628 37.4553 16.628C37.0073 16.628 36.648 16.7447 36.3773 16.978C36.1066 17.2113 35.9106 17.5847 35.7893 18.098C35.668 18.6113 35.6073 19.2927 35.6073 20.142C35.6073 20.9727 35.6773 21.6493 35.8173 22.172C35.9666 22.6853 36.1953 23.0633 36.5033 23.306C36.8113 23.5393 37.2126 23.656 37.7073 23.656C37.9966 23.656 38.2626 23.628 38.5053 23.572C38.748 23.5067 38.9766 23.4133 39.1913 23.292L39.6533 24.692C39.392 24.8507 39.0793 24.972 38.7153 25.056C38.3513 25.14 37.95 25.182 37.5113 25.182Z" fill="white"/>
</g>
</g>
<defs>
<filter id="filter0_dd_1504_2647" x="0" y="0" width="60" height="56" filterUnits="userSpaceOnUse" color-interpolation-filters="sRGB">
<feFlood flood-opacity="0" result="BackgroundImageFix"/>
<feColorMatrix in="SourceAlpha" type="matrix" values="0 0 0 0 0 0 0 0 0 0 0 0 0 0 0 0 0 0 127 0" result="hardAlpha"/>
<feOffset dy="8"/>
<feGaussianBlur stdDeviation="8"/>
<feColorMatrix type="matrix" values="0 0 0 0 0 0 0 0 0 0 0 0 0 0 0 0 0 0 0.08 0"/>
<feBlend mode="normal" in2="BackgroundImageFix" result="effect1_dropShadow_1504_2647"/>
<feColorMatrix in="SourceAlpha" type="matrix" values="0 0 0 0 0 0 0 0 0 0 0 0 0 0 0 0 0 0 127 0" result="hardAlpha"/>
<feOffset/>
<feGaussianBlur stdDeviation="2"/>
<feColorMatrix type="matrix" values="0 0 0 0 0 0 0 0 0 0 0 0 0 0 0 0 0 0 0.04 0"/>
<feBlend mode="normal" in2="effect1_dropShadow_1504_2647" result="effect2_dropShadow_1504_2647"/>
<feBlend mode="normal" in="SourceGraphic" in2="effect2_dropShadow_1504_2647" result="shape"/>
</filter>
<filter id="filter1_dd_1504_2647" x="14.3271" y="9.10201" width="31.3262" height="22.094" filterUnits="userSpaceOnUse" color-interpolation-filters="sRGB">
<feFlood flood-opacity="0" result="BackgroundImageFix"/>
<feColorMatrix in="SourceAlpha" type="matrix" values="0 0 0 0 0 0 0 0 0 0 0 0 0 0 0 0 0 0 127 0" result="hardAlpha"/>
<feOffset dy="2"/>
<feGaussianBlur stdDeviation="2"/>
<feColorMatrix type="matrix" values="0 0 0 0 0 0 0 0 0 0 0 0 0 0 0 0 0 0 0.08 0"/>
<feBlend mode="normal" in2="BackgroundImageFix" result="effect1_dropShadow_1504_2647"/>
<feColorMatrix in="SourceAlpha" type="matrix" values="0 0 0 0 0 0 0 0 0 0 0 0 0 0 0 0 0 0 127 0" result="hardAlpha"/>
<feOffset/>
<feGaussianBlur stdDeviation="3"/>
<feColorMatrix type="matrix" values="0 0 0 0 0 0 0 0 0 0 0 0 0 0 0 0 0 0 0.02 0"/>
<feBlend mode="normal" in2="effect1_dropShadow_1504_2647" result="effect2_dropShadow_1504_2647"/>
<feBlend mode="normal" in="SourceGraphic" in2="effect2_dropShadow_1504_2647" result="shape"/>
</filter>
</defs>
</svg>
