<svg width="66" height="62" viewBox="0 0 66 62" fill="none" xmlns="http://www.w3.org/2000/svg">
<g filter="url(#filter0_dd_1504_2640)">
<path d="M35 9.5C36.8432 9.5 38.3009 9.49967 39.4795 9.58008C40.6714 9.66141 41.6875 9.82987 42.6357 10.2227C44.9635 11.1868 46.8132 13.0365 47.7773 15.3643C48.1701 16.3125 48.3386 17.3286 48.4199 18.5205C48.5003 19.6991 48.5 21.1568 48.5 23C48.5 24.8432 48.5003 26.3009 48.4199 27.4795C48.3386 28.6714 48.1701 29.6875 47.7773 30.6357C46.8132 32.9635 44.9635 34.8132 42.6357 35.7773C41.6875 36.1701 40.6714 36.3386 39.4795 36.4199C38.3009 36.5003 36.8432 36.5 35 36.5H31C29.1568 36.5 27.6991 36.5003 26.5205 36.4199C25.3286 36.3386 24.3125 36.1701 23.3643 35.7773C21.0365 34.8132 19.1868 32.9635 18.2227 30.6357C17.8299 29.6875 17.6614 28.6714 17.5801 27.4795C17.4997 26.3009 17.5 24.8432 17.5 23C17.5 21.1568 17.4997 19.6991 17.5801 18.5205C17.6614 17.3286 17.8299 16.3125 18.2227 15.3643C19.1868 13.0365 21.0365 11.1868 23.3643 10.2227C24.3125 9.82987 25.3286 9.66141 26.5205 9.58008C27.6991 9.49967 29.1568 9.5 31 9.5H35Z" stroke="#00A51E" stroke-width="3"/>
<path d="M31 11.5H35C36.8704 11.5 38.2482 11.5005 39.3428 11.5752C40.433 11.6496 41.2061 11.7962 41.8701 12.0713C43.7077 12.8325 45.1675 14.2923 45.9287 16.1299C46.2038 16.7939 46.3504 17.567 46.4248 18.6572C46.4995 19.7518 46.5 21.1296 46.5 23C46.5 24.8704 46.4995 26.2482 46.4248 27.3428C46.3504 28.433 46.2038 29.2061 45.9287 29.8701C45.1675 31.7077 43.7077 33.1675 41.8701 33.9287C41.2061 34.2038 40.433 34.3504 39.3428 34.4248C38.2482 34.4995 36.8704 34.5 35 34.5H31C29.1296 34.5 27.7518 34.4995 26.6572 34.4248C25.567 34.3504 24.7939 34.2038 24.1299 33.9287C22.2923 33.1675 20.8325 31.7077 20.0713 29.8701C19.7962 29.2061 19.6496 28.433 19.5752 27.3428C19.5005 26.2482 19.5 24.8704 19.5 23C19.5 21.1296 19.5005 19.7518 19.5752 18.6572C19.6496 17.567 19.7962 16.7939 20.0713 16.1299C20.8325 14.2923 22.2923 12.8325 24.1299 12.0713C24.7939 11.7962 25.567 11.6496 26.6572 11.5752C27.7518 11.5005 29.1296 11.5 31 11.5Z" fill="white"/>
<path d="M31 11.5H35C36.8704 11.5 38.2482 11.5005 39.3428 11.5752C40.433 11.6496 41.2061 11.7962 41.8701 12.0713C43.7077 12.8325 45.1675 14.2923 45.9287 16.1299C46.2038 16.7939 46.3504 17.567 46.4248 18.6572C46.4995 19.7518 46.5 21.1296 46.5 23C46.5 24.8704 46.4995 26.2482 46.4248 27.3428C46.3504 28.433 46.2038 29.2061 45.9287 29.8701C45.1675 31.7077 43.7077 33.1675 41.8701 33.9287C41.2061 34.2038 40.433 34.3504 39.3428 34.4248C38.2482 34.4995 36.8704 34.5 35 34.5H31C29.1296 34.5 27.7518 34.4995 26.6572 34.4248C25.567 34.3504 24.7939 34.2038 24.1299 33.9287C22.2923 33.1675 20.8325 31.7077 20.0713 29.8701C19.7962 29.2061 19.6496 28.433 19.5752 27.3428C19.5005 26.2482 19.5 24.8704 19.5 23C19.5 21.1296 19.5005 19.7518 19.5752 18.6572C19.6496 17.567 19.7962 16.7939 20.0713 16.1299C20.8325 14.2923 22.2923 12.8325 24.1299 12.0713C24.7939 11.7962 25.567 11.6496 26.6572 11.5752C27.7518 11.5005 29.1296 11.5 31 11.5Z" stroke="#007A14"/>
<path d="M23.3274 28C23.5234 26.9733 23.7521 25.928 24.0134 24.864C24.2748 23.8 24.5594 22.7173 24.8674 21.616C25.1754 20.5147 25.5021 19.4087 25.8474 18.298H27.6114C27.8728 19.138 28.1248 19.9733 28.3674 20.804C28.6101 21.6253 28.8388 22.442 29.0534 23.254C29.2681 24.066 29.4641 24.8687 29.6414 25.662C29.8281 26.446 29.9961 27.2253 30.1454 28H28.3254C28.2788 27.6733 28.2274 27.328 28.1714 26.964C28.1154 26.6 28.0501 26.222 27.9754 25.83H25.4554C25.3808 26.222 25.3108 26.6 25.2454 26.964C25.1894 27.3187 25.1381 27.664 25.0914 28H23.3274ZM25.7214 24.416H27.6954C27.6208 24.0707 27.5461 23.7207 27.4714 23.366C27.3968 23.0113 27.3174 22.6567 27.2334 22.302C27.1588 21.9473 27.0748 21.5927 26.9814 21.238C26.8974 20.8833 26.8088 20.5287 26.7154 20.174C26.6314 20.5193 26.5428 20.8693 26.4494 21.224C26.3654 21.5693 26.2814 21.9193 26.1974 22.274C26.1134 22.6287 26.0294 22.988 25.9454 23.352C25.8708 23.7067 25.7961 24.0613 25.7214 24.416ZM32.6372 28.196C32.2359 28.196 31.8345 28.1447 31.4332 28.042C31.0412 27.9487 30.6819 27.8133 30.3552 27.636L30.7612 26.306C30.9385 26.3993 31.1205 26.474 31.3072 26.53C31.5032 26.586 31.6992 26.6327 31.8952 26.67C32.0912 26.698 32.2872 26.712 32.4832 26.712C32.8005 26.712 33.0759 26.656 33.3092 26.544C33.5519 26.4227 33.7385 26.2547 33.8692 26.04C34.0092 25.816 34.0792 25.5407 34.0792 25.214C34.0792 24.8687 34.0045 24.5793 33.8552 24.346C33.7152 24.1033 33.5099 23.9213 33.2392 23.8C32.9685 23.6693 32.6419 23.604 32.2592 23.604H31.3772V22.19H32.2032C32.5952 22.19 32.9079 22.1387 33.1412 22.036C33.3745 21.924 33.5425 21.7653 33.6452 21.56C33.7479 21.3453 33.7992 21.0887 33.7992 20.79C33.7992 20.4353 33.6825 20.146 33.4492 19.922C33.2252 19.6887 32.9312 19.572 32.5672 19.572C32.2685 19.572 31.9839 19.6187 31.7132 19.712C31.4519 19.796 31.2139 19.9267 30.9992 20.104L30.5092 18.746C30.8265 18.522 31.1719 18.3587 31.5452 18.256C31.9185 18.1533 32.3292 18.102 32.7772 18.102C33.3279 18.102 33.8085 18.214 34.2192 18.438C34.6392 18.6527 34.9659 18.956 35.1992 19.348C35.4419 19.74 35.5632 20.1973 35.5632 20.72C35.5632 21.168 35.4559 21.5787 35.2412 21.952C35.0265 22.3253 34.7185 22.6147 34.3172 22.82C34.6532 22.9787 34.9379 23.1793 35.1712 23.422C35.4045 23.6553 35.5772 23.926 35.6892 24.234C35.8105 24.5327 35.8712 24.864 35.8712 25.228C35.8712 25.8533 35.7405 26.39 35.4792 26.838C35.2272 27.2767 34.8585 27.6127 34.3732 27.846C33.8972 28.0793 33.3185 28.196 32.6372 28.196ZM40.5113 28.182C39.6993 28.182 39.0133 27.9907 38.4533 27.608C37.8933 27.2253 37.4686 26.6607 37.1793 25.914C36.8993 25.1673 36.7593 24.2433 36.7593 23.142C36.7593 22.302 36.8386 21.5693 36.9973 20.944C37.156 20.3187 37.3846 19.796 37.6833 19.376C37.9913 18.956 38.374 18.6433 38.8313 18.438C39.298 18.2233 39.8393 18.116 40.4553 18.116C40.7166 18.116 40.9686 18.1347 41.2113 18.172C41.4633 18.2093 41.6966 18.2653 41.9113 18.34C42.1353 18.4053 42.3313 18.4893 42.4993 18.592L41.9953 20.048C41.79 19.9173 41.5566 19.8147 41.2953 19.74C41.034 19.6653 40.754 19.628 40.4553 19.628C40.0073 19.628 39.648 19.7447 39.3773 19.978C39.1066 20.2113 38.9106 20.5847 38.7893 21.098C38.668 21.6113 38.6073 22.2927 38.6073 23.142C38.6073 23.9727 38.6773 24.6493 38.8173 25.172C38.9666 25.6853 39.1953 26.0633 39.5033 26.306C39.8113 26.5393 40.2126 26.656 40.7073 26.656C40.9966 26.656 41.2626 26.628 41.5053 26.572C41.748 26.5067 41.9766 26.4133 42.1913 26.292L42.6533 27.692C42.392 27.8507 42.0793 27.972 41.7153 28.056C41.3513 28.14 40.95 28.182 40.5113 28.182Z" fill="#0E1017"/>
</g>
<defs>
<filter id="filter0_dd_1504_2640" x="0" y="0" width="66" height="62" filterUnits="userSpaceOnUse" color-interpolation-filters="sRGB">
<feFlood flood-opacity="0" result="BackgroundImageFix"/>
<feColorMatrix in="SourceAlpha" type="matrix" values="0 0 0 0 0 0 0 0 0 0 0 0 0 0 0 0 0 0 127 0" result="hardAlpha"/>
<feOffset dy="8"/>
<feGaussianBlur stdDeviation="8"/>
<feColorMatrix type="matrix" values="0 0 0 0 0 0 0 0 0 0 0 0 0 0 0 0 0 0 0.08 0"/>
<feBlend mode="normal" in2="BackgroundImageFix" result="effect1_dropShadow_1504_2640"/>
<feColorMatrix in="SourceAlpha" type="matrix" values="0 0 0 0 0 0 0 0 0 0 0 0 0 0 0 0 0 0 127 0" result="hardAlpha"/>
<feOffset/>
<feGaussianBlur stdDeviation="2"/>
<feColorMatrix type="matrix" values="0 0 0 0 0 0 0 0 0 0 0 0 0 0 0 0 0 0 0.04 0"/>
<feBlend mode="normal" in2="effect1_dropShadow_1504_2640" result="effect2_dropShadow_1504_2640"/>
<feBlend mode="normal" in="SourceGraphic" in2="effect2_dropShadow_1504_2640" result="shape"/>
</filter>
</defs>
</svg>
