<svg width="69" height="62" viewBox="0 0 69 62" fill="none" xmlns="http://www.w3.org/2000/svg">
<g filter="url(#filter0_dd_1504_2644)">
<path d="M38 9.5C39.8432 9.5 41.3009 9.49967 42.4795 9.58008C43.6714 9.66141 44.6875 9.82987 45.6357 10.2227C47.9635 11.1868 49.8132 13.0365 50.7773 15.3643C51.1701 16.3125 51.3386 17.3286 51.4199 18.5205C51.5003 19.6991 51.5 21.1568 51.5 23C51.5 24.8432 51.5003 26.3009 51.4199 27.4795C51.3386 28.6714 51.1701 29.6875 50.7773 30.6357C49.8132 32.9635 47.9635 34.8132 45.6357 35.7773C44.6875 36.1701 43.6714 36.3386 42.4795 36.4199C41.3009 36.5003 39.8432 36.5 38 36.5H31C29.1568 36.5 27.6991 36.5003 26.5205 36.4199C25.3286 36.3386 24.3125 36.1701 23.3643 35.7773C21.0365 34.8132 19.1868 32.9635 18.2227 30.6357C17.8299 29.6875 17.6614 28.6714 17.5801 27.4795C17.4997 26.3009 17.5 24.8432 17.5 23C17.5 21.1568 17.4997 19.6991 17.5801 18.5205C17.6614 17.3286 17.8299 16.3125 18.2227 15.3643C19.1868 13.0365 21.0365 11.1868 23.3643 10.2227C24.3125 9.82987 25.3286 9.66141 26.5205 9.58008C27.6991 9.49967 29.1568 9.5 31 9.5H38Z" stroke="#2E62F1" stroke-width="3"/>
<path d="M31 11.5H38C39.8704 11.5 41.2482 11.5005 42.3428 11.5752C43.433 11.6496 44.2061 11.7962 44.8701 12.0713C46.7077 12.8325 48.1675 14.2923 48.9287 16.1299C49.2038 16.7939 49.3504 17.567 49.4248 18.6572C49.4995 19.7518 49.5 21.1296 49.5 23C49.5 24.8704 49.4995 26.2482 49.4248 27.3428C49.3504 28.433 49.2038 29.2061 48.9287 29.8701C48.1675 31.7077 46.7077 33.1675 44.8701 33.9287C44.2061 34.2038 43.433 34.3504 42.3428 34.4248C41.2482 34.4995 39.8704 34.5 38 34.5H31C29.1296 34.5 27.7518 34.4995 26.6572 34.4248C25.567 34.3504 24.7939 34.2038 24.1299 33.9287C22.2923 33.1675 20.8325 31.7077 20.0713 29.8701C19.7962 29.2061 19.6496 28.433 19.5752 27.3428C19.5005 26.2482 19.5 24.8704 19.5 23C19.5 21.1296 19.5005 19.7518 19.5752 18.6572C19.6496 17.567 19.7962 16.7939 20.0713 16.1299C20.8325 14.2923 22.2923 12.8325 24.1299 12.0713C24.7939 11.7962 25.567 11.6496 26.6572 11.5752C27.7518 11.5005 29.1296 11.5 31 11.5Z" fill="white"/>
<path d="M31 11.5H38C39.8704 11.5 41.2482 11.5005 42.3428 11.5752C43.433 11.6496 44.2061 11.7962 44.8701 12.0713C46.7077 12.8325 48.1675 14.2923 48.9287 16.1299C49.2038 16.7939 49.3504 17.567 49.4248 18.6572C49.4995 19.7518 49.5 21.1296 49.5 23C49.5 24.8704 49.4995 26.2482 49.4248 27.3428C49.3504 28.433 49.2038 29.2061 48.9287 29.8701C48.1675 31.7077 46.7077 33.1675 44.8701 33.9287C44.2061 34.2038 43.433 34.3504 42.3428 34.4248C41.2482 34.4995 39.8704 34.5 38 34.5H31C29.1296 34.5 27.7518 34.4995 26.6572 34.4248C25.567 34.3504 24.7939 34.2038 24.1299 33.9287C22.2923 33.1675 20.8325 31.7077 20.0713 29.8701C19.7962 29.2061 19.6496 28.433 19.5752 27.3428C19.5005 26.2482 19.5 24.8704 19.5 23C19.5 21.1296 19.5005 19.7518 19.5752 18.6572C19.6496 17.567 19.7962 16.7939 20.0713 16.1299C20.8325 14.2923 22.2923 12.8325 24.1299 12.0713C24.7939 11.7962 25.567 11.6496 26.6572 11.5752C27.7518 11.5005 29.1296 11.5 31 11.5Z" stroke="#1E45BE"/>
<path d="M24.0177 28C24.0363 27.2067 24.0643 26.3853 24.1017 25.536C24.139 24.6773 24.181 23.8233 24.2277 22.974C24.2743 22.1153 24.3257 21.2893 24.3817 20.496C24.4377 19.6933 24.4937 18.9607 24.5497 18.298H26.2717C26.421 18.662 26.575 19.082 26.7337 19.558C26.9017 20.0247 27.0743 20.5287 27.2517 21.07C27.429 21.602 27.6017 22.148 27.7697 22.708C27.9377 23.2587 28.0963 23.8 28.2457 24.332C28.4043 23.8 28.5677 23.2587 28.7357 22.708C28.9037 22.148 29.0763 21.602 29.2537 21.07C29.431 20.538 29.6037 20.034 29.7717 19.558C29.9397 19.082 30.0983 18.662 30.2477 18.298H31.9697C32.0257 18.9607 32.0817 19.6933 32.1377 20.496C32.1937 21.2893 32.245 22.1153 32.2917 22.974C32.3383 23.8233 32.3803 24.6773 32.4177 25.536C32.455 26.3853 32.483 27.2067 32.5017 28H30.8357C30.8357 27.3653 30.8263 26.6607 30.8077 25.886C30.789 25.102 30.7657 24.2993 30.7377 23.478C30.7097 22.6473 30.6723 21.8353 30.6257 21.042C30.495 21.434 30.369 21.8213 30.2477 22.204C30.1263 22.5867 30.005 22.9693 29.8837 23.352C29.7717 23.7347 29.6597 24.1173 29.5477 24.5C29.445 24.8733 29.3423 25.2467 29.2397 25.62C29.1463 25.984 29.053 26.3527 28.9597 26.726H27.5597C27.4663 26.3527 27.3683 25.984 27.2657 25.62C27.163 25.2467 27.0557 24.8733 26.9437 24.5C26.841 24.1173 26.7337 23.7347 26.6217 23.352C26.5097 22.9693 26.393 22.5867 26.2717 22.204C26.1503 21.8213 26.0243 21.4387 25.8937 21.056C25.847 21.84 25.805 22.6473 25.7677 23.478C25.7397 24.2993 25.721 25.102 25.7117 25.886C25.7023 26.6607 25.6883 27.3653 25.6697 28H24.0177ZM33.1569 28C33.3529 26.9733 33.5816 25.928 33.8429 24.864C34.1043 23.8 34.3889 22.7173 34.6969 21.616C35.0049 20.5147 35.3316 19.4087 35.6769 18.298H37.4409C37.7023 19.138 37.9543 19.9733 38.1969 20.804C38.4396 21.6253 38.6683 22.442 38.8829 23.254C39.0976 24.066 39.2936 24.8687 39.4709 25.662C39.6576 26.446 39.8256 27.2253 39.9749 28H38.1549C38.1083 27.6733 38.0569 27.328 38.0009 26.964C37.9449 26.6 37.8796 26.222 37.8049 25.83H35.2849C35.2103 26.222 35.1403 26.6 35.0749 26.964C35.0189 27.3187 34.9676 27.664 34.9209 28H33.1569ZM35.5509 24.416H37.5249C37.4503 24.0707 37.3756 23.7207 37.3009 23.366C37.2263 23.0113 37.1469 22.6567 37.0629 22.302C36.9883 21.9473 36.9043 21.5927 36.8109 21.238C36.7269 20.8833 36.6383 20.5287 36.5449 20.174C36.4609 20.5193 36.3723 20.8693 36.2789 21.224C36.1949 21.5693 36.1109 21.9193 36.0269 22.274C35.9429 22.6287 35.8589 22.988 35.7749 23.352C35.7003 23.7067 35.6256 24.0613 35.5509 24.416ZM40.846 28V18.298H45.452V19.768H42.582V28H40.846Z" fill="#0E1017"/>
</g>
<defs>
<filter id="filter0_dd_1504_2644" x="0" y="0" width="69" height="62" filterUnits="userSpaceOnUse" color-interpolation-filters="sRGB">
<feFlood flood-opacity="0" result="BackgroundImageFix"/>
<feColorMatrix in="SourceAlpha" type="matrix" values="0 0 0 0 0 0 0 0 0 0 0 0 0 0 0 0 0 0 127 0" result="hardAlpha"/>
<feOffset dy="8"/>
<feGaussianBlur stdDeviation="8"/>
<feColorMatrix type="matrix" values="0 0 0 0 0 0 0 0 0 0 0 0 0 0 0 0 0 0 0.08 0"/>
<feBlend mode="normal" in2="BackgroundImageFix" result="effect1_dropShadow_1504_2644"/>
<feColorMatrix in="SourceAlpha" type="matrix" values="0 0 0 0 0 0 0 0 0 0 0 0 0 0 0 0 0 0 127 0" result="hardAlpha"/>
<feOffset/>
<feGaussianBlur stdDeviation="2"/>
<feColorMatrix type="matrix" values="0 0 0 0 0 0 0 0 0 0 0 0 0 0 0 0 0 0 0.04 0"/>
<feBlend mode="normal" in2="effect1_dropShadow_1504_2644" result="effect2_dropShadow_1504_2644"/>
<feBlend mode="normal" in="SourceGraphic" in2="effect2_dropShadow_1504_2644" result="shape"/>
</filter>
</defs>
</svg>
