<svg width="63" height="56" viewBox="0 0 63 56" fill="none" xmlns="http://www.w3.org/2000/svg">
<g filter="url(#filter0_dd_1504_2643)">
<path d="M28 8.5H35C36.8704 8.5 38.2482 8.50053 39.3428 8.5752C40.433 8.64958 41.2061 8.79625 41.8701 9.07129C43.7077 9.83249 45.1675 11.2923 45.9287 13.1299C46.2038 13.7939 46.3504 14.567 46.4248 15.6572C46.4995 16.7518 46.5 18.1296 46.5 20C46.5 21.8704 46.4995 23.2482 46.4248 24.3428C46.3504 25.433 46.2038 26.2061 45.9287 26.8701C45.1675 28.7077 43.7077 30.1675 41.8701 30.9287C41.2061 31.2038 40.433 31.3504 39.3428 31.4248C38.2482 31.4995 36.8704 31.5 35 31.5H28C26.1296 31.5 24.7518 31.4995 23.6572 31.4248C22.567 31.3504 21.7939 31.2038 21.1299 30.9287C19.2923 30.1675 17.8325 28.7077 17.0713 26.8701C16.7962 26.2061 16.6496 25.433 16.5752 24.3428C16.5005 23.2482 16.5 21.8704 16.5 20C16.5 18.1296 16.5005 16.7518 16.5752 15.6572C16.6496 14.567 16.7962 13.7939 17.0713 13.1299C17.8325 11.2923 19.2923 9.83249 21.1299 9.07129C21.7939 8.79625 22.567 8.64958 23.6572 8.5752C24.7518 8.50053 26.1296 8.5 28 8.5Z" fill="#2E62F1"/>
<path d="M28 8.5H35C36.8704 8.5 38.2482 8.50053 39.3428 8.5752C40.433 8.64958 41.2061 8.79625 41.8701 9.07129C43.7077 9.83249 45.1675 11.2923 45.9287 13.1299C46.2038 13.7939 46.3504 14.567 46.4248 15.6572C46.4995 16.7518 46.5 18.1296 46.5 20C46.5 21.8704 46.4995 23.2482 46.4248 24.3428C46.3504 25.433 46.2038 26.2061 45.9287 26.8701C45.1675 28.7077 43.7077 30.1675 41.8701 30.9287C41.2061 31.2038 40.433 31.3504 39.3428 31.4248C38.2482 31.4995 36.8704 31.5 35 31.5H28C26.1296 31.5 24.7518 31.4995 23.6572 31.4248C22.567 31.3504 21.7939 31.2038 21.1299 30.9287C19.2923 30.1675 17.8325 28.7077 17.0713 26.8701C16.7962 26.2061 16.6496 25.433 16.5752 24.3428C16.5005 23.2482 16.5 21.8704 16.5 20C16.5 18.1296 16.5005 16.7518 16.5752 15.6572C16.6496 14.567 16.7962 13.7939 17.0713 13.1299C17.8325 11.2923 19.2923 9.83249 21.1299 9.07129C21.7939 8.79625 22.567 8.64958 23.6572 8.5752C24.7518 8.50053 26.1296 8.5 28 8.5Z" stroke="#1E45BE"/>
<g filter="url(#filter1_dd_1504_2643)">
<path d="M21.0177 25C21.0363 24.2067 21.0643 23.3853 21.1017 22.536C21.139 21.6773 21.181 20.8233 21.2277 19.974C21.2743 19.1153 21.3257 18.2893 21.3817 17.496C21.4377 16.6933 21.4937 15.9607 21.5497 15.298H23.2717C23.421 15.662 23.575 16.082 23.7337 16.558C23.9017 17.0247 24.0743 17.5287 24.2517 18.07C24.429 18.602 24.6017 19.148 24.7697 19.708C24.9377 20.2587 25.0963 20.8 25.2457 21.332C25.4043 20.8 25.5677 20.2587 25.7357 19.708C25.9037 19.148 26.0763 18.602 26.2537 18.07C26.431 17.538 26.6037 17.034 26.7717 16.558C26.9397 16.082 27.0983 15.662 27.2477 15.298H28.9697C29.0257 15.9607 29.0817 16.6933 29.1377 17.496C29.1937 18.2893 29.245 19.1153 29.2917 19.974C29.3383 20.8233 29.3803 21.6773 29.4177 22.536C29.455 23.3853 29.483 24.2067 29.5017 25H27.8357C27.8357 24.3653 27.8263 23.6607 27.8077 22.886C27.789 22.102 27.7657 21.2993 27.7377 20.478C27.7097 19.6473 27.6723 18.8353 27.6257 18.042C27.495 18.434 27.369 18.8213 27.2477 19.204C27.1263 19.5867 27.005 19.9693 26.8837 20.352C26.7717 20.7347 26.6597 21.1173 26.5477 21.5C26.445 21.8733 26.3423 22.2467 26.2397 22.62C26.1463 22.984 26.053 23.3527 25.9597 23.726H24.5597C24.4663 23.3527 24.3683 22.984 24.2657 22.62C24.163 22.2467 24.0557 21.8733 23.9437 21.5C23.841 21.1173 23.7337 20.7347 23.6217 20.352C23.5097 19.9693 23.393 19.5867 23.2717 19.204C23.1503 18.8213 23.0243 18.4387 22.8937 18.056C22.847 18.84 22.805 19.6473 22.7677 20.478C22.7397 21.2993 22.721 22.102 22.7117 22.886C22.7023 23.6607 22.6883 24.3653 22.6697 25H21.0177ZM30.1569 25C30.3529 23.9733 30.5816 22.928 30.8429 21.864C31.1043 20.8 31.3889 19.7173 31.6969 18.616C32.0049 17.5147 32.3316 16.4087 32.6769 15.298H34.4409C34.7023 16.138 34.9543 16.9733 35.1969 17.804C35.4396 18.6253 35.6683 19.442 35.8829 20.254C36.0976 21.066 36.2936 21.8687 36.4709 22.662C36.6576 23.446 36.8256 24.2253 36.9749 25H35.1549C35.1083 24.6733 35.0569 24.328 35.0009 23.964C34.9449 23.6 34.8796 23.222 34.8049 22.83H32.2849C32.2103 23.222 32.1403 23.6 32.0749 23.964C32.0189 24.3187 31.9676 24.664 31.9209 25H30.1569ZM32.5509 21.416H34.5249C34.4503 21.0707 34.3756 20.7207 34.3009 20.366C34.2263 20.0113 34.1469 19.6567 34.0629 19.302C33.9883 18.9473 33.9043 18.5927 33.8109 18.238C33.7269 17.8833 33.6383 17.5287 33.5449 17.174C33.4609 17.5193 33.3723 17.8693 33.2789 18.224C33.1949 18.5693 33.1109 18.9193 33.0269 19.274C32.9429 19.6287 32.8589 19.988 32.7749 20.352C32.7003 20.7067 32.6256 21.0613 32.5509 21.416ZM37.846 25V15.298H42.452V16.768H39.582V25H37.846Z" fill="white"/>
</g>
</g>
<defs>
<filter id="filter0_dd_1504_2643" x="0" y="0" width="63" height="56" filterUnits="userSpaceOnUse" color-interpolation-filters="sRGB">
<feFlood flood-opacity="0" result="BackgroundImageFix"/>
<feColorMatrix in="SourceAlpha" type="matrix" values="0 0 0 0 0 0 0 0 0 0 0 0 0 0 0 0 0 0 127 0" result="hardAlpha"/>
<feOffset dy="8"/>
<feGaussianBlur stdDeviation="8"/>
<feColorMatrix type="matrix" values="0 0 0 0 0 0 0 0 0 0 0 0 0 0 0 0 0 0 0.08 0"/>
<feBlend mode="normal" in2="BackgroundImageFix" result="effect1_dropShadow_1504_2643"/>
<feColorMatrix in="SourceAlpha" type="matrix" values="0 0 0 0 0 0 0 0 0 0 0 0 0 0 0 0 0 0 127 0" result="hardAlpha"/>
<feOffset/>
<feGaussianBlur stdDeviation="2"/>
<feColorMatrix type="matrix" values="0 0 0 0 0 0 0 0 0 0 0 0 0 0 0 0 0 0 0.04 0"/>
<feBlend mode="normal" in2="effect1_dropShadow_1504_2643" result="effect2_dropShadow_1504_2643"/>
<feBlend mode="normal" in="SourceGraphic" in2="effect2_dropShadow_1504_2643" result="shape"/>
</filter>
<filter id="filter1_dd_1504_2643" x="15.0176" y="9.298" width="33.4346" height="21.702" filterUnits="userSpaceOnUse" color-interpolation-filters="sRGB">
<feFlood flood-opacity="0" result="BackgroundImageFix"/>
<feColorMatrix in="SourceAlpha" type="matrix" values="0 0 0 0 0 0 0 0 0 0 0 0 0 0 0 0 0 0 127 0" result="hardAlpha"/>
<feOffset dy="2"/>
<feGaussianBlur stdDeviation="2"/>
<feColorMatrix type="matrix" values="0 0 0 0 0 0 0 0 0 0 0 0 0 0 0 0 0 0 0.08 0"/>
<feBlend mode="normal" in2="BackgroundImageFix" result="effect1_dropShadow_1504_2643"/>
<feColorMatrix in="SourceAlpha" type="matrix" values="0 0 0 0 0 0 0 0 0 0 0 0 0 0 0 0 0 0 127 0" result="hardAlpha"/>
<feOffset/>
<feGaussianBlur stdDeviation="3"/>
<feColorMatrix type="matrix" values="0 0 0 0 0 0 0 0 0 0 0 0 0 0 0 0 0 0 0.02 0"/>
<feBlend mode="normal" in2="effect1_dropShadow_1504_2643" result="effect2_dropShadow_1504_2643"/>
<feBlend mode="normal" in="SourceGraphic" in2="effect2_dropShadow_1504_2643" result="shape"/>
</filter>
</defs>
</svg>
