<svg width="68" height="62" viewBox="0 0 68 62" fill="none" xmlns="http://www.w3.org/2000/svg">
<g filter="url(#filter0_dd_1504_2641)">
<path d="M37 9.5C38.8432 9.5 40.3009 9.49967 41.4795 9.58008C42.6714 9.66141 43.6875 9.82987 44.6357 10.2227C46.9635 11.1868 48.8132 13.0365 49.7773 15.3643C50.1701 16.3125 50.3386 17.3286 50.4199 18.5205C50.5003 19.6991 50.5 21.1568 50.5 23C50.5 24.8432 50.5003 26.3009 50.4199 27.4795C50.3386 28.6714 50.1701 29.6875 49.7773 30.6357C48.8132 32.9635 46.9635 34.8132 44.6357 35.7773C43.6875 36.1701 42.6714 36.3386 41.4795 36.4199C40.3009 36.5003 38.8432 36.5 37 36.5H31C29.1568 36.5 27.6991 36.5003 26.5205 36.4199C25.3286 36.3386 24.3125 36.1701 23.3643 35.7773C21.0365 34.8132 19.1868 32.9635 18.2227 30.6357C17.8299 29.6875 17.6614 28.6714 17.5801 27.4795C17.4997 26.3009 17.5 24.8432 17.5 23C17.5 21.1568 17.4997 19.6991 17.5801 18.5205C17.6614 17.3286 17.8299 16.3125 18.2227 15.3643C19.1868 13.0365 21.0365 11.1868 23.3643 10.2227C24.3125 9.82987 25.3286 9.66141 26.5205 9.58008C27.6991 9.49967 29.1568 9.5 31 9.5H37Z" stroke="#892EFF" stroke-width="3"/>
<path d="M31 11.5H37C38.8704 11.5 40.2482 11.5005 41.3428 11.5752C42.433 11.6496 43.2061 11.7962 43.8701 12.0713C45.7077 12.8325 47.1675 14.2923 47.9287 16.1299C48.2038 16.7939 48.3504 17.567 48.4248 18.6572C48.4995 19.7518 48.5 21.1296 48.5 23C48.5 24.8704 48.4995 26.2482 48.4248 27.3428C48.3504 28.433 48.2038 29.2061 47.9287 29.8701C47.1675 31.7077 45.7077 33.1675 43.8701 33.9287C43.2061 34.2038 42.433 34.3504 41.3428 34.4248C40.2482 34.4995 38.8704 34.5 37 34.5H31C29.1296 34.5 27.7518 34.4995 26.6572 34.4248C25.567 34.3504 24.7939 34.2038 24.1299 33.9287C22.2923 33.1675 20.8325 31.7077 20.0713 29.8701C19.7962 29.2061 19.6496 28.433 19.5752 27.3428C19.5005 26.2482 19.5 24.8704 19.5 23C19.5 21.1296 19.5005 19.7518 19.5752 18.6572C19.6496 17.567 19.7962 16.7939 20.0713 16.1299C20.8325 14.2923 22.2923 12.8325 24.1299 12.0713C24.7939 11.7962 25.567 11.6496 26.6572 11.5752C27.7518 11.5005 29.1296 11.5 31 11.5Z" fill="white"/>
<path d="M31 11.5H37C38.8704 11.5 40.2482 11.5005 41.3428 11.5752C42.433 11.6496 43.2061 11.7962 43.8701 12.0713C45.7077 12.8325 47.1675 14.2923 47.9287 16.1299C48.2038 16.7939 48.3504 17.567 48.4248 18.6572C48.4995 19.7518 48.5 21.1296 48.5 23C48.5 24.8704 48.4995 26.2482 48.4248 27.3428C48.3504 28.433 48.2038 29.2061 47.9287 29.8701C47.1675 31.7077 45.7077 33.1675 43.8701 33.9287C43.2061 34.2038 42.433 34.3504 41.3428 34.4248C40.2482 34.4995 38.8704 34.5 37 34.5H31C29.1296 34.5 27.7518 34.4995 26.6572 34.4248C25.567 34.3504 24.7939 34.2038 24.1299 33.9287C22.2923 33.1675 20.8325 31.7077 20.0713 29.8701C19.7962 29.2061 19.6496 28.433 19.5752 27.3428C19.5005 26.2482 19.5 24.8704 19.5 23C19.5 21.1296 19.5005 19.7518 19.5752 18.6572C19.6496 17.567 19.7962 16.7939 20.0713 16.1299C20.8325 14.2923 22.2923 12.8325 24.1299 12.0713C24.7939 11.7962 25.567 11.6496 26.6572 11.5752C27.7518 11.5005 29.1296 11.5 31 11.5Z" stroke="#631ECC"/>
<path d="M27.8875 28.182C27.0755 28.182 26.3895 27.9907 25.8295 27.608C25.2695 27.2253 24.8448 26.6607 24.5555 25.914C24.2755 25.1673 24.1355 24.2433 24.1355 23.142C24.1355 22.302 24.2148 21.5693 24.3735 20.944C24.5322 20.3187 24.7608 19.796 25.0595 19.376C25.3675 18.956 25.7502 18.6433 26.2075 18.438C26.6742 18.2233 27.2155 18.116 27.8315 18.116C28.0928 18.116 28.3448 18.1347 28.5875 18.172C28.8395 18.2093 29.0728 18.2653 29.2875 18.34C29.5115 18.4053 29.7075 18.4893 29.8755 18.592L29.3715 20.048C29.1662 19.9173 28.9328 19.8147 28.6715 19.74C28.4102 19.6653 28.1302 19.628 27.8315 19.628C27.3835 19.628 27.0242 19.7447 26.7535 19.978C26.4828 20.2113 26.2868 20.5847 26.1655 21.098C26.0442 21.6113 25.9835 22.2927 25.9835 23.142C25.9835 23.9727 26.0535 24.6493 26.1935 25.172C26.3428 25.6853 26.5715 26.0633 26.8795 26.306C27.1875 26.5393 27.5888 26.656 28.0835 26.656C28.3728 26.656 28.6388 26.628 28.8815 26.572C29.1242 26.5067 29.3528 26.4133 29.5675 26.292L30.0295 27.692C29.7682 27.8507 29.4555 27.972 29.0915 28.056C28.7275 28.14 28.3262 28.182 27.8875 28.182ZM30.1748 28C30.3242 27.5427 30.4922 27.0667 30.6788 26.572C30.8748 26.0773 31.0988 25.536 31.3508 24.948C31.6122 24.36 31.9155 23.702 32.2608 22.974L30.3148 18.298H32.1768L33.4228 21.812L34.6548 18.298H36.4608L34.5288 22.904C34.8648 23.6227 35.1588 24.2807 35.4108 24.878C35.6628 25.466 35.8868 26.0167 36.0828 26.53C36.2788 27.034 36.4515 27.524 36.6008 28H34.8088C34.6782 27.58 34.5428 27.1833 34.4028 26.81C34.2722 26.4273 34.1228 26.0307 33.9548 25.62C33.7868 25.2093 33.5908 24.7567 33.3668 24.262C33.1988 24.6447 33.0448 24.9993 32.9048 25.326C32.7648 25.6527 32.6342 25.9653 32.5128 26.264C32.4008 26.5533 32.2935 26.8427 32.1908 27.132C32.0975 27.412 32.0042 27.7013 31.9108 28H30.1748ZM37.4407 28V18.298H39.1767V22.218H41.7247V18.298H43.4607V28H41.7247V23.688H39.1767V28H37.4407Z" fill="#0E1017"/>
</g>
<defs>
<filter id="filter0_dd_1504_2641" x="0" y="0" width="68" height="62" filterUnits="userSpaceOnUse" color-interpolation-filters="sRGB">
<feFlood flood-opacity="0" result="BackgroundImageFix"/>
<feColorMatrix in="SourceAlpha" type="matrix" values="0 0 0 0 0 0 0 0 0 0 0 0 0 0 0 0 0 0 127 0" result="hardAlpha"/>
<feOffset dy="8"/>
<feGaussianBlur stdDeviation="8"/>
<feColorMatrix type="matrix" values="0 0 0 0 0 0 0 0 0 0 0 0 0 0 0 0 0 0 0.08 0"/>
<feBlend mode="normal" in2="BackgroundImageFix" result="effect1_dropShadow_1504_2641"/>
<feColorMatrix in="SourceAlpha" type="matrix" values="0 0 0 0 0 0 0 0 0 0 0 0 0 0 0 0 0 0 127 0" result="hardAlpha"/>
<feOffset/>
<feGaussianBlur stdDeviation="2"/>
<feColorMatrix type="matrix" values="0 0 0 0 0 0 0 0 0 0 0 0 0 0 0 0 0 0 0.04 0"/>
<feBlend mode="normal" in2="effect1_dropShadow_1504_2641" result="effect2_dropShadow_1504_2641"/>
<feBlend mode="normal" in="SourceGraphic" in2="effect2_dropShadow_1504_2641" result="shape"/>
</filter>
</defs>
</svg>
