<svg width="62" height="56" viewBox="0 0 62 56" fill="none" xmlns="http://www.w3.org/2000/svg">
<g filter="url(#filter0_dd_1504_2636)">
<path d="M28 8.5H34C35.8704 8.5 37.2482 8.50053 38.3428 8.5752C39.433 8.64958 40.2061 8.79625 40.8701 9.07129C42.7077 9.83249 44.1675 11.2923 44.9287 13.1299C45.2038 13.7939 45.3504 14.567 45.4248 15.6572C45.4995 16.7518 45.5 18.1296 45.5 20C45.5 21.8704 45.4995 23.2482 45.4248 24.3428C45.3504 25.433 45.2038 26.2061 44.9287 26.8701C44.1675 28.7077 42.7077 30.1675 40.8701 30.9287C40.2061 31.2038 39.433 31.3504 38.3428 31.4248C37.2482 31.4995 35.8704 31.5 34 31.5H28C26.1296 31.5 24.7518 31.4995 23.6572 31.4248C22.567 31.3504 21.7939 31.2038 21.1299 30.9287C19.2923 30.1675 17.8325 28.7077 17.0713 26.8701C16.7962 26.2061 16.6496 25.433 16.5752 24.3428C16.5005 23.2482 16.5 21.8704 16.5 20C16.5 18.1296 16.5005 16.7518 16.5752 15.6572C16.6496 14.567 16.7962 13.7939 17.0713 13.1299C17.8325 11.2923 19.2923 9.83249 21.1299 9.07129C21.7939 8.79625 22.567 8.64958 23.6572 8.5752C24.7518 8.50053 26.1296 8.5 28 8.5Z" fill="#892EFF"/>
<path d="M28 8.5H34C35.8704 8.5 37.2482 8.50053 38.3428 8.5752C39.433 8.64958 40.2061 8.79625 40.8701 9.07129C42.7077 9.83249 44.1675 11.2923 44.9287 13.1299C45.2038 13.7939 45.3504 14.567 45.4248 15.6572C45.4995 16.7518 45.5 18.1296 45.5 20C45.5 21.8704 45.4995 23.2482 45.4248 24.3428C45.3504 25.433 45.2038 26.2061 44.9287 26.8701C44.1675 28.7077 42.7077 30.1675 40.8701 30.9287C40.2061 31.2038 39.433 31.3504 38.3428 31.4248C37.2482 31.4995 35.8704 31.5 34 31.5H28C26.1296 31.5 24.7518 31.4995 23.6572 31.4248C22.567 31.3504 21.7939 31.2038 21.1299 30.9287C19.2923 30.1675 17.8325 28.7077 17.0713 26.8701C16.7962 26.2061 16.6496 25.433 16.5752 24.3428C16.5005 23.2482 16.5 21.8704 16.5 20C16.5 18.1296 16.5005 16.7518 16.5752 15.6572C16.6496 14.567 16.7962 13.7939 17.0713 13.1299C17.8325 11.2923 19.2923 9.83249 21.1299 9.07129C21.7939 8.79625 22.567 8.64958 23.6572 8.5752C24.7518 8.50053 26.1296 8.5 28 8.5Z" stroke="#631ECC"/>
<g filter="url(#filter1_dd_1504_2636)">
<path d="M24.8875 25.182C24.0755 25.182 23.3895 24.9907 22.8295 24.608C22.2695 24.2253 21.8448 23.6607 21.5555 22.914C21.2755 22.1673 21.1355 21.2433 21.1355 20.142C21.1355 19.302 21.2148 18.5693 21.3735 17.944C21.5322 17.3187 21.7608 16.796 22.0595 16.376C22.3675 15.956 22.7502 15.6433 23.2075 15.438C23.6742 15.2233 24.2155 15.116 24.8315 15.116C25.0928 15.116 25.3448 15.1347 25.5875 15.172C25.8395 15.2093 26.0728 15.2653 26.2875 15.34C26.5115 15.4053 26.7075 15.4893 26.8755 15.592L26.3715 17.048C26.1662 16.9173 25.9328 16.8147 25.6715 16.74C25.4102 16.6653 25.1302 16.628 24.8315 16.628C24.3835 16.628 24.0242 16.7447 23.7535 16.978C23.4828 17.2113 23.2868 17.5847 23.1655 18.098C23.0442 18.6113 22.9835 19.2927 22.9835 20.142C22.9835 20.9727 23.0535 21.6493 23.1935 22.172C23.3428 22.6853 23.5715 23.0633 23.8795 23.306C24.1875 23.5393 24.5888 23.656 25.0835 23.656C25.3728 23.656 25.6388 23.628 25.8815 23.572C26.1242 23.5067 26.3528 23.4133 26.5675 23.292L27.0295 24.692C26.7682 24.8507 26.4555 24.972 26.0915 25.056C25.7275 25.14 25.3262 25.182 24.8875 25.182ZM27.1748 25C27.3242 24.5427 27.4922 24.0667 27.6788 23.572C27.8748 23.0773 28.0988 22.536 28.3508 21.948C28.6122 21.36 28.9155 20.702 29.2608 19.974L27.3148 15.298H29.1768L30.4228 18.812L31.6548 15.298H33.4608L31.5288 19.904C31.8648 20.6227 32.1588 21.2807 32.4108 21.878C32.6628 22.466 32.8868 23.0167 33.0828 23.53C33.2788 24.034 33.4515 24.524 33.6008 25H31.8088C31.6782 24.58 31.5428 24.1833 31.4028 23.81C31.2722 23.4273 31.1228 23.0307 30.9548 22.62C30.7868 22.2093 30.5908 21.7567 30.3668 21.262C30.1988 21.6447 30.0448 21.9993 29.9048 22.326C29.7648 22.6527 29.6342 22.9653 29.5128 23.264C29.4008 23.5533 29.2935 23.8427 29.1908 24.132C29.0975 24.412 29.0042 24.7013 28.9108 25H27.1748ZM34.4407 25V15.298H36.1767V19.218H38.7247V15.298H40.4607V25H38.7247V20.688H36.1767V25H34.4407Z" fill="white"/>
</g>
</g>
<defs>
<filter id="filter0_dd_1504_2636" x="0" y="0" width="62" height="56" filterUnits="userSpaceOnUse" color-interpolation-filters="sRGB">
<feFlood flood-opacity="0" result="BackgroundImageFix"/>
<feColorMatrix in="SourceAlpha" type="matrix" values="0 0 0 0 0 0 0 0 0 0 0 0 0 0 0 0 0 0 127 0" result="hardAlpha"/>
<feOffset dy="8"/>
<feGaussianBlur stdDeviation="8"/>
<feColorMatrix type="matrix" values="0 0 0 0 0 0 0 0 0 0 0 0 0 0 0 0 0 0 0.08 0"/>
<feBlend mode="normal" in2="BackgroundImageFix" result="effect1_dropShadow_1504_2636"/>
<feColorMatrix in="SourceAlpha" type="matrix" values="0 0 0 0 0 0 0 0 0 0 0 0 0 0 0 0 0 0 127 0" result="hardAlpha"/>
<feOffset/>
<feGaussianBlur stdDeviation="2"/>
<feColorMatrix type="matrix" values="0 0 0 0 0 0 0 0 0 0 0 0 0 0 0 0 0 0 0.04 0"/>
<feBlend mode="normal" in2="effect1_dropShadow_1504_2636" result="effect2_dropShadow_1504_2636"/>
<feBlend mode="normal" in="SourceGraphic" in2="effect2_dropShadow_1504_2636" result="shape"/>
</filter>
<filter id="filter1_dd_1504_2636" x="15.1357" y="9.116" width="31.3252" height="22.066" filterUnits="userSpaceOnUse" color-interpolation-filters="sRGB">
<feFlood flood-opacity="0" result="BackgroundImageFix"/>
<feColorMatrix in="SourceAlpha" type="matrix" values="0 0 0 0 0 0 0 0 0 0 0 0 0 0 0 0 0 0 127 0" result="hardAlpha"/>
<feOffset dy="2"/>
<feGaussianBlur stdDeviation="2"/>
<feColorMatrix type="matrix" values="0 0 0 0 0 0 0 0 0 0 0 0 0 0 0 0 0 0 0.08 0"/>
<feBlend mode="normal" in2="BackgroundImageFix" result="effect1_dropShadow_1504_2636"/>
<feColorMatrix in="SourceAlpha" type="matrix" values="0 0 0 0 0 0 0 0 0 0 0 0 0 0 0 0 0 0 127 0" result="hardAlpha"/>
<feOffset/>
<feGaussianBlur stdDeviation="3"/>
<feColorMatrix type="matrix" values="0 0 0 0 0 0 0 0 0 0 0 0 0 0 0 0 0 0 0.02 0"/>
<feBlend mode="normal" in2="effect1_dropShadow_1504_2636" result="effect2_dropShadow_1504_2636"/>
<feBlend mode="normal" in="SourceGraphic" in2="effect2_dropShadow_1504_2636" result="shape"/>
</filter>
</defs>
</svg>
